<svg viewBox="0 0 640 400"   preserveAspectRatio="xMidYMid meet" height="400" width="640" xmlns="http://www.w3.org/2000/svg" xmlns:xlink="http://www.w3.org/1999/xlink"><rect width="640" height="400" x="0" y="0" opacity="0"   id="background"></rect><g id="tight-bounds" transform="matrix(1,0,0,1,160,20)"><svg viewBox="0 0 320 360" height="360" width="320"><g><svg></svg></g><g><svg viewBox="0 0 320 360" height="360" width="320"><g><path xmlns="http://www.w3.org/2000/svg" d="M219.58 41.008c0.707 0 6.365 2.829 9.547 3.89-1.061 0.354-3.536-0.707-6.365-1.768 0.707 0 2.122 0.354 3.536 1.06-0.707-0.707-6.011-2.475-6.718-3.182M166.895 30.047c1.061-0.354 13.436 1.414 19.094 1.768 0.354-0.354-0.707-0.354-2.122-0.707 1.768-0.354 5.304 0.707 7.779 1.06-7.425 0.354-15.558-1.768-22.629-1.06-2.475 0-0.707-0.707-2.122-1.061M156.641 30.047c6.365 0 11.315 0 2.121 0.707-1.061-0.354-2.475-0.354-2.121-0.707M256.707 59.395c0.707 0 3.536 3.182 4.95 4.243-0.354 0.354-3.182-2.475-4.596-3.536 0.354 0.354 0 0-0.354-0.707M249.635 54.798c-2.829-2.475-3.889-2.475-4.243-3.889 2.475 1.414 4.243 2.829 4.243 3.889M204.022 32.522c0.354-0.354 1.061 0.354 2.829 0.707-2.122-0.354-1.768 0-1.061 0.707-2.475-0.354-3.182-0.707-2.475-1.414 1.414 0.707 1.768 0.354 0.707 0M103.602 36.765c0-0.354 1.414-1.061 2.475-1.414-1.061 0.707-0.707 1.061 1.061 0.353 0 0.354-2.122 1.061-3.536 1.768 0.707-0.354 1.414-1.414 0-0.707M211.094 28.986c-1.061 0.354-4.95-1.768-8.84-2.475-2.122-0.707 8.486 1.768 8.84 2.475M2.475 203.66c2.122 8.84 0.707 8.486 0 0M2.829 150.621c0.354-1.414 0.707-5.304 1.06-4.95-1.061 8.486-2.829 12.376-3.182 18.74 1.061-5.657-0.354 3.182-0.707 5.304 0.354 2.829 0.354-1.768 1.061-1.06 0.707 1.061-1.414 15.912-0.707 7.779-0.707 7.425 0 15.558 1.414 17.679-1.768 11.315 7.072 36.773 8.84 42.077 0.354 0.354 0-1.768 0.707-0.353 0.707 4.597 3.889 7.779 4.95 12.729 1.061 1.414 5.304 9.193 6.011 10.962 1.414 2.829 2.122 2.475 3.536 5.303 4.243 8.133 10.961 15.912 17.326 23.337 20.508 24.044 51.978 43.845 86.984 50.918 35.006 7.425 71.779 2.122 100.419-11.669 1.768-1.061 1.414-1.414 3.536-2.122 9.901-3.182 21.923-13.436 28.641-17.326 3.182-3.536 11.669-9.547 12.73-13.082 6.011-4.95 12.022-13.083 15.204-18.387 1.768-2.829 3.182-2.829 3.889-4.597-0.354 0 5.657-7.425 7.426-11.668-0.707 0-1.768 2.122-1.768 0 12.729-24.398 19.801-57.282 15.911-79.912 0.707 27.934-6.365 59.05-19.801 78.851-6.011 12.729-18.387 26.519-29.701 36.42-1.768 1.768-3.536 3.889-5.658 5.304-6.718 5.657-14.144 10.254-21.922 14.497-18.387 10.254-38.895 19.094-62.94 19.447 41.37-3.536 78.497-24.398 99.006-49.856-15.558 15.204-22.276 21.215-39.602 30.055-1.414 2.475-13.083 7.425-20.862 9.547 4.597-2.122 14.144-5.657 17.326-8.486-25.812 12.376-54.453 19.448-81.326 15.558 10.254 0 24.751 0.354 38.541-2.121 2.122-0.707 3.182-1.414 5.658-1.768 26.873-6.011 52.685-19.094 71.072-37.481-10.608 9.547-26.519 20.862-36.774 24.398 9.547-5.304 26.873-15.558 32.53-23.337-11.315 11.315-32.53 22.63-45.966 27.58-2.122 0.354 1.414-1.414-2.122 0-4.243 1.061-2.475 1.061-3.536 1.768-16.265 4.597-35.006 8.486-50.563 7.072-2.829-0.354-3.889-1.061-6.365-1.061-2.829-0.354-5.304-0.354-8.486-0.354-12.376-1.414-25.812-6.365-35.713-10.607-5.304-2.475-10.608-4.243-15.912-7.426-4.243-2.475-7.779-5.304-11.314-8.132-13.436-9.901-24.751-19.801-35.36-33.945-19.094-26.519-28.994-59.757-27.58-92.641 1.414-32.884 14.497-65.061 35.359-88.752-1.061 1.061 1.414-2.475 3.536-4.596 0 0.707-0.354 1.768 2.122-0.707 2.122-2.475-0.707-0.707 0.353-2.122 21.923-24.044 60.111-43.492 99.36-44.199 1.414-1.061 3.889-2.475 6.718-1.768 0 0.354-1.768 0.354-1.768 0.354 3.889-0.354 7.425-0.354 9.193 0.353 0.354-0.354-1.414-0.707 0-0.707 2.475 0.707 3.182 0 4.597 0.707-1.061 0-2.122 0-2.829 0.354 8.84 0 14.497 2.122 23.337 2.829-4.597-1.061-5.657-1.061-9.193-2.122 3.889 0.707 5.657 1.414 7.425 1.061-0.707 0-0.354-1.061 0.354-0.707 7.072 1.768 7.779 2.475 15.204 4.95 0.707-0.707-3.182-1.061-4.243-2.122 7.072 2.475 13.436 4.243 17.68 7.072-1.414-1.061-5.657-2.475-8.84-3.889-0.354 0.354 1.061 0.707 1.414 1.414-3.536-1.768-8.486-3.536-13.436-4.243 4.243 1.061 7.072 2.475 8.84 3.182-3.889-0.707-8.84-3.182-14.498-4.243 9.193 2.829 26.519 9.193 37.127 14.851-3.889-2.475-8.486-4.243-10.961-5.657 2.122 0.354 4.597 1.768 4.597 1.06 2.475 1.061 5.657 3.536 7.425 3.89-3.182-2.122-9.547-5.304-11.668-6.365 26.519 12.022 50.21 32.177 65.414 57.989 1.414 2.475 3.536 8.133 5.304 8.84-0.354-1.768-1.768-2.829-3.182-5.657 0.707 0 0.707-1.061 0-2.122-1.414-1.768 0 1.414-1.415-0.354-6.365-11.669-14.144-21.923-26.165-33.237 6.718 6.365 1.768 1.768 0.353-0.354 9.193 8.133 19.801 21.923 24.398 28.995-0.707-1.061-1.061-1.768-0.707-1.768 8.486 14.497 13.79 27.58 19.094 46.32 0.354 0.354 0-1.414 0.707-0.353 3.536 14.851 4.597 27.227 4.243 38.541 2.829-19.094-3.536-48.796-14.851-72.133-1.414-2.829-1.414-0.707-2.829-3.889 0-1.061-1.061-3.182-1.768-4.597-14.144-23.337-31.47-39.956-51.978-53.038 1.414 0.707 4.243 2.829 4.244 2.475-38.188-25.105-82.387-28.641-118.807-20.862-2.475 1.061-3.536 2.122-6.365 3.536 5.304-1.768 8.486-2.122 13.437-3.183 1.061-1.061-4.597 0.354-2.122-0.707 0.354 0.354 4.95-0.707 6.011-0.353 0 0.354-1.414 0.707-1.768 1.06 11.669-2.475 23.691-2.829 33.945-2.121-6.011 0.354-16.972-0.707-20.508 1.061 3.536-0.354 8.486-0.707 11.668-0.354-4.243 0-12.022 0.354-15.558 0.707-0.354-0.354 5.657-1.061 1.768-1.06-1.768 0.354-4.597 0.354-5.657 1.414-30.409 2.829-60.111 18.74-80.973 37.481-4.243 3.536-9.193 7.425-12.375 11.314-7.779 8.84-12.729 17.68-18.387 25.459 3.536-7.425 11.315-18.74 20.508-28.287 9.193-9.547 19.094-17.68 24.398-21.923 0 1.414 8.486-5.304 11.669-7.425-2.122 1.768 1.414-0.707 2.121-0.354 11.315-6.718 20.508-9.193 30.763-13.083-2.475 0.707-4.597 1.414-4.951 1.061 2.475-0.707 3.889-1.414 3.536-1.768-9.901 2.829-25.459 9.547-37.834 16.972 22.276-15.204 50.564-24.398 78.497-24.751 27.934-0.707 55.16 6.365 76.729 17.68 14.497 6.365 28.287 18.033 39.249 29.348 3.182 2.829 0.707-0.707 5.304 4.243-1.414-0.707-2.475-1.414-0.707 0.707 2.829 3.182-0.707-2.475 3.889 3.182-0.354 0-1.768-1.768-1.768-1.061 12.376 10.961 21.923 30.762 27.58 43.846-1.414-5.304-4.95-12.729-7.779-18.033 8.486 15.558 11.315 24.751 14.851 38.541 1.414 1.061-0.707-4.95 0.707-2.121 0.354 2.122 0.707 8.84 2.122 9.9-1.061-6.718-2.829-14.851-4.243-16.265 1.061 0.707-1.768-8.133-3.536-10.254-0.707-5.657-5.657-15.558-9.901-22.984-15.204-29.702-42.431-54.099-72.839-67.536 0-0.707-1.768-1.414-2.476-2.121-30.055-12.729-66.122-16.265-100.773-8.133-35.006 8.486-67.889 28.641-91.227 57.636 1.061-3.536 9.901-10.254 10.255-13.083-10.254 10.961-21.215 25.459-28.641 41.016-7.779 15.558-12.022 31.47-13.79 43.138" fill="#fa4238" fill-rule="nonzero" stroke="none" stroke-width="1" stroke-linecap="butt" stroke-linejoin="miter" stroke-miterlimit="10" stroke-dasharray="" stroke-dashoffset="0" font-family="none" font-weight="none" font-size="none" text-anchor="none" style="mix-blend-mode: normal" data-fill-palette-color="tertiary"></path></g><g transform="matrix(1,0,0,1,48.000000000000014,164.8450252190031)"><svg viewBox="0 0 223.99999999999997 30.3099495619938" height="30.3099495619938" width="223.99999999999997"><g><svg viewBox="0 0 318.7620768058739 43.132421742243004" height="30.3099495619938" width="223.99999999999997"><g transform="matrix(1,0,0,1,0,5.961137881887421)"><svg viewBox="0 0 224 31.210145978468162" height="31.210145978468162" width="224"><g id="textblocktransform"><svg viewBox="0 0 224 31.210145978468162" height="31.210145978468162" width="224" id="textblock"><g><svg viewBox="0 0 224 13.957551522608428" height="13.957551522608428" width="224"><g transform="matrix(1,0,0,1,0,0)"><svg width="224" viewBox="2.440000057220459 -31.25 555.5700073242188 34.619998931884766" height="13.957551522608428" data-palette-color="#fa4238"><path d="M2.44-15.19L2.44-15.19Q2.44-17.21 2.97-19.19 3.49-21.17 4.55-22.95 5.62-24.73 7.2-26.26 8.79-27.78 10.91-28.89 13.04-30 15.71-30.63 18.38-31.25 21.58-31.25L21.58-31.25Q23.29-31.25 24.98-30.98 26.66-30.71 28.21-30.24 29.76-29.76 31.14-29.08 32.52-28.39 33.59-27.56L33.59-27.56 33.59-30.4 39.14-30.4 39.14-21.61 33.59-21.61Q32.81-22.85 31.54-23.91 30.27-24.98 28.66-25.73 27.05-26.49 25.15-26.92 23.24-27.34 21.19-27.34L21.19-27.34Q17.97-27.34 15.59-26.32 13.21-25.29 11.65-23.6 10.08-21.9 9.31-19.71 8.54-17.53 8.54-15.19L8.54-15.19Q8.54-12.55 9.52-10.34 10.5-8.13 12.24-6.54 13.99-4.96 16.41-4.06 18.82-3.17 21.73-3.17L21.73-3.17Q24.37-3.17 26.51-3.69 28.66-4.2 30.35-5.16 32.03-6.13 33.26-7.52 34.5-8.91 35.33-10.64L35.33-10.64 39.09-8.11Q36.82-3.76 32.46-1.51 28.1 0.73 21.51 0.73L21.51 0.73Q17.36 0.73 13.87-0.49 10.38-1.71 7.84-3.86 5.3-6.01 3.87-8.91 2.44-11.82 2.44-15.19ZM35.06-18.97L35.06-19.9 40.89-19.9 40.89-29.15 41.87-29.15 41.87-18.97 35.06-18.97ZM10.3-15.21L10.3-15.21Q10.3-17.48 11.11-19.38 11.91-21.29 13.37-22.68 14.82-24.07 16.83-24.85 18.85-25.63 21.29-25.63L21.29-25.63Q24.49-25.63 26.92-24.65 29.35-23.66 30.81-21.83L30.81-21.83Q28.69-23.32 26.31-24.01 23.93-24.71 21.19-24.71L21.19-24.71Q18.87-24.71 17.03-23.95 15.19-23.19 13.9-21.91 12.62-20.63 11.95-18.93 11.28-17.24 11.28-15.36L11.28-15.36Q11.28-13.53 11.78-11.95 12.28-10.38 13.37-9.06 14.45-7.74 16.19-6.67 17.92-5.59 20.41-4.79L20.41-4.79Q18.12-5.1 16.25-5.98 14.38-6.86 13.06-8.2 11.74-9.55 11.02-11.32 10.3-13.09 10.3-15.21ZM8.4-1.17L8.4-1.17Q9.57-0.37 11.12 0.31 12.67 0.98 14.39 1.45 16.11 1.93 17.96 2.19 19.8 2.44 21.56 2.44L21.56 2.44Q24.68 2.44 27.5 1.9 30.32 1.37 32.68 0.33 35.03-0.71 36.84-2.23 38.65-3.76 39.75-5.71L39.75-5.71 40.6-5.2Q39.48-3.17 37.62-1.57 35.77 0.02 33.31 1.12 30.86 2.22 27.87 2.8 24.88 3.37 21.51 3.37L21.51 3.37Q19.58 3.37 17.68 3.09 15.77 2.81 14.05 2.23 12.33 1.66 10.88 0.82 9.42-0.02 8.4-1.17ZM46.34-14.67L46.34-14.67Q46.34-18.02 47.64-21.03 48.95-24.05 51.44-26.32 53.93-28.59 57.58-29.92 61.23-31.25 65.92-31.25L65.92-31.25Q70.8-31.25 74.4-30.04 78-28.83 80.36-26.68 82.71-24.54 83.86-21.61 85.01-18.68 85.01-15.23L85.01-15.23Q85.01-11.89 83.73-8.98 82.44-6.08 80-3.92 77.56-1.76 73.98-0.51 70.41 0.73 65.84 0.73L65.84 0.73Q61.91 0.73 58.38-0.24 54.86-1.22 52.17-3.16 49.48-5.1 47.91-7.98 46.34-10.86 46.34-14.67ZM51.73-1.66L51.73-1.66Q52.98-0.76 54.55-0.01 56.13 0.73 57.94 1.28 59.76 1.83 61.77 2.14 63.77 2.44 65.84 2.44L65.84 2.44Q70.38 2.44 74.22 1.21 78.05-0.02 80.83-2.33 83.62-4.64 85.19-7.9 86.77-11.16 86.77-15.23L86.77-15.23Q86.77-17.26 86.22-19.25 85.67-21.24 84.67-23.05 83.66-24.85 82.22-26.42 80.78-27.98 79-29.15L79-29.15Q81.08-28.2 82.7-26.75 84.32-25.29 85.45-23.49 86.57-21.68 87.16-19.58 87.74-17.48 87.74-15.23L87.74-15.23Q87.74-11.01 86.19-7.57 84.64-4.13 81.77-1.7 78.9 0.73 74.86 2.05 70.82 3.37 65.84 3.37L65.84 3.37Q61.23 3.37 57.66 2.14 54.1 0.9 51.73-1.66ZM52.44-14.87L52.44-14.87Q52.44-12.08 53.44-9.91 54.44-7.74 56.21-6.24 57.98-4.74 60.39-3.96 62.79-3.17 65.62-3.17L65.62-3.17Q68.87-3.17 71.35-4.16 73.83-5.15 75.51-6.81 77.19-8.47 78.05-10.66 78.9-12.84 78.9-15.23L78.9-15.23Q78.9-17.99 77.99-20.24 77.07-22.49 75.38-24.06 73.68-25.63 71.25-26.49 68.82-27.34 65.79-27.34L65.79-27.34Q62.86-27.34 60.41-26.45 57.96-25.56 56.19-23.93 54.42-22.29 53.43-19.98 52.44-17.68 52.44-14.87ZM54.2-14.79L54.2-14.79Q54.2-17.04 54.97-19.02 55.73-21 57.22-22.46 58.71-23.93 60.86-24.78 63.01-25.63 65.79-25.63L65.79-25.63Q68.85-25.63 71.19-24.52 73.53-23.41 75.14-21.34L75.14-21.34Q72.85-23.22 70.57-23.96 68.28-24.71 65.79-24.71L65.79-24.71Q63.28-24.71 61.3-23.93 59.32-23.14 57.97-21.79 56.61-20.43 55.89-18.63 55.17-16.82 55.17-14.79L55.17-14.79Q55.17-13.18 55.73-11.71 56.3-10.23 57.35-8.96 58.4-7.69 59.89-6.69 61.37-5.69 63.25-5L63.25-5Q61.08-5.35 59.38-6.24 57.69-7.13 56.54-8.42 55.39-9.72 54.79-11.34 54.2-12.96 54.2-14.79ZM93.6 0L93.6-3.91 100.19-3.91 100.19-26.49 93.6-26.49 93.6-30.4 109.47-30.4 120.92-10.13 131.56-30.4 147.43-30.4 147.43-26.49 140.89-26.49 140.89-3.91 147.43-3.91 147.43 0 129.73 0 129.73-3.91 135.35-3.91 135.35-26.71 122.24-1.73 119.28-1.73 105.73-25.93 105.73-3.91 111.3-3.91 111.3 0 93.6 0ZM142.6-5.37L142.6-24.78 149.19-24.78 149.19-29.17 150.17-29.17 150.17-23.85 143.57-23.85 143.57-5.37 142.6-5.37ZM121.26-13.18L112.23-29.15 113.3-29.15 121.82-14.21 121.26-13.18ZM95.06-23.85L95.06-24.78 99.16-24.78 99.16-23.85 95.06-23.85ZM120.99 0L123.38 0 134.17-20.61 134.17-18.58 124.02 0.93 121.5 0.93 120.99 0ZM107.44-5.37L107.44-20.31 108.42-18.58 108.42-5.37 107.44-5.37ZM131.2 1.71L149.19 1.71 149.19-2.54 150.17-2.54 150.17 2.64 131.2 2.64 131.2 1.71ZM95.06 1.71L113.06 1.71 113.06-2.54 114.03-2.54 114.03 2.64 95.06 2.64 95.06 1.71ZM157.1 0L157.1-3.91 163.47-3.91 163.47-26.49 156.73-26.49 156.73-30.4 175.99-30.4Q178.8-30.4 181.06-30.3 183.32-30.2 185.15-29.86L185.15-29.86Q187.3-29.44 188.81-28.67 190.32-27.91 191.26-26.81 192.2-25.71 192.63-24.32 193.06-22.92 193.06-21.26L193.06-21.26Q193.06-19.9 192.58-18.58 192.11-17.26 191.18-16.1 190.25-14.94 188.85-14.01 187.44-13.09 185.59-12.5L185.59-12.5Q183.61-11.91 181.21-11.76 178.8-11.6 175.99-11.6L175.99-11.6 169.01-11.6 169.01-3.91 177.7-3.91 177.7 0 157.1 0ZM170.72-5.37L170.72-9.89 174.63-9.89Q176.77-9.89 178.34-9.91 179.9-9.94 181.13-10.02 182.37-10.11 183.35-10.27 184.34-10.42 185.34-10.67L185.34-10.67Q187.59-11.21 189.35-12.19 191.11-13.18 192.31-14.56 193.52-15.94 194.16-17.69 194.79-19.43 194.79-21.48L194.79-21.48Q194.79-24 193.83-25.82 192.86-27.64 190.81-29.1L190.81-29.1Q192.06-28.56 193.01-27.72 193.96-26.88 194.6-25.85 195.23-24.83 195.55-23.71 195.87-22.58 195.87-21.48L195.87-21.48Q195.87-19.31 195.16-17.41 194.45-15.5 193.1-13.96 191.74-12.43 189.75-11.32 187.76-10.21 185.17-9.64L185.17-9.64Q184.39-9.47 183.42-9.34 182.44-9.2 181.17-9.12 179.9-9.03 178.29-9 176.68-8.96 174.63-8.96L174.63-8.96 171.7-8.96 171.7-5.37 170.72-5.37ZM169.01-15.5L177.04-15.5Q179.12-15.5 180.66-15.6 182.19-15.7 183.37-16.04L183.37-16.04Q185.47-16.63 186.28-17.9 187.1-19.17 187.1-21.07L187.1-21.07Q187.1-22.53 186.56-23.56 186.03-24.58 184.83-25.24 183.64-25.9 181.72-26.2 179.8-26.49 177.04-26.49L177.04-26.49 169.01-26.49 169.01-15.5ZM170.72-16.97L170.72-24.78 176.87-24.78Q180.61-24.78 182.57-24.37 184.54-23.95 185.15-22.92L185.15-22.92Q184.66-23.14 183.99-23.32 183.32-23.49 182.34-23.61 181.36-23.73 180.03-23.79 178.7-23.85 176.87-23.85L176.87-23.85 171.7-23.85 171.7-16.97 170.72-16.97ZM158.05-23.85L158.05-24.78 161.93-24.78 161.93-23.85 158.05-23.85ZM158.66 1.71L179.46 1.71 179.46-2.54 180.44-2.54 180.44 2.64 158.66 2.64 158.66 1.71ZM196.69 0L196.69-3.91 201.97-3.91 218.03-30.4 223.31-30.4 239.08-3.91 245.42-3.91 245.42 0 226.63 0 226.63-3.91 232.53-3.91 228.99-10.13 211.88-10.13 208.44-3.91 214.08-3.91 214.08 0 196.69 0ZM226.06-29.15L227.19-29.15 241.32-5.37 240.2-5.37 226.06-29.15ZM213.59-13.18L227.24-13.18 220.33-25.32 213.59-13.18ZM216.23-14.65L220.77-22.53 221.35-21.46 217.42-14.65 216.23-14.65ZM211.17-5.37L212.83-8.42 228.77-8.42 229.21-7.5 213.56-7.5 212.42-5.37 211.17-5.37ZM227.68 1.71L247.16 1.71 247.16-2.56 248.18-2.56 248.18 2.64 227.68 2.64 227.68 1.71ZM197.77 1.71L215.83 1.71 215.83-2.56 216.81-2.56 216.81 2.64 197.77 2.64 197.77 1.71ZM252.33 0L252.33-3.91 258.43-3.91 258.43-26.49 251.84-26.49 251.84-30.4 266.13-30.4 287.49-8.25 287.49-26.49 280.9-26.49 280.9-30.4 299.57-30.4 299.57-26.49 292.98-26.49 292.98 0 287.73 0 263.93-25.2 263.93-3.91 270.52-3.91 270.52 0 252.33 0ZM289.2 1.71L294.74 1.71 294.74-24.78 301.33-24.78 301.33-29.17 302.31-29.17 302.31-23.85 295.72-23.85 295.72 2.64 289.2 2.64 289.2 1.71ZM269.54-29.17L270.84-29.17 286.54-13.35 286.54-11.94 269.54-29.17ZM282.36-23.85L282.36-24.78 286.46-24.78 286.46-23.85 282.36-23.85ZM253.31-23.85L253.31-24.78 257.41-23.85 257.41-23.85 253.31-23.85ZM265.69-5.37L265.69-21.88 266.66-20.8 266.66-5.37 265.69-5.37ZM253.8 1.71L272.28 1.71 272.28-2.54 273.25-2.54 273.25 2.64 253.8 2.64 253.8 1.71ZM319.39 0L319.39-3.91 325.99-3.91 325.99-10.03 311.95-26.49 306.21-26.49 306.21-30.4 325.01-30.4 325.01-26.49 318.74-26.49 329.01-14.21 339.1-26.49 332.43-26.49 332.43-30.4 350.79-30.4 350.79-26.49 345.18-26.49 331.48-9.99 331.48-3.91 338.32-3.91 338.32 0 319.39 0ZM333.24-5.37L333.24-9.35 346.1-24.78 352.55-24.78 352.55-29.15 353.53-29.15 353.53-23.85 346.59-23.85 334.26-9.03 334.26-5.37 333.24-5.37ZM329.48-16.55L322.47-24.78 326.77-24.78 326.77-29.15 327.74-29.15 327.74-23.85 324.52-23.85 330.09-17.31 329.48-16.55ZM334.02-23.85L334.02-24.78 336.24-24.78 335.48-23.85 334.02-23.85ZM307.8-23.85L307.8-24.78 311.95-24.78 312.75-23.85 307.8-23.85ZM320.86 1.71L340.07 1.71 340.07-2.54 341.05-2.54 341.05 2.64 320.86 2.64 320.86 1.71ZM357.04 0L357.04-3.91 363.63-3.91 363.63-26.49 357.04-26.49 357.04-30.4 372.91-30.4 384.36-10.13 395-30.4 410.87-30.4 410.87-26.49 404.33-26.49 404.33-3.91 410.87-3.91 410.87 0 393.17 0 393.17-3.91 398.79-3.91 398.79-26.71 385.68-1.73 382.72-1.73 369.17-25.93 369.17-3.91 374.74-3.91 374.74 0 357.04 0ZM406.04-5.37L406.04-24.78 412.63-24.78 412.63-29.17 413.61-29.17 413.61-23.85 407.01-23.85 407.01-5.37 406.04-5.37ZM384.7-13.18L375.67-29.15 376.74-29.15 385.26-14.21 384.7-13.18ZM358.5-23.85L358.5-24.78 362.6-24.78 362.6-23.85 358.5-23.85ZM384.43 0L386.82 0 397.61-20.61 397.61-18.58 387.46 0.93 384.94 0.93 384.43 0ZM370.88-5.37L370.88-20.31 371.86-18.58 371.86-5.37 370.88-5.37ZM394.64 1.71L412.63 1.71 412.63-2.54 413.61-2.54 413.61 2.64 394.64 2.64 394.64 1.71ZM358.5 1.71L376.5 1.71 376.5-2.54 377.47-2.54 377.47 2.64 358.5 2.64 358.5 1.71ZM416.65 0L416.65-3.91 421.93-3.91 437.99-30.4 443.27-30.4 459.04-3.91 465.39-3.91 465.39 0 446.59 0 446.59-3.91 452.49-3.91 448.95-10.13 431.84-10.13 428.4-3.91 434.04-3.91 434.04 0 416.65 0ZM446.02-29.15L447.15-29.15 461.28-5.37 460.16-5.37 446.02-29.15ZM433.55-13.18L447.2-13.18 440.29-25.32 433.55-13.18ZM436.19-14.65L440.73-22.53 441.31-21.46 437.38-14.65 436.19-14.65ZM431.13-5.37L432.79-8.42 448.73-8.42 449.17-7.5 433.52-7.5 432.38-5.37 431.13-5.37ZM447.64 1.71L467.12 1.71 467.12-2.56 468.14-2.56 468.14 2.64 447.64 2.64 447.64 1.71ZM417.73 1.71L435.8 1.71 435.8-2.56 436.77-2.56 436.77 2.64 417.73 2.64 417.73 1.71ZM479.79 0L479.79-3.91 488.09-3.91 488.09-26.49 476.44-26.49 476.44-20.14 470.95-20.14 470.95-30.4 510.72-30.4 510.72-20.14 505.23-20.14 505.23-26.49 493.58-26.49 493.58-3.91 501.88-3.91 501.88 0 479.79 0ZM506.69-17.5L506.69-18.43 512.48-18.43 512.48-29.17 513.45-29.17 513.45-17.5 506.69-17.5ZM495.34-5.37L495.34-24.78 504.2-24.78 504.2-23.85 496.32-23.85 496.32-5.37 495.34-5.37ZM472.41-17.5L472.41-18.43 478.2-18.43 478.2-24.78 487.06-24.78 487.06-23.85 479.18-23.85 479.18-17.5 472.41-17.5ZM481.25 1.71L503.64 1.71 503.64-2.54 504.62-2.54 504.62 2.64 481.25 2.64 481.25 1.71ZM518.97 0L518.97-3.91 525.56-3.91 525.56-26.49 518.97-26.49 518.97-30.4 555.27-30.4 555.27-20.87 549.78-20.87 549.78-26.49 531.3-26.49 531.3-16.87 543.55-16.87 543.55-13.82 531.3-13.82 531.3-3.91 549.78-3.91 549.78-9.52 555.27-9.52 555.27 0 518.97 0ZM551.24-18.24L551.24-19.17 557.03-19.17 557.03-29.17 558.01-29.17 558.01-18.24 551.24-18.24ZM533.06-18.33L533.06-24.78 548.75-24.78 548.75-23.85 534.03-23.85 534.03-18.33 533.06-18.33ZM520.43-23.85L520.43-24.78 524.54-24.78 524.54-23.85 520.43-23.85ZM533.06-5.37L533.06-12.11 545.29-12.11 545.29-15.65 546.26-15.65 546.26-11.18 534.03-11.18 534.03-5.37 533.06-5.37ZM520.43 1.71L557.03 1.71 557.03-8.15 558.01-8.15 558.01 2.64 520.43 2.64 520.43 1.71Z" opacity="1" transform="matrix(1,0,0,1,0,0)" fill="#fa4238" class="wordmark-text-0" data-fill-palette-color="primary" id="text-0"></path></svg></g></svg></g><g transform="matrix(1,0,0,1,27.736470829488354,17.252594455859736)"><svg viewBox="0 0 196.26352917051165 13.957551522608426" height="13.957551522608426" width="196.26352917051165"><g transform="matrix(1,0,0,1,0,0)"><svg width="196.26352917051165" viewBox="1.7999999523162842 -37 674.8900146484375 48" height="13.957551522608426" data-palette-color="#fa4238"><path d="M16.05 0.5L16.05 0.5Q11.4 0.5 8.28-0.88 5.15-2.25 3.53-4.48 1.9-6.7 1.8-9.15L1.8-9.15Q1.8-9.6 2.1-9.9 2.4-10.2 2.85-10.2L2.85-10.2 7.3-10.2Q7.95-10.2 8.28-9.93 8.6-9.65 8.85-9.25L8.85-9.25Q9.15-8.3 10-7.38 10.85-6.45 12.33-5.85 13.8-5.25 16.05-5.25L16.05-5.25Q19.65-5.25 21.43-6.45 23.2-7.65 23.2-9.7L23.2-9.7Q23.2-11.15 22.25-12.03 21.3-12.9 19.33-13.63 17.35-14.35 14.1-15.15L14.1-15.15Q10.35-16.05 7.83-17.32 5.3-18.6 4.03-20.55 2.75-22.5 2.75-25.5L2.75-25.5Q2.75-28.4 4.33-30.65 5.9-32.9 8.83-34.2 11.75-35.5 15.8-35.5L15.8-35.5Q19.05-35.5 21.55-34.63 24.05-33.75 25.7-32.33 27.35-30.9 28.23-29.28 29.1-27.65 29.15-26.1L29.15-26.1Q29.15-25.7 28.88-25.38 28.6-25.05 28.1-25.05L28.1-25.05 23.45-25.05Q23.05-25.05 22.65-25.25 22.25-25.45 22-26L22-26Q21.7-27.55 20.05-28.65 18.4-29.75 15.8-29.75L15.8-29.75Q13.1-29.75 11.45-28.75 9.8-27.75 9.8-25.65L9.8-25.65Q9.8-24.25 10.63-23.33 11.45-22.4 13.28-21.7 15.1-21 18.1-20.2L18.1-20.2Q22.35-19.25 25.05-18 27.75-16.75 29-14.83 30.25-12.9 30.25-9.95L30.25-9.95Q30.25-6.65 28.48-4.33 26.7-2 23.5-0.75 20.3 0.5 16.05 0.5ZM40.75 0L36.6 0Q36.1 0 35.75-0.35 35.4-0.7 35.4-1.2L35.4-1.2 35.4-24.8Q35.4-25.3 35.75-25.65 36.1-26 36.6-26L36.6-26 40.75-26Q41.3-26 41.62-25.65 41.95-25.3 41.95-24.8L41.95-24.8 41.95-1.2Q41.95-0.7 41.62-0.35 41.3 0 40.75 0L40.75 0ZM40.95-30.3L36.4-30.3Q35.9-30.3 35.55-30.65 35.2-31 35.2-31.5L35.2-31.5 35.2-35.1Q35.2-35.6 35.55-35.95 35.9-36.3 36.4-36.3L36.4-36.3 40.95-36.3Q41.5-36.3 41.85-35.95 42.2-35.6 42.2-35.1L42.2-35.1 42.2-31.5Q42.2-31 41.85-30.65 41.5-30.3 40.95-30.3L40.95-30.3ZM54 0L49.8 0Q49.3 0 48.95-0.35 48.6-0.7 48.6-1.2L48.6-1.2 48.6-24.8Q48.6-25.3 48.95-25.65 49.3-26 49.8-26L49.8-26 53.7-26Q54.2-26 54.55-25.65 54.9-25.3 54.9-24.8L54.9-24.8 54.9-23.1Q55.95-24.5 57.72-25.48 59.5-26.45 61.95-26.5L61.95-26.5Q67.65-26.6 69.9-22.05L69.9-22.05Q71.05-24.05 73.22-25.28 75.4-26.5 78.05-26.5L78.05-26.5Q80.65-26.5 82.77-25.3 84.9-24.1 86.12-21.68 87.35-19.25 87.35-15.55L87.35-15.55 87.35-1.2Q87.35-0.7 87-0.35 86.65 0 86.15 0L86.15 0 82.05 0Q81.55 0 81.2-0.35 80.85-0.7 80.85-1.2L80.85-1.2 80.85-15.15Q80.85-17.4 80.2-18.73 79.55-20.05 78.45-20.6 77.35-21.15 76-21.15L76-21.15Q74.9-21.15 73.8-20.6 72.7-20.05 72-18.73 71.3-17.4 71.3-15.15L71.3-15.15 71.3-1.2Q71.3-0.7 70.95-0.35 70.6 0 70.1 0L70.1 0 66 0Q65.5 0 65.15-0.35 64.8-0.7 64.8-1.2L64.8-1.2 64.8-15.15Q64.8-17.4 64.1-18.73 63.4-20.05 62.3-20.6 61.2-21.15 59.95-21.15L59.95-21.15Q58.8-21.15 57.7-20.58 56.6-20 55.9-18.7 55.2-17.4 55.2-15.15L55.2-15.15 55.2-1.2Q55.2-0.7 54.85-0.35 54.5 0 54 0L54 0ZM99.19 9.5L94.94 9.5Q94.44 9.5 94.09 9.15 93.74 8.8 93.74 8.3L93.74 8.3 93.74-24.8Q93.74-25.3 94.09-25.65 94.44-26 94.94-26L94.94-26 98.89-26Q99.44-26 99.77-25.65 100.09-25.3 100.09-24.8L100.09-24.8 100.09-22.8Q101.29-24.4 103.24-25.45 105.19-26.5 108.09-26.5L108.09-26.5Q110.74-26.5 112.69-25.65 114.64-24.8 115.94-23.23 117.24-21.65 117.94-19.5 118.64-17.35 118.74-14.75L118.74-14.75Q118.79-13.9 118.79-13 118.79-12.1 118.74-11.2L118.74-11.2Q118.69-8.7 117.99-6.58 117.29-4.45 115.97-2.88 114.64-1.3 112.69-0.4 110.74 0.5 108.09 0.5L108.09 0.5Q105.39 0.5 103.49-0.48 101.59-1.45 100.39-3.05L100.39-3.05 100.39 8.3Q100.39 8.8 100.07 9.15 99.74 9.5 99.19 9.5L99.19 9.5ZM106.24-4.85L106.24-4.85Q108.39-4.85 109.59-5.78 110.79-6.7 111.34-8.2 111.89-9.7 111.99-11.5L111.99-11.5Q112.04-13 111.99-14.5L111.99-14.5Q111.89-16.3 111.34-17.8 110.79-19.3 109.59-20.23 108.39-21.15 106.24-21.15L106.24-21.15Q104.19-21.15 102.92-20.2 101.64-19.25 101.07-17.78 100.49-16.3 100.39-14.75L100.39-14.75Q100.34-13.85 100.34-12.85 100.34-11.85 100.39-10.9L100.39-10.9Q100.44-9.4 101.09-8.03 101.74-6.65 102.99-5.75 104.24-4.85 106.24-4.85ZM129.79 0L125.64 0Q125.14 0 124.79-0.35 124.44-0.7 124.44-1.2L124.44-1.2 124.44-34.3Q124.44-34.8 124.79-35.15 125.14-35.5 125.64-35.5L125.64-35.5 129.79-35.5Q130.29-35.5 130.64-35.15 130.99-34.8 130.99-34.3L130.99-34.3 130.99-1.2Q130.99-0.7 130.64-0.35 130.29 0 129.79 0L129.79 0ZM142.99 0L138.84 0Q138.34 0 137.99-0.35 137.64-0.7 137.64-1.2L137.64-1.2 137.64-24.8Q137.64-25.3 137.99-25.65 138.34-26 138.84-26L138.84-26 142.99-26Q143.54-26 143.86-25.65 144.19-25.3 144.19-24.8L144.19-24.8 144.19-1.2Q144.19-0.7 143.86-0.35 143.54 0 142.99 0L142.99 0ZM143.19-30.3L138.64-30.3Q138.14-30.3 137.79-30.65 137.44-31 137.44-31.5L137.44-31.5 137.44-35.1Q137.44-35.6 137.79-35.95 138.14-36.3 138.64-36.3L138.64-36.3 143.19-36.3Q143.74-36.3 144.09-35.95 144.44-35.6 144.44-35.1L144.44-35.1 144.44-31.5Q144.44-31 144.09-30.65 143.74-30.3 143.19-30.3L143.19-30.3ZM158.94 0L154.84 0Q154.34 0 153.99-0.35 153.64-0.7 153.64-1.2L153.64-1.2 153.64-20.7 149.59-20.7Q149.09-20.7 148.74-21.05 148.39-21.4 148.39-21.95L148.39-21.95 148.39-24.8Q148.39-25.3 148.74-25.65 149.09-26 149.59-26L149.59-26 153.64-26 153.64-28.05Q153.64-31.05 154.74-33.02 155.84-35 157.99-36 160.14-37 163.44-37L163.44-37 166.84-37Q167.39-37 167.71-36.65 168.04-36.3 168.04-35.8L168.04-35.8 168.04-32.95Q168.04-32.4 167.71-32.05 167.39-31.7 166.84-31.7L166.84-31.7 163.64-31.7Q161.64-31.7 160.89-30.7 160.14-29.7 160.14-27.8L160.14-27.8 160.14-26 166.34-26Q166.89-26 167.21-25.65 167.54-25.3 167.54-24.8L167.54-24.8 167.54-21.95Q167.54-21.4 167.21-21.05 166.89-20.7 166.34-20.7L166.34-20.7 160.14-20.7 160.14-1.2Q160.14-0.7 159.79-0.35 159.44 0 158.94 0L158.94 0ZM180.18 9.5L176.23 9.5Q175.83 9.5 175.53 9.2 175.23 8.9 175.23 8.5L175.23 8.5Q175.23 8.3 175.26 8.13 175.28 7.95 175.43 7.7L175.43 7.7 179.33-1.55 169.73-24.2Q169.53-24.7 169.53-24.9L169.53-24.9Q169.58-25.35 169.88-25.68 170.18-26 170.63-26L170.63-26 174.68-26Q175.28-26 175.58-25.7 175.88-25.4 176.03-25.05L176.03-25.05 182.68-8.7 189.53-25.05Q189.68-25.45 189.98-25.73 190.28-26 190.88-26L190.88-26 194.88-26Q195.28-26 195.61-25.7 195.93-25.4 195.93-25L195.93-25Q195.93-24.7 195.73-24.2L195.73-24.2 181.58 8.55Q181.38 8.95 181.08 9.22 180.78 9.5 180.18 9.5L180.18 9.5ZM225.88 0.5L225.88 0.5Q221.28 0.5 218.05-1.1 214.83-2.7 213.05-5.73 211.28-8.75 211.13-12.95L211.13-12.95Q211.08-15.1 211.08-17.57 211.08-20.05 211.13-22.25L211.13-22.25Q211.28-26.4 213.05-29.35 214.83-32.3 218.1-33.9 221.38-35.5 225.88-35.5L225.88-35.5Q229.53-35.5 232.28-34.52 235.03-33.55 236.85-32.02 238.68-30.5 239.6-28.75 240.53-27 240.58-25.5L240.58-25.5Q240.63-25.05 240.33-24.75 240.03-24.45 239.53-24.45L239.53-24.45 234.38-24.45Q233.88-24.45 233.63-24.65 233.38-24.85 233.18-25.25L233.18-25.25Q232.78-26.3 231.93-27.33 231.08-28.35 229.63-29.05 228.18-29.75 225.88-29.75L225.88-29.75Q222.48-29.75 220.45-27.95 218.43-26.15 218.28-22L218.28-22Q218.13-17.65 218.28-13.2L218.28-13.2Q218.43-8.95 220.5-7.1 222.58-5.25 225.98-5.25L225.98-5.25Q228.23-5.25 230-6.05 231.78-6.85 232.8-8.55 233.83-10.25 233.83-12.9L233.83-12.9 233.83-14.45 227.73-14.45Q227.23-14.45 226.88-14.8 226.53-15.15 226.53-15.7L226.53-15.7 226.53-18.35Q226.53-18.9 226.88-19.25 227.23-19.6 227.73-19.6L227.73-19.6 239.68-19.6Q240.23-19.6 240.55-19.25 240.88-18.9 240.88-18.35L240.88-18.35 240.88-13.1Q240.88-8.9 239.05-5.85 237.23-2.8 233.85-1.15 230.48 0.5 225.88 0.5ZM256.32 0.5L256.32 0.5Q253.28 0.5 251.05-0.88 248.82-2.25 247.63-4.78 246.43-7.3 246.43-10.75L246.43-10.75 246.43-24.8Q246.43-25.3 246.78-25.65 247.13-26 247.63-26L247.63-26 252.03-26Q252.57-26 252.9-25.65 253.22-25.3 253.22-24.8L253.22-24.8 253.22-11.05Q253.22-4.85 258.68-4.85L258.68-4.85Q261.27-4.85 262.8-6.5 264.32-8.15 264.32-11.05L264.32-11.05 264.32-24.8Q264.32-25.3 264.68-25.65 265.02-26 265.52-26L265.52-26 269.93-26Q270.43-26 270.77-25.65 271.13-25.3 271.13-24.8L271.13-24.8 271.13-1.2Q271.13-0.7 270.77-0.35 270.43 0 269.93 0L269.93 0 265.88 0Q265.32 0 265-0.35 264.68-0.7 264.68-1.2L264.68-1.2 264.68-3.25Q263.32-1.5 261.32-0.5 259.32 0.5 256.32 0.5ZM288.92 0.5L288.92 0.5Q283.37 0.5 280.12-2.7 276.87-5.9 276.62-11.8L276.62-11.8Q276.57-12.3 276.57-13.08 276.57-13.85 276.62-14.3L276.62-14.3Q276.82-18.1 278.35-20.83 279.87-23.55 282.57-25.03 285.27-26.5 288.92-26.5L288.92-26.5Q292.97-26.5 295.72-24.83 298.47-23.15 299.87-20.18 301.27-17.2 301.27-13.3L301.27-13.3 301.27-12.25Q301.27-11.75 300.92-11.4 300.57-11.05 300.02-11.05L300.02-11.05 283.42-11.05Q283.42-11.05 283.42-10.9 283.42-10.75 283.42-10.65L283.42-10.65Q283.47-8.9 284.1-7.43 284.72-5.95 285.95-5.05 287.17-4.15 288.87-4.15L288.87-4.15Q290.27-4.15 291.22-4.58 292.17-5 292.77-5.55 293.37-6.1 293.62-6.45L293.62-6.45Q294.07-7.05 294.35-7.18 294.62-7.3 295.17-7.3L295.17-7.3 299.47-7.3Q299.97-7.3 300.3-7 300.62-6.7 300.57-6.25L300.57-6.25Q300.52-5.45 299.75-4.3 298.97-3.15 297.52-2.05 296.07-0.95 293.9-0.23 291.72 0.5 288.92 0.5ZM283.42-15.4L283.42-15.25 294.47-15.25 294.47-15.4Q294.47-17.35 293.82-18.82 293.17-20.3 291.92-21.13 290.67-21.95 288.92-21.95L288.92-21.95Q287.17-21.95 285.92-21.13 284.67-20.3 284.05-18.82 283.42-17.35 283.42-15.4L283.42-15.4ZM316.42 0.5L316.42 0.5Q313.42 0.5 311.3-0.2 309.17-0.9 307.82-1.95 306.47-3 305.82-4.05 305.17-5.1 305.12-5.8L305.12-5.8Q305.07-6.35 305.45-6.68 305.82-7 306.27-7L306.27-7 310.22-7Q310.42-7 310.57-6.95 310.72-6.9 310.97-6.65L310.97-6.65Q311.62-6.1 312.35-5.5 313.07-4.9 314.07-4.48 315.07-4.05 316.57-4.05L316.57-4.05Q318.52-4.05 319.85-4.83 321.17-5.6 321.17-7.05L321.17-7.05Q321.17-8.1 320.6-8.75 320.02-9.4 318.47-9.93 316.92-10.45 314.07-11.05L314.07-11.05Q311.27-11.7 309.42-12.7 307.57-13.7 306.67-15.2 305.77-16.7 305.77-18.7L305.77-18.7Q305.77-20.65 306.95-22.43 308.12-24.2 310.45-25.35 312.77-26.5 316.22-26.5L316.22-26.5Q318.92-26.5 320.92-25.83 322.92-25.15 324.25-24.15 325.57-23.15 326.27-22.13 326.97-21.1 327.02-20.35L327.02-20.35Q327.07-19.8 326.72-19.48 326.37-19.15 325.92-19.15L325.92-19.15 322.22-19.15Q321.97-19.15 321.77-19.25 321.57-19.35 321.37-19.5L321.37-19.5Q320.82-20 320.17-20.58 319.52-21.15 318.6-21.55 317.67-21.95 316.17-21.95L316.17-21.95Q314.27-21.95 313.27-21.13 312.27-20.3 312.27-19.05L312.27-19.05Q312.27-18.2 312.75-17.57 313.22-16.95 314.67-16.4 316.12-15.85 319.07-15.25L319.07-15.25Q322.42-14.65 324.4-13.48 326.37-12.3 327.2-10.78 328.02-9.25 328.02-7.4L328.02-7.4Q328.02-5.15 326.7-3.35 325.37-1.55 322.8-0.53 320.22 0.5 316.42 0.5ZM348.97 0L344.92 0Q341.92 0 339.87-1.05 337.82-2.1 336.82-4.17 335.82-6.25 335.82-9.35L335.82-9.35 335.82-20.7 331.87-20.7Q331.37-20.7 331.02-21.05 330.67-21.4 330.67-21.95L330.67-21.95 330.67-24.8Q330.67-25.3 331.02-25.65 331.37-26 331.87-26L331.87-26 335.82-26 335.82-34.3Q335.82-34.8 336.14-35.15 336.47-35.5 337.02-35.5L337.02-35.5 341.07-35.5Q341.57-35.5 341.92-35.15 342.27-34.8 342.27-34.3L342.27-34.3 342.27-26 348.52-26Q349.02-26 349.37-25.65 349.72-25.3 349.72-24.8L349.72-24.8 349.72-21.95Q349.72-21.4 349.37-21.05 349.02-20.7 348.52-20.7L348.52-20.7 342.27-20.7 342.27-9.85Q342.27-7.8 342.99-6.65 343.72-5.5 345.52-5.5L345.52-5.5 348.97-5.5Q349.47-5.5 349.82-5.15 350.17-4.8 350.17-4.3L350.17-4.3 350.17-1.2Q350.17-0.7 349.82-0.35 349.47 0 348.97 0L348.97 0ZM372.11 0L367.91 0Q367.36 0 367.01-0.35 366.66-0.7 366.66-1.2L366.66-1.2 366.66-33.75Q366.66-34.3 367.01-34.65 367.36-35 367.91-35L367.91-35 371.86-35Q372.56-35 372.91-34.63 373.26-34.25 373.36-34.05L373.36-34.05 383.01-16.05 392.76-34.05Q392.86-34.25 393.21-34.63 393.56-35 394.26-35L394.26-35 398.16-35Q398.71-35 399.06-34.65 399.41-34.3 399.41-33.75L399.41-33.75 399.41-1.2Q399.41-0.7 399.06-0.35 398.71 0 398.16 0L398.16 0 393.96 0Q393.41 0 393.09-0.35 392.76-0.7 392.76-1.2L392.76-1.2 392.76-22.85 385.76-9.5Q385.51-9.05 385.11-8.72 384.71-8.4 384.06-8.4L384.06-8.4 382.01-8.4Q381.31-8.4 380.94-8.72 380.56-9.05 380.31-9.5L380.31-9.5 373.31-22.85 373.31-1.2Q373.31-0.7 372.96-0.35 372.61 0 372.11 0L372.11 0ZM414.16 0.5L414.16 0.5Q411.56 0.5 409.46-0.53 407.36-1.55 406.14-3.28 404.91-5 404.91-7.15L404.91-7.15Q404.91-10.65 407.76-12.73 410.61-14.8 415.21-15.5L415.21-15.5 422.06-16.5 422.06-17.55Q422.06-19.65 421.01-20.8 419.96-21.95 417.41-21.95L417.41-21.95Q415.61-21.95 414.49-21.23 413.36-20.5 412.81-19.3L412.81-19.3Q412.41-18.65 411.66-18.65L411.66-18.65 407.71-18.65Q407.16-18.65 406.89-18.95 406.61-19.25 406.61-19.75L406.61-19.75Q406.66-20.55 407.29-21.7 407.91-22.85 409.19-23.93 410.46-25 412.51-25.75 414.56-26.5 417.46-26.5L417.46-26.5Q420.61-26.5 422.79-25.73 424.96-24.95 426.26-23.65 427.56-22.35 428.16-20.6 428.76-18.85 428.76-16.9L428.76-16.9 428.76-1.2Q428.76-0.7 428.41-0.35 428.06 0 427.56 0L427.56 0 423.51 0Q422.96 0 422.64-0.35 422.31-0.7 422.31-1.2L422.31-1.2 422.31-3.15Q421.66-2.25 420.56-1.4 419.46-0.55 417.89-0.03 416.31 0.5 414.16 0.5ZM415.86-4.25L415.86-4.25Q417.61-4.25 419.04-5 420.46-5.75 421.29-7.33 422.11-8.9 422.11-11.3L422.11-11.3 422.11-12.35 417.11-11.55Q414.16-11.1 412.71-10.1 411.26-9.1 411.26-7.65L411.26-7.65Q411.26-6.55 411.94-5.78 412.61-5 413.66-4.63 414.71-4.25 415.86-4.25ZM440.76 0L436.36 0Q435.86 0 435.51-0.35 435.16-0.7 435.16-1.2L435.16-1.2 435.16-24.8Q435.16-25.3 435.51-25.65 435.86-26 436.36-26L436.36-26 440.46-26Q440.96-26 441.31-25.65 441.66-25.3 441.66-24.8L441.66-24.8 441.66-22.75Q442.96-24.35 444.98-25.43 447.01-26.5 450.01-26.5L450.01-26.5Q453.06-26.5 455.31-25.13 457.56-23.75 458.78-21.25 460.01-18.75 460.01-15.25L460.01-15.25 460.01-1.2Q460.01-0.7 459.66-0.35 459.31 0 458.81 0L458.81 0 454.41 0Q453.91 0 453.56-0.35 453.21-0.7 453.21-1.2L453.21-1.2 453.21-14.95Q453.21-17.85 451.78-19.5 450.36-21.15 447.66-21.15L447.66-21.15Q445.06-21.15 443.51-19.5 441.96-17.85 441.96-14.95L441.96-14.95 441.96-1.2Q441.96-0.7 441.61-0.35 441.26 0 440.76 0L440.76 0ZM473.91 0.5L473.91 0.5Q471.31 0.5 469.21-0.53 467.11-1.55 465.88-3.28 464.66-5 464.66-7.15L464.66-7.15Q464.66-10.65 467.51-12.73 470.36-14.8 474.96-15.5L474.96-15.5 481.81-16.5 481.81-17.55Q481.81-19.65 480.76-20.8 479.71-21.95 477.16-21.95L477.16-21.95Q475.36-21.95 474.23-21.23 473.11-20.5 472.56-19.3L472.56-19.3Q472.16-18.65 471.41-18.65L471.41-18.65 467.46-18.65Q466.91-18.65 466.63-18.95 466.36-19.25 466.36-19.75L466.36-19.75Q466.41-20.55 467.03-21.7 467.66-22.85 468.93-23.93 470.21-25 472.26-25.75 474.31-26.5 477.21-26.5L477.21-26.5Q480.36-26.5 482.53-25.73 484.71-24.95 486.01-23.65 487.31-22.35 487.91-20.6 488.51-18.85 488.51-16.9L488.51-16.9 488.51-1.2Q488.51-0.7 488.16-0.35 487.81 0 487.31 0L487.31 0 483.26 0Q482.71 0 482.38-0.35 482.06-0.7 482.06-1.2L482.06-1.2 482.06-3.15Q481.41-2.25 480.31-1.4 479.21-0.55 477.63-0.03 476.06 0.5 473.91 0.5ZM475.61-4.25L475.61-4.25Q477.36-4.25 478.78-5 480.21-5.75 481.03-7.33 481.86-8.9 481.86-11.3L481.86-11.3 481.86-12.35 476.86-11.55Q473.91-11.1 472.46-10.1 471.01-9.1 471.01-7.65L471.01-7.65Q471.01-6.55 471.68-5.78 472.36-5 473.41-4.63 474.46-4.25 475.61-4.25ZM506.65 11L506.65 11Q503 11 500.65 10.05 498.3 9.1 496.95 7.75 495.6 6.4 495.03 5.08 494.45 3.75 494.4 3L494.4 3Q494.35 2.5 494.73 2.13 495.1 1.75 495.6 1.75L495.6 1.75 499.95 1.75Q500.45 1.75 500.75 1.98 501.05 2.2 501.25 2.8L501.25 2.8Q501.55 3.45 502.05 4.2 502.55 4.95 503.58 5.48 504.6 6 506.4 6L506.4 6Q508.3 6 509.6 5.45 510.9 4.9 511.58 3.6 512.25 2.3 512.25 0L512.25 0 512.25-3.4Q511.05-1.95 509.18-1.05 507.3-0.15 504.55-0.15L504.55-0.15Q501.9-0.15 499.93-1.03 497.95-1.9 496.65-3.48 495.35-5.05 494.68-7.2 494-9.35 493.9-11.95L493.9-11.95Q493.85-13.3 493.9-14.65L493.9-14.65Q494-17.15 494.68-19.3 495.35-21.45 496.65-23.08 497.95-24.7 499.93-25.6 501.9-26.5 504.55-26.5L504.55-26.5Q507.4-26.5 509.35-25.43 511.3-24.35 512.55-22.75L512.55-22.75 512.55-24.75Q512.55-25.3 512.9-25.65 513.25-26 513.75-26L513.75-26 517.8-26Q518.3-26 518.65-25.65 519-25.3 519-24.75L519-24.75 519.05-0.65Q519.05 2.95 517.7 5.55 516.35 8.15 513.63 9.58 510.9 11 506.65 11ZM506.4-5.45L506.4-5.45Q508.45-5.45 509.7-6.35 510.95-7.25 511.55-8.7 512.15-10.15 512.25-11.65L512.25-11.65Q512.3-12.3 512.3-13.3 512.3-14.3 512.25-14.9L512.25-14.9Q512.15-16.45 511.55-17.88 510.95-19.3 509.7-20.23 508.45-21.15 506.4-21.15L506.4-21.15Q504.35-21.15 503.1-20.23 501.85-19.3 501.33-17.8 500.8-16.3 500.7-14.5L500.7-14.5Q500.6-13.3 500.7-12.05L500.7-12.05Q500.8-10.3 501.33-8.78 501.85-7.25 503.1-6.35 504.35-5.45 506.4-5.45ZM536.9 0.5L536.9 0.5Q531.35 0.5 528.1-2.7 524.85-5.9 524.6-11.8L524.6-11.8Q524.55-12.3 524.55-13.08 524.55-13.85 524.6-14.3L524.6-14.3Q524.8-18.1 526.32-20.83 527.85-23.55 530.55-25.03 533.25-26.5 536.9-26.5L536.9-26.5Q540.95-26.5 543.7-24.83 546.45-23.15 547.85-20.18 549.25-17.2 549.25-13.3L549.25-13.3 549.25-12.25Q549.25-11.75 548.9-11.4 548.55-11.05 548-11.05L548-11.05 531.4-11.05Q531.4-11.05 531.4-10.9 531.4-10.75 531.4-10.65L531.4-10.65Q531.45-8.9 532.07-7.43 532.7-5.95 533.92-5.05 535.15-4.15 536.85-4.15L536.85-4.15Q538.25-4.15 539.2-4.58 540.15-5 540.75-5.55 541.35-6.1 541.6-6.45L541.6-6.45Q542.05-7.05 542.32-7.18 542.6-7.3 543.15-7.3L543.15-7.3 547.45-7.3Q547.95-7.3 548.27-7 548.6-6.7 548.55-6.25L548.55-6.25Q548.5-5.45 547.73-4.3 546.95-3.15 545.5-2.05 544.05-0.95 541.88-0.23 539.7 0.5 536.9 0.5ZM531.4-15.4L531.4-15.25 542.45-15.25 542.45-15.4Q542.45-17.35 541.8-18.82 541.15-20.3 539.9-21.13 538.65-21.95 536.9-21.95L536.9-21.95Q535.15-21.95 533.9-21.13 532.65-20.3 532.02-18.82 531.4-17.35 531.4-15.4L531.4-15.4ZM559.95 0L555.75 0Q555.25 0 554.9-0.35 554.55-0.7 554.55-1.2L554.55-1.2 554.55-24.8Q554.55-25.3 554.9-25.65 555.25-26 555.75-26L555.75-26 559.65-26Q560.15-26 560.5-25.65 560.85-25.3 560.85-24.8L560.85-24.8 560.85-23.1Q561.9-24.5 563.67-25.48 565.45-26.45 567.9-26.5L567.9-26.5Q573.6-26.6 575.85-22.05L575.85-22.05Q577-24.05 579.17-25.28 581.35-26.5 584-26.5L584-26.5Q586.6-26.5 588.72-25.3 590.85-24.1 592.07-21.68 593.3-19.25 593.3-15.55L593.3-15.55 593.3-1.2Q593.3-0.7 592.95-0.35 592.6 0 592.1 0L592.1 0 588 0Q587.5 0 587.15-0.35 586.8-0.7 586.8-1.2L586.8-1.2 586.8-15.15Q586.8-17.4 586.15-18.73 585.5-20.05 584.4-20.6 583.3-21.15 581.95-21.15L581.95-21.15Q580.85-21.15 579.75-20.6 578.65-20.05 577.95-18.73 577.25-17.4 577.25-15.15L577.25-15.15 577.25-1.2Q577.25-0.7 576.9-0.35 576.55 0 576.05 0L576.05 0 571.95 0Q571.45 0 571.1-0.35 570.75-0.7 570.75-1.2L570.75-1.2 570.75-15.15Q570.75-17.4 570.05-18.73 569.35-20.05 568.25-20.6 567.15-21.15 565.9-21.15L565.9-21.15Q564.75-21.15 563.65-20.58 562.55-20 561.85-18.7 561.15-17.4 561.15-15.15L561.15-15.15 561.15-1.2Q561.15-0.7 560.8-0.35 560.45 0 559.95 0L559.95 0ZM610.84 0.5L610.84 0.5Q605.29 0.5 602.04-2.7 598.79-5.9 598.54-11.8L598.54-11.8Q598.49-12.3 598.49-13.08 598.49-13.85 598.54-14.3L598.54-14.3Q598.74-18.1 600.27-20.83 601.79-23.55 604.49-25.03 607.19-26.5 610.84-26.5L610.84-26.5Q614.89-26.5 617.64-24.83 620.39-23.15 621.79-20.18 623.19-17.2 623.19-13.3L623.19-13.3 623.19-12.25Q623.19-11.75 622.84-11.4 622.49-11.05 621.94-11.05L621.94-11.05 605.34-11.05Q605.34-11.05 605.34-10.9 605.34-10.75 605.34-10.65L605.34-10.65Q605.39-8.9 606.02-7.43 606.64-5.95 607.87-5.05 609.09-4.15 610.79-4.15L610.79-4.15Q612.19-4.15 613.14-4.58 614.09-5 614.69-5.55 615.29-6.1 615.54-6.45L615.54-6.45Q615.99-7.05 616.27-7.18 616.54-7.3 617.09-7.3L617.09-7.3 621.39-7.3Q621.89-7.3 622.22-7 622.54-6.7 622.49-6.25L622.49-6.25Q622.44-5.45 621.67-4.3 620.89-3.15 619.44-2.05 617.99-0.95 615.82-0.23 613.64 0.5 610.84 0.5ZM605.34-15.4L605.34-15.25 616.39-15.25 616.39-15.4Q616.39-17.35 615.74-18.82 615.09-20.3 613.84-21.13 612.59-21.95 610.84-21.95L610.84-21.95Q609.09-21.95 607.84-21.13 606.59-20.3 605.97-18.82 605.34-17.35 605.34-15.4L605.34-15.4ZM634.09 0L629.69 0Q629.19 0 628.84-0.35 628.49-0.7 628.49-1.2L628.49-1.2 628.49-24.8Q628.49-25.3 628.84-25.65 629.19-26 629.69-26L629.69-26 633.79-26Q634.29-26 634.64-25.65 634.99-25.3 634.99-24.8L634.99-24.8 634.99-22.75Q636.29-24.35 638.32-25.43 640.34-26.5 643.34-26.5L643.34-26.5Q646.39-26.5 648.64-25.13 650.89-23.75 652.12-21.25 653.34-18.75 653.34-15.25L653.34-15.25 653.34-1.2Q653.34-0.7 652.99-0.35 652.64 0 652.14 0L652.14 0 647.74 0Q647.24 0 646.89-0.35 646.54-0.7 646.54-1.2L646.54-1.2 646.54-14.95Q646.54-17.85 645.12-19.5 643.69-21.15 640.99-21.15L640.99-21.15Q638.39-21.15 636.84-19.5 635.29-17.85 635.29-14.95L635.29-14.95 635.29-1.2Q635.29-0.7 634.94-0.35 634.59 0 634.09 0L634.09 0ZM675.49 0L671.44 0Q668.44 0 666.39-1.05 664.34-2.1 663.34-4.17 662.34-6.25 662.34-9.35L662.34-9.35 662.34-20.7 658.39-20.7Q657.89-20.7 657.54-21.05 657.19-21.4 657.19-21.95L657.19-21.95 657.19-24.8Q657.19-25.3 657.54-25.65 657.89-26 658.39-26L658.39-26 662.34-26 662.34-34.3Q662.34-34.8 662.66-35.15 662.99-35.5 663.54-35.5L663.54-35.5 667.59-35.5Q668.09-35.5 668.44-35.15 668.79-34.8 668.79-34.3L668.79-34.3 668.79-26 675.04-26Q675.54-26 675.89-25.65 676.24-25.3 676.24-24.8L676.24-24.8 676.24-21.95Q676.24-21.4 675.89-21.05 675.54-20.7 675.04-20.7L675.04-20.7 668.79-20.7 668.79-9.85Q668.79-7.8 669.51-6.65 670.24-5.5 672.04-5.5L672.04-5.5 675.49-5.5Q675.99-5.5 676.34-5.15 676.69-4.8 676.69-4.3L676.69-4.3 676.69-1.2Q676.69-0.7 676.34-0.35 675.99 0 675.49 0L675.49 0Z" opacity="1" transform="matrix(1,0,0,1,0,0)" fill="#fa4238" class="slogan-text-1" data-fill-palette-color="secondary" id="text-1"></path></svg></g></svg></g></svg></g></svg></g><g transform="matrix(1,0,0,1,227.2950429332513,0)"><svg viewBox="0 0 91.4670338726226 43.132421742243004" height="43.132421742243004" width="91.4670338726226"><g><svg xmlns="http://www.w3.org/2000/svg" xmlns:xlink="http://www.w3.org/1999/xlink" version="1.1" x="0" y="0" viewBox="1.1829986572265625 26.979000091552734 97.63500213623047 46.0410041809082" enable-background="new 0 0 100 100" xml:space="preserve" height="43.132421742243004" width="91.4670338726226" class="icon-icon-0" data-fill-palette-color="accent" id="icon-0"><path d="M44.363 32.618c0-3.113 2.523-5.639 5.639-5.639 3.113 0 5.64 2.525 5.64 5.639 0 1.822-0.868 3.439-2.209 4.471-0.488 0.375-1.038 0.674-1.637 0.873-0.564 0.189-1.167 0.297-1.794 0.297-0.63 0-1.232-0.107-1.797-0.297-0.597-0.201-1.145-0.498-1.634-0.873C45.229 36.058 44.363 34.44 44.363 32.618zM62.498 54.358V43.997c0-1.383-0.801-2.568-1.952-3.15-0.481-0.244-1.017-0.395-1.592-0.395h-4.104-0.602l-0.007 0.008h-8.483l-0.006-0.008h-0.599-4.105c-0.576 0-1.111 0.15-1.592 0.395-1.154 0.582-1.954 1.768-1.954 3.15v10.361c4.073-0.549 8.255-0.83 12.497-0.83S58.425 53.81 62.498 54.358zM75.357 41.442c0.488 0.375 1.037 0.674 1.633 0.873 0.566 0.191 1.168 0.299 1.798 0.299 0.627 0 1.229-0.107 1.794-0.297 0.599-0.201 1.147-0.5 1.637-0.875 1.34-1.031 2.209-2.648 2.209-4.471 0-3.115-2.526-5.639-5.64-5.639-3.116 0-5.639 2.523-5.639 5.639C73.149 38.794 74.016 40.411 75.357 41.442zM88.381 48.351c0-1.383-0.615-2.566-1.498-3.148-0.37-0.246-0.782-0.395-1.223-0.395h-3.151-0.46l-0.006 0.006H75.53l-0.006-0.006h-0.459-3.152c-0.441 0-0.853 0.148-1.221 0.393-0.888 0.584-1.5 1.768-1.5 3.15v7.18c6.89 1.477 13.368 3.75 19.188 6.752V48.351zM17.785 41.442c0.488 0.375 1.037 0.674 1.633 0.873 0.565 0.191 1.168 0.299 1.799 0.299 0.626 0 1.229-0.107 1.793-0.297 0.598-0.201 1.147-0.5 1.637-0.875 1.34-1.031 2.209-2.648 2.209-4.471 0-3.115-2.525-5.639-5.639-5.639-3.116 0-5.64 2.523-5.64 5.639C15.577 38.794 16.443 40.411 17.785 41.442zM30.809 48.351c0-1.383-0.614-2.566-1.498-3.148-0.369-0.246-0.781-0.395-1.223-0.395h-3.15-0.461l-0.006 0.006h-6.512l-0.006-0.006h-0.459-3.152c-0.442 0-0.854 0.148-1.223 0.393-0.886 0.584-1.5 1.768-1.5 3.15v13.93c5.821-3 12.299-5.273 19.189-6.75V48.351zM88.027 65.526c-5.562-2.99-11.925-5.34-18.835-6.881-2.18-0.486-4.415-0.891-6.694-1.209C58.464 56.87 54.284 56.571 50 56.571c-4.283 0-8.463 0.299-12.497 0.865-2.281 0.318-4.515 0.723-6.694 1.209-6.911 1.541-13.271 3.891-18.834 6.881-4.053 2.182-7.684 4.697-10.792 7.494h14.288 10.889 16.16H56.7h16.343 10.889 14.886C95.709 70.224 92.078 67.708 88.027 65.526z" fill="#fa4238" data-fill-palette-color="accent"></path></svg></g></svg></g></svg></g></svg></g></svg></g><defs></defs></svg><rect width="320" height="360" fill="none" stroke="none" visibility="hidden"></rect></g></svg>