<svg xmlns="http://www.w3.org/2000/svg" viewBox="0 0 395.52 63.24837895667964" height="63.24837895667964" width="395.52">
      <g>
        <svg viewBox="0 0 477.7496807210758 76.39788848270456" height="63.24837895667964" width="395.52">
          <g transform="matrix(1,0,0,1,82.22968072107578,10.558608321415758)">
            <svg viewBox="0 0 395.52 55.280671839873044" height="55.280671839873044" width="395.52">
              <g id="textblocktransform">
                <svg viewBox="0 0 395.52 55.280671839873044" height="55.280671839873044" width="395.52" id="textblock">
                  <g>
                    <svg viewBox="0 0 395.52 24.722179317640833" height="24.722179317640833" width="395.52">
                      <g transform="matrix(1,0,0,1,0,0)">
                        <svg width="395.52" viewBox="3.5199999809265137 -31.25 553.8299560546875 34.619998931884766" height="24.722179317640833" data-palette-color="url(#0b369e0e-55f5-47e7-8af5-ca112d9d9199)"/>
                      </g>
                    </svg>
                  </g>
                  <g transform="matrix(1,0,0,1,0,30.55849252223221)">
                    <svg viewBox="0 0 289.7975385149431 24.722179317640833" height="24.722179317640833" width="289.7975385149431">
                      <g transform="matrix(1,0,0,1,0,0)">
                        <svg width="289.7975385149431" viewBox="4.489999771118164 -37.9900016784668 586.0599975585938 50" height="24.722179317640833" data-palette-color="#fa4238">
                          <path d="M34.11-18.19L34.11-18.19Q34.11-9.38 29.09-4.69 24.07 0 14.6 0L14.6 0 4.49 0 4.49-35.69 15.7-35.69Q24.44-35.69 29.27-31.08 34.11-26.46 34.11-18.19ZM26.25-17.99L26.25-17.99Q26.25-29.49 16.09-29.49L16.09-29.49 12.06-29.49 12.06-6.25 15.31-6.25Q26.25-6.25 26.25-17.99ZM57.66-35.69L57.66 0 50.12 0 50.12-20.65 50.19-24.05 50.31-27.76Q48.44-25.88 47.7-25.29L47.7-25.29 43.6-22 39.96-26.54 51.46-35.69 57.66-35.69ZM100.04 0L91.89 0 89.3-8.5 76.29-8.5 73.7 0 65.55 0 78.14-35.84 87.4-35.84 100.04 0ZM78.19-14.84L87.5-14.84Q83.91-26.39 83.45-27.91 83-29.42 82.81-30.3L82.81-30.3Q82-27.17 78.19-14.84L78.19-14.84ZM126.99-6.35L126.99 0 102.04 0 102.04-5.25 111-14.31Q114.98-18.38 116.2-19.96 117.42-21.53 117.96-22.88 118.5-24.22 118.5-25.66L118.5-25.66Q118.5-27.81 117.31-28.86 116.13-29.91 114.15-29.91L114.15-29.91Q112.08-29.91 110.12-28.96 108.17-28 106.05-26.25L106.05-26.25 101.95-31.1Q104.58-33.35 106.32-34.28 108.05-35.21 110.1-35.71 112.15-36.21 114.69-36.21L114.69-36.21Q118.03-36.21 120.6-34.99 123.16-33.76 124.58-31.57 125.99-29.37 125.99-26.54L125.99-26.54Q125.99-24.07 125.13-21.91 124.26-19.75 122.44-17.48 120.62-15.21 116.03-11.01L116.03-11.01 111.44-6.69 111.44-6.35 126.99-6.35ZM155.53-6.35L155.53 0 130.58 0 130.58-5.25 139.54-14.31Q143.52-18.38 144.74-19.96 145.96-21.53 146.5-22.88 147.04-24.22 147.04-25.66L147.04-25.66Q147.04-27.81 145.85-28.86 144.67-29.91 142.69-29.91L142.69-29.91Q140.62-29.91 138.66-28.96 136.71-28 134.58-26.25L134.58-26.25 130.48-31.1Q133.12-33.35 134.85-34.28 136.59-35.21 138.64-35.71 140.69-36.21 143.23-36.21L143.23-36.21Q146.57-36.21 149.14-34.99 151.7-33.76 153.12-31.57 154.53-29.37 154.53-26.54L154.53-26.54Q154.53-24.07 153.66-21.91 152.8-19.75 150.98-17.48 149.16-15.21 144.57-11.01L144.57-11.01 139.98-6.69 139.98-6.35 155.53-6.35ZM183.87-17.85L183.87-17.85Q183.87-8.5 180.81-4 177.75 0.49 171.37 0.49L171.37 0.49Q165.2 0.49 162.06-4.15 158.92-8.79 158.92-17.85L158.92-17.85Q158.92-27.29 161.97-31.77 165.03-36.25 171.37-36.25L171.37-36.25Q177.55-36.25 180.71-31.57 183.87-26.88 183.87-17.85ZM166.42-17.85L166.42-17.85Q166.42-11.28 167.55-8.44 168.69-5.59 171.37-5.59L171.37-5.59Q174.01-5.59 175.18-8.47 176.35-11.35 176.35-17.85L176.35-17.85Q176.35-24.41 175.17-27.28 173.99-30.15 171.37-30.15L171.37-30.15Q168.71-30.15 167.57-27.28 166.42-24.41 166.42-17.85ZM213.41-13.26L213.41-7.4 209.12-7.4 209.12 0 201.74 0 201.74-7.4 186.51-7.4 186.51-12.65 202.16-35.69 209.12-35.69 209.12-13.26 213.41-13.26ZM193.15-13.26L201.74-13.26 201.74-19.31Q201.74-20.83 201.86-23.71 201.99-26.59 202.06-27.05L202.06-27.05 201.86-27.05Q200.96-25.05 199.69-23.14L199.69-23.14 193.15-13.26ZM240.95-17.85L240.95-17.85Q240.95-8.5 237.89-4 234.82 0.49 228.45 0.49L228.45 0.49Q222.27 0.49 219.14-4.15 216-8.79 216-17.85L216-17.85Q216-27.29 219.05-31.77 222.1-36.25 228.45-36.25L228.45-36.25Q234.63-36.25 237.79-31.57 240.95-26.88 240.95-17.85ZM223.49-17.85L223.49-17.85Q223.49-11.28 224.63-8.44 225.76-5.59 228.45-5.59L228.45-5.59Q231.09-5.59 232.26-8.47 233.43-11.35 233.43-17.85L233.43-17.85Q233.43-24.41 232.25-27.28 231.06-30.15 228.45-30.15L228.45-30.15Q225.79-30.15 224.64-27.28 223.49-24.41 223.49-17.85ZM269.49-17.85L269.49-17.85Q269.49-8.5 266.42-4 263.36 0.49 256.99 0.49L256.99 0.49Q250.81 0.49 247.67-4.15 244.54-8.79 244.54-17.85L244.54-17.85Q244.54-27.29 247.59-31.77 250.64-36.25 256.99-36.25L256.99-36.25Q263.16-36.25 266.33-31.57 269.49-26.88 269.49-17.85ZM252.03-17.85L252.03-17.85Q252.03-11.28 253.17-8.44 254.3-5.59 256.99-5.59L256.99-5.59Q259.62-5.59 260.8-8.47 261.97-11.35 261.97-17.85L261.97-17.85Q261.97-24.41 260.78-27.28 259.6-30.15 256.99-30.15L256.99-30.15Q254.33-30.15 253.18-27.28 252.03-24.41 252.03-17.85ZM298.85-10.35L285.74-10.35 285.74-16.46 298.85-16.46 298.85-10.35ZM338.37-6.25L338.37 0 317.82 0 317.82-35.69 338.37-35.69 338.37-29.49 325.39-29.49 325.39-21.66 337.47-21.66 337.47-15.45 325.39-15.45 325.39-6.25 338.37-6.25ZM359.46-27.29L368.99-27.29 368.99-23.51 364.71-22.41Q365.89-20.58 365.89-18.31L365.89-18.31Q365.89-13.92 362.82-11.46 359.76-9.01 354.31-9.01L354.31-9.01 352.97-9.08 351.87-9.2Q350.72-8.33 350.72-7.25L350.72-7.25Q350.72-5.64 354.83-5.64L354.83-5.64 359.46-5.64Q363.96-5.64 366.31-3.71 368.67-1.78 368.67 1.95L368.67 1.95Q368.67 6.74 364.68 9.38 360.69 12.01 353.21 12.01L353.21 12.01Q347.5 12.01 344.49 10.02 341.47 8.03 341.47 4.44L341.47 4.44Q341.47 1.98 343.01 0.32 344.55-1.34 347.53-2.05L347.53-2.05Q346.38-2.54 345.52-3.65 344.67-4.76 344.67-6.01L344.67-6.01Q344.67-7.57 345.57-8.61 346.48-9.64 348.19-10.64L348.19-10.64Q346.04-11.57 344.78-13.62 343.52-15.67 343.52-18.46L343.52-18.46Q343.52-22.92 346.43-25.37 349.33-27.81 354.73-27.81L354.73-27.81Q355.88-27.81 357.45-27.6 359.03-27.39 359.46-27.29L359.46-27.29ZM347.92 3.86L347.92 3.86Q347.92 5.4 349.39 6.27 350.87 7.15 353.53 7.15L353.53 7.15Q357.54 7.15 359.81 6.05 362.08 4.96 362.08 3.05L362.08 3.05Q362.08 1.51 360.73 0.93 359.39 0.34 356.58 0.34L356.58 0.34 352.73 0.34Q350.68 0.34 349.3 1.31 347.92 2.27 347.92 3.86ZM350.63-18.36L350.63-18.36Q350.63-16.14 351.64-14.84 352.65-13.55 354.73-13.55L354.73-13.55Q356.83-13.55 357.8-14.84 358.78-16.14 358.78-18.36L358.78-18.36Q358.78-23.29 354.73-23.29L354.73-23.29Q350.63-23.29 350.63-18.36ZM373.16-34.35L373.16-34.35Q373.16-37.99 377.21-37.99L377.21-37.99Q381.26-37.99 381.26-34.35L381.26-34.35Q381.26-32.62 380.25-31.65 379.24-30.69 377.21-30.69L377.21-30.69Q373.16-30.69 373.16-34.35ZM380.92-27.29L380.92 0 373.48 0 373.48-27.29 380.92-27.29ZM400.04-22.51L400.04-22.51Q397.67-22.51 396.32-21.01 394.98-19.51 394.79-16.75L394.79-16.75 405.24-16.75Q405.19-19.51 403.8-21.01 402.4-22.51 400.04-22.51ZM401.09 0.49L401.09 0.49Q394.49 0.49 390.78-3.15 387.07-6.79 387.07-13.45L387.07-13.45Q387.07-20.31 390.5-24.06 393.93-27.81 399.99-27.81L399.99-27.81Q405.77-27.81 409-24.51 412.22-21.22 412.22-15.41L412.22-15.41 412.22-11.79 394.62-11.79Q394.74-8.62 396.5-6.84 398.25-5.05 401.43-5.05L401.43-5.05Q403.89-5.05 406.09-5.57 408.29-6.08 410.68-7.2L410.68-7.2 410.68-1.44Q408.73-0.46 406.51 0.01 404.28 0.49 401.09 0.49ZM452.91-9.91L452.91-9.91Q452.91-5.08 449.43-2.29 445.95 0.49 439.75 0.49L439.75 0.49Q434.04 0.49 429.65-1.66L429.65-1.66 429.65-8.69Q433.26-7.08 435.76-6.42 438.26-5.76 440.34-5.76L440.34-5.76Q442.83-5.76 444.16-6.71 445.49-7.67 445.49-9.55L445.49-9.55Q445.49-10.6 444.9-11.41 444.32-12.23 443.18-12.99 442.05-13.75 438.56-15.41L438.56-15.41Q435.28-16.94 433.65-18.36 432.01-19.78 431.04-21.66 430.06-23.54 430.06-26.05L430.06-26.05Q430.06-30.79 433.27-33.5 436.48-36.21 442.15-36.21L442.15-36.21Q444.93-36.21 447.46-35.55 449.98-34.89 452.74-33.69L452.74-33.69 450.3-27.81Q447.44-28.98 445.58-29.44 443.71-29.91 441.9-29.91L441.9-29.91Q439.75-29.91 438.6-28.91 437.46-27.91 437.46-26.29L437.46-26.29Q437.46-25.29 437.92-24.55 438.39-23.8 439.4-23.11 440.41-22.41 444.2-20.61L444.2-20.61Q449.2-18.21 451.06-15.81 452.91-13.4 452.91-9.91ZM483.84 0L478.13 0 477.13-3.49 476.74-3.49Q475.54-1.59 473.34-0.55 471.15 0.49 468.34 0.49L468.34 0.49Q463.53 0.49 461.09-2.09 458.65-4.66 458.65-9.5L458.65-9.5 458.65-27.29 466.09-27.29 466.09-11.35Q466.09-8.4 467.14-6.92 468.19-5.44 470.49-5.44L470.49-5.44Q473.61-5.44 475-7.53 476.4-9.62 476.4-14.45L476.4-14.45 476.4-27.29 483.84-27.29 483.84 0ZM505.89-27.29L515.41-27.29 515.41-23.51 511.13-22.41Q512.31-20.58 512.31-18.31L512.31-18.31Q512.31-13.92 509.24-11.46 506.18-9.01 500.73-9.01L500.73-9.01 499.39-9.08 498.29-9.2Q497.14-8.33 497.14-7.25L497.14-7.25Q497.14-5.64 501.25-5.64L501.25-5.64 505.89-5.64Q510.38-5.64 512.73-3.71 515.09-1.78 515.09 1.95L515.09 1.95Q515.09 6.74 511.1 9.38 507.11 12.01 499.64 12.01L499.64 12.01Q493.92 12.01 490.91 10.02 487.89 8.03 487.89 4.44L487.89 4.44Q487.89 1.98 489.43 0.32 490.97-1.34 493.95-2.05L493.95-2.05Q492.8-2.54 491.94-3.65 491.09-4.76 491.09-6.01L491.09-6.01Q491.09-7.57 491.99-8.61 492.9-9.64 494.61-10.64L494.61-10.64Q492.46-11.57 491.2-13.62 489.94-15.67 489.94-18.46L489.94-18.46Q489.94-22.92 492.85-25.37 495.75-27.81 501.15-27.81L501.15-27.81Q502.3-27.81 503.87-27.6 505.45-27.39 505.89-27.29L505.89-27.29ZM494.34 3.86L494.34 3.86Q494.34 5.4 495.81 6.27 497.29 7.15 499.95 7.15L499.95 7.15Q503.96 7.15 506.23 6.05 508.5 4.96 508.5 3.05L508.5 3.05Q508.5 1.51 507.15 0.93 505.81 0.34 503 0.34L503 0.34 499.15 0.34Q497.1 0.34 495.72 1.31 494.34 2.27 494.34 3.86ZM497.05-18.36L497.05-18.36Q497.05-16.14 498.06-14.84 499.07-13.55 501.15-13.55L501.15-13.55Q503.25-13.55 504.22-14.84 505.2-16.14 505.2-18.36L505.2-18.36Q505.2-23.29 501.15-23.29L501.15-23.29Q497.05-23.29 497.05-18.36ZM519.58-34.35L519.58-34.35Q519.58-37.99 523.63-37.99L523.63-37.99Q527.68-37.99 527.68-34.35L527.68-34.35Q527.68-32.62 526.67-31.65 525.66-30.69 523.63-30.69L523.63-30.69Q519.58-30.69 519.58-34.35ZM527.34-27.29L527.34 0 519.9 0 519.9-27.29 527.34-27.29ZM560.35-17.8L560.35 0 552.9 0 552.9-15.94Q552.9-18.9 551.85-20.37 550.8-21.85 548.51-21.85L548.51-21.85Q545.38-21.85 543.99-19.76 542.6-17.68 542.6-12.84L542.6-12.84 542.6 0 535.15 0 535.15-27.29 540.84-27.29 541.84-23.8 542.26-23.8Q543.5-25.78 545.69-26.79 547.87-27.81 550.66-27.81L550.66-27.81Q555.42-27.81 557.88-25.23 560.35-22.66 560.35-17.8L560.35-17.8ZM590.55 0L585.35 0 583.9-3.71 583.71-3.71Q581.83-1.34 579.84-0.43 577.85 0.49 574.65 0.49L574.65 0.49Q570.72 0.49 568.46-1.76 566.2-4 566.2-8.15L566.2-8.15Q566.2-12.5 569.24-14.56 572.28-16.63 578.41-16.85L578.41-16.85 583.15-16.99 583.15-18.19Q583.15-22.34 578.9-22.34L578.9-22.34Q575.63-22.34 571.21-20.36L571.21-20.36 568.74-25.39Q573.46-27.86 579.19-27.86L579.19-27.86Q584.69-27.86 587.62-25.46 590.55-23.07 590.55-18.19L590.55-18.19 590.55 0ZM583.15-10.4L583.15-12.65 580.27-12.55Q577.02-12.45 575.43-11.38 573.85-10.3 573.85-8.11L573.85-8.11Q573.85-4.96 577.46-4.96L577.46-4.96Q580.05-4.96 581.6-6.45 583.15-7.93 583.15-10.4L583.15-10.4Z" opacity="1" transform="matrix(1,0,0,1,0,0)" fill="#fa4238" class="slogan-text-1" data-fill-palette-color="secondary" id="text-1"/>
                        </svg>
                      </g>
                    </svg>
                  </g>
                </svg>
              </g>
            </svg>
          </g>
          <g>
            <svg viewBox="0 0 76.3933675164844 76.39788848270456" height="76.39788848270456" width="76.3933675164844">
              <g>
                <svg xmlns="http://www.w3.org/2000/svg" xmlns:xlink="http://www.w3.org/1999/xlink" version="1.1" x="0" y="0" viewBox="8.085714340209961 8.098169326782227 83.796875 83.80183410644531" enable-background="new 0 0 100 100" xml:space="preserve" height="76.39788848270456" width="76.3933675164844" class="icon-icon-0" data-fill-palette-color="accent" id="icon-0">
                  <path d="M50 77.1c3.6 0 7.1-0.7 10.4-2.1 13.8-5.7 20.4-21.6 14.7-35.5C70.9 29.4 61 22.9 50 22.9c-3.6 0-7.1 0.7-10.4 2.1-13.8 5.7-20.4 21.6-14.7 35.5C29.1 70.6 39 77.1 50 77.1zM30.3 61.7h5.5c1.1 3.3 2.6 6.5 4.4 9.1C36.2 68.8 32.7 65.7 30.3 61.7zM71.7 42.6c1.7 5 1.6 10.2 0 14.9h-6c0.5-2.5 0.8-5.1 0.8-7.5 0-2.5-0.2-5-0.7-7.4H71.7zM62.2 50c0 2.4-0.3 5-1 7.5h-9V42.6h9.2C62 44.9 62.2 47.4 62.2 50zM48 72.2c-3.1-1.4-5.9-5.6-7.7-10.5H48V72.2zM52.3 72.2V61.7H60C58.1 66.7 55.3 70.9 52.3 72.2zM52.3 38.3V27.6c3.2 1.3 6.2 5.4 8 10.7H52.3zM48 27.6v10.7h-8C41.8 33 44.8 28.9 48 27.6zM48 42.6v14.9h-9c-0.6-2.5-1-5.1-1-7.5 0-2.5 0.3-5 0.8-7.4H48zM34.7 57.4h-6.3c-1.7-5-1.6-10.2 0-14.9h6.1C34 45 33.8 47.5 33.8 50 33.8 52.3 34.1 54.8 34.7 57.4zM60.2 70.5c0.6-0.9 1.3-1.9 1.8-3 0.9-1.8 1.8-3.7 2.4-5.8h5.2C67.5 65.4 64.3 68.5 60.2 70.5zM69.7 38.3h-4.9c-0.7-2.3-1.6-4.6-2.7-6.5-0.4-0.7-0.8-1.3-1.2-1.9C64.5 31.8 67.5 34.7 69.7 38.3zM39.5 29.6c-0.5 0.7-0.9 1.4-1.3 2.1-1.1 2-2 4.2-2.7 6.5h-5.2C32.5 34.7 35.6 31.7 39.5 29.6zM49.5 8.1c10.8-0.1 21.1 3.9 29 11.2l0-3.2c0-1.2 0.9-2.1 2.1-2.1 0 0 0 0 0 0 1.2 0 2.1 0.9 2.1 2.1l0.1 8.3c0 1.2-0.9 2.1-2.1 2.1l-8.3 0.1c0 0 0 0 0 0-1.2 0-2.1-0.9-2.1-2.1 0-1.2 0.9-2.1 2.1-2.1l3.2 0c-7.1-6.5-16.2-10.1-25.9-10-10.1 0.1-19.5 4.1-26.5 11.3C12.9 34.1 9.6 49.1 14.5 62.8c0.4 1.1-0.2 2.3-1.3 2.7-0.2 0.1-0.5 0.1-0.7 0.1-0.9 0-1.7-0.5-2-1.4C7.9 56.9 7.4 49 9 41.4c1.6-7.8 5.5-15 11.1-20.7C27.8 12.7 38.3 8.2 49.5 8.1zM76.9 76.3c10.2-10.4 13.4-25.4 8.5-39.1-0.4-1.1 0.2-2.3 1.3-2.7 1.1-0.4 2.3 0.2 2.7 1.3 2.6 7.3 3.2 15.2 1.6 22.8-1.6 7.8-5.5 15-11.1 20.7-7.8 8-18.3 12.5-29.5 12.6-0.2 0-0.3 0-0.5 0-10.7 0-20.7-4-28.5-11.2l0 3.2c0 1.2-0.9 2.1-2.1 2.1 0 0 0 0 0 0-1.2 0-2.1-0.9-2.1-2.1l-0.1-8.3c0-0.6 0.2-1.1 0.6-1.5 0.4-0.4 0.9-0.6 1.5-0.6l8.3-0.1c1.2 0 2.1 0.9 2.1 2.1 0 1.2-0.9 2.1-2.1 2.1l-3.2 0C39.4 91.4 62.7 90.9 76.9 76.3z" fill="#fa4238" data-fill-palette-color="accent"/>
                </svg>
              </g>
            </svg>
          </g>
        </svg>
      </g>
      <defs/>
      <mask id="2f3c4383-5260-46a2-847f-d8c23be43038">
        <g id="SvgjsG1316">
          <svg viewBox="0 0 395.52 63.24837895667964" height="63.24837895667964" width="395.52">
            <g>
              <svg viewBox="0 0 477.7496807210758 76.39788848270456" height="63.24837895667964" width="395.52">
                <g transform="matrix(1,0,0,1,82.22968072107578,10.558608321415758)">
                  <svg viewBox="0 0 395.52 55.280671839873044" height="55.280671839873044" width="395.52">
                    <g id="SvgjsG1315">
                      <svg viewBox="0 0 395.52 55.280671839873044" height="55.280671839873044" width="395.52" id="SvgjsSvg1314">
                        <g>
                          <svg viewBox="0 0 395.52 24.722179317640833" height="24.722179317640833" width="395.52">
                            <g transform="matrix(1,0,0,1,0,0)">
                              <svg width="395.52" viewBox="3.5199999809265137 -31.25 553.8299560546875 34.619998931884766" height="24.722179317640833" data-palette-color="url(#0b369e0e-55f5-47e7-8af5-ca112d9d9199)">
                                <path d="M3.88 0L3.88-3.91 10.25-3.91 10.25-26.49 3.52-26.49 3.52-30.4 22.78-30.4Q25.59-30.4 27.84-30.3 30.1-30.2 31.93-29.86L31.93-29.86Q34.08-29.44 35.6-28.67 37.11-27.91 38.05-26.81 38.99-25.71 39.42-24.32 39.84-22.92 39.84-21.26L39.84-21.26Q39.84-19.9 39.37-18.58 38.89-17.26 37.96-16.1 37.04-14.94 35.63-14.01 34.23-13.09 32.37-12.5L32.37-12.5Q30.4-11.91 27.99-11.76 25.59-11.6 22.78-11.6L22.78-11.6 15.8-11.6 15.8-3.91 24.49-3.91 24.49 0 3.88 0ZM17.5-5.37L17.5-9.89 21.41-9.89Q23.56-9.89 25.12-9.91 26.68-9.94 27.92-10.02 29.15-10.11 30.14-10.27 31.13-10.42 32.13-10.67L32.13-10.67Q34.38-11.21 36.13-12.19 37.89-13.18 39.1-14.56 40.31-15.94 40.94-17.69 41.58-19.43 41.58-21.48L41.58-21.48Q41.58-24 40.61-25.82 39.65-27.64 37.6-29.1L37.6-29.1Q38.84-28.56 39.79-27.72 40.75-26.88 41.38-25.85 42.02-24.83 42.33-23.71 42.65-22.58 42.65-21.48L42.65-21.48Q42.65-19.31 41.94-17.41 41.24-15.5 39.88-13.96 38.53-12.43 36.54-11.32 34.55-10.21 31.96-9.64L31.96-9.64Q31.18-9.47 30.2-9.34 29.22-9.2 27.95-9.12 26.68-9.03 25.07-9 23.46-8.96 21.41-8.96L21.41-8.96 18.48-8.96 18.48-5.37 17.5-5.37ZM15.8-15.5L23.83-15.5Q25.9-15.5 27.44-15.6 28.98-15.7 30.15-16.04L30.15-16.04Q32.25-16.63 33.07-17.9 33.89-19.17 33.89-21.07L33.89-21.07Q33.89-22.53 33.35-23.56 32.81-24.58 31.62-25.24 30.42-25.9 28.5-26.2 26.59-26.49 23.83-26.49L23.83-26.49 15.8-26.49 15.8-15.5ZM17.5-16.97L17.5-24.78 23.66-24.78Q27.39-24.78 29.36-24.37 31.32-23.95 31.93-22.92L31.93-22.92Q31.45-23.14 30.77-23.32 30.1-23.49 29.13-23.61 28.15-23.73 26.82-23.79 25.49-23.85 23.66-23.85L23.66-23.85 18.48-23.85 18.48-16.97 17.5-16.97ZM4.83-23.85L4.83-24.78 8.72-24.78 8.72-23.85 4.83-23.85ZM5.44 1.71L26.25 1.71 26.25-2.54 27.22-2.54 27.22 2.64 5.44 2.64 5.44 1.71ZM47.14 0L47.14-3.91 53.73-3.91 53.73-26.49 47.14-26.49 47.14-30.4 83.44-30.4 83.44-20.87 77.95-20.87 77.95-26.49 59.47-26.49 59.47-16.87 71.73-16.87 71.73-13.82 59.47-13.82 59.47-3.91 77.95-3.91 77.95-9.52 83.44-9.52 83.44 0 47.14 0ZM79.42-18.24L79.42-19.17 85.2-19.17 85.2-29.17 86.18-29.17 86.18-18.24 79.42-18.24ZM61.23-18.33L61.23-24.78 76.93-24.78 76.93-23.85 62.2-23.85 62.2-18.33 61.23-18.33ZM48.61-23.85L48.61-24.78 52.71-24.78 52.71-23.85 48.61-23.85ZM61.23-5.37L61.23-12.11 73.46-12.11 73.46-15.65 74.44-15.65 74.44-11.18 62.2-11.18 62.2-5.37 61.23-5.37ZM48.61 1.71L85.2 1.71 85.2-8.15 86.18-8.15 86.18 2.64 48.61 2.64 48.61 1.71ZM94.65 0L94.65-3.91 101.02-3.91 101.02-26.49 94.28-26.49 94.28-30.4 114.28-30.4Q117.08-30.4 119.34-30.3 121.6-30.2 123.43-29.86L123.43-29.86Q125.58-29.44 127.08-28.71 128.58-27.98 129.54-26.94 130.49-25.9 130.92-24.6 131.34-23.29 131.34-21.75L131.34-21.75Q131.34-18.95 129.58-16.87 127.83-14.79 124.29-13.7L124.29-13.7Q123.85-13.55 123.37-13.44 122.9-13.33 122.41-13.21L122.41-13.21Q123.7-12.52 125-11.47 126.29-10.42 127.39-9.18 128.49-7.93 129.3-6.58 130.12-5.22 130.46-3.91L130.46-3.91 135.4-3.91 135.4 0 118.16 0 118.16-3.91 123.97-3.91Q123.55-5.22 122.68-6.62 121.8-8.01 120.55-9.23 119.31-10.45 117.73-11.35 116.16-12.26 114.37-12.57L114.37-12.57 106.51-12.57 106.51-3.91 112.47-3.91 112.47 0 94.65 0ZM126.14-12.77L126.14-12.77Q127.78-13.26 129.07-14.14 130.37-15.01 131.26-16.19 132.15-17.36 132.62-18.77 133.1-20.19 133.1-21.73L133.1-21.73Q133.1-22.8 132.88-23.8 132.66-24.8 132.12-25.72 131.59-26.64 130.68-27.49 129.78-28.34 128.44-29.15L128.44-29.15Q129.95-28.59 131.04-27.8 132.12-27 132.82-26.03 133.52-25.05 133.85-23.96 134.17-22.88 134.17-21.73L134.17-21.73Q134.17-20.31 133.8-18.97 133.42-17.63 132.65-16.42 131.88-15.21 130.68-14.21 129.49-13.21 127.88-12.5L127.88-12.5Q128.61-11.91 129.33-11.05 130.05-10.18 130.68-9.19 131.32-8.2 131.83-7.21 132.34-6.23 132.64-5.4L132.64-5.4 131.49-5.4Q131.12-6.35 130.57-7.41 130.02-8.47 129.33-9.47 128.63-10.47 127.83-11.34 127.02-12.21 126.14-12.77ZM106.51-16.48L115.33-16.48Q118.26-16.48 120.19-16.81 122.11-17.14 123.27-17.79 124.43-18.43 124.91-19.38 125.39-20.34 125.39-21.56L125.39-21.56Q125.39-23.07 124.31-24.28 123.24-25.49 120.89-26.07L120.89-26.07Q119.79-26.34 118.4-26.42 117.01-26.49 115.33-26.49L115.33-26.49 106.51-26.49 106.51-16.48ZM108.27-17.94L108.27-24.78 115.33-24.78Q117.33-24.78 118.67-24.69 120.01-24.61 120.94-24.39 121.87-24.17 122.48-23.82 123.09-23.46 123.6-22.92L123.6-22.92Q123.12-23.14 122.44-23.32 121.77-23.49 120.8-23.61 119.82-23.73 118.49-23.79 117.16-23.85 115.33-23.85L115.33-23.85 109.25-23.85 109.25-17.94 108.27-17.94ZM95.6-23.85L95.6-24.78 99.48-24.78 99.48-23.85 95.6-23.85ZM108.27-5.37L108.27-10.86 111.23-10.86Q113.57-10.86 115.39-10.49 117.21-10.11 118.04-9.18L118.04-9.18Q117.35-9.38 116.68-9.52 116.01-9.67 115.17-9.75 114.33-9.84 113.22-9.89 112.1-9.94 110.54-9.94L110.54-9.94 109.25-9.94 109.25-5.37 108.27-5.37ZM119.21 1.71L137.15 1.71 137.15-2.54 138.13-2.54 138.13 2.64 119.21 2.64 119.21 1.71ZM96.21 1.71L114.28 1.71 114.28-2.54 115.25-2.54 115.25 2.64 96.21 2.64 96.21 1.71ZM143.62 0L143.62-8.79 148.63-8.79Q151.87-5.86 155.56-4.5 159.25-3.15 163.27-3.15L163.27-3.15Q165.03-3.15 166.5-3.49 167.96-3.83 169.04-4.43 170.11-5.03 170.71-5.83 171.31-6.64 171.31-7.57L171.31-7.57Q171.31-8.64 170.62-9.55 169.94-10.45 168.44-11.18 166.94-11.91 164.58-12.45 162.22-12.99 158.9-13.33L158.9-13.33Q155.05-13.72 152.34-14.61 149.63-15.5 147.91-16.77 146.18-18.04 145.39-19.6 144.6-21.17 144.6-22.9L144.6-22.9Q144.6-24.51 145.52-26.01 146.45-27.51 148.28-28.67 150.11-29.83 152.85-30.54 155.58-31.25 159.2-31.25L159.2-31.25Q161.3-31.25 163.04-30.92 164.79-30.59 166.26-30.03 167.74-29.47 168.99-28.7 170.23-27.93 171.33-27.05L171.33-27.05 171.33-30.4 176.82-30.4 176.82-21.61 171.33-21.61Q170.6-22.83 169.43-23.88 168.25-24.93 166.73-25.7 165.2-26.46 163.4-26.9 161.59-27.34 159.61-27.34L159.61-27.34Q157.54-27.34 155.96-26.97 154.39-26.59 153.33-25.99 152.26-25.39 151.73-24.66 151.19-23.93 151.19-23.22L151.19-23.22Q151.19-22.31 151.66-21.5 152.14-20.68 153.35-19.98 154.56-19.29 156.63-18.74 158.71-18.19 161.91-17.8L161.91-17.8Q166.4-17.24 169.43-16.38 172.45-15.53 174.28-14.32 176.12-13.11 176.9-11.51 177.68-9.91 177.68-7.91L177.68-7.91Q177.68-6.4 176.86-4.86 176.04-3.32 174.37-2.08 172.7-0.83 170.13-0.05 167.57 0.73 164.1 0.73L164.1 0.73Q161.93 0.73 159.94 0.45 157.95 0.17 156.11-0.38 154.26-0.93 152.53-1.73 150.8-2.54 149.11-3.61L149.11-3.61 149.11 0 143.62 0ZM172.8-18.97L172.8-19.9 178.58-19.9 178.58-29.15 179.61-29.15 179.61-18.97 172.8-18.97ZM153.22-23.36L153.22-23.36Q153.22-23.88 153.74-24.29 154.26-24.71 155.19-25 156.12-25.29 157.38-25.46 158.64-25.63 160.1-25.63L160.1-25.63Q162.32-25.63 164.21-24.94 166.11-24.24 167.35-23.14L167.35-23.14Q166.67-23.44 165.81-23.72 164.96-24 164.02-24.23 163.08-24.46 162.09-24.6 161.1-24.73 160.15-24.73L160.15-24.73Q157.49-24.73 155.77-24.3 154.05-23.88 153.22-23.36ZM145.31-17.04L145.31-17.04Q146.14-15.97 147.25-15.11 148.36-14.26 149.93-13.6 151.51-12.94 153.62-12.45 155.73-11.96 158.56-11.65L158.56-11.65Q161.32-11.33 163.29-10.99 165.25-10.64 166.55-10.24 167.84-9.84 168.53-9.33 169.23-8.81 169.47-8.13L169.47-8.13Q168.77-8.54 167.97-8.87 167.18-9.2 165.93-9.51 164.69-9.81 162.81-10.11 160.93-10.4 158.07-10.74L158.07-10.74Q155.07-11.11 152.76-11.74 150.46-12.38 148.86-13.2 147.26-14.01 146.37-15 145.48-15.99 145.31-17.04ZM145.09 1.71L150.87 1.71 150.87-0.71Q153.8 0.83 157 1.64 160.2 2.44 164.08 2.44L164.08 2.44Q167.03 2.44 169.79 1.81 172.55 1.17 174.7-0.1 176.85-1.37 178.14-3.3 179.44-5.22 179.44-7.81L179.44-7.81Q179.44-9.38 179.11-10.66 178.78-11.94 177.8-13.23L177.8-13.23Q178.39-12.82 178.86-12.22 179.34-11.62 179.68-10.9 180.02-10.18 180.22-9.39 180.41-8.59 180.41-7.81L180.41-7.81Q180.41-5.13 179.13-3.05 177.85-0.98 175.63 0.45 173.41 1.88 170.43 2.62 167.45 3.37 164.06 3.37L164.06 3.37Q160.25 3.37 157.26 2.71 154.26 2.05 151.9 0.88L151.9 0.88 151.9 2.64 145.09 2.64 145.09 1.71ZM186.24-14.67L186.24-14.67Q186.24-18.02 187.55-21.03 188.86-24.05 191.35-26.32 193.84-28.59 197.49-29.92 201.14-31.25 205.82-31.25L205.82-31.25Q210.71-31.25 214.31-30.04 217.91-28.83 220.27-26.68 222.62-24.54 223.77-21.61 224.92-18.68 224.92-15.23L224.92-15.23Q224.92-11.89 223.64-8.98 222.35-6.08 219.91-3.92 217.47-1.76 213.89-0.51 210.32 0.73 205.75 0.73L205.75 0.73Q201.82 0.73 198.29-0.24 194.77-1.22 192.08-3.16 189.39-5.1 187.82-7.98 186.24-10.86 186.24-14.67ZM191.64-1.66L191.64-1.66Q192.89-0.76 194.46-0.01 196.03 0.73 197.85 1.28 199.67 1.83 201.67 2.14 203.68 2.44 205.75 2.44L205.75 2.44Q210.29 2.44 214.13 1.21 217.96-0.02 220.74-2.33 223.53-4.64 225.1-7.9 226.67-11.16 226.67-15.23L226.67-15.23Q226.67-17.26 226.13-19.25 225.58-21.24 224.57-23.05 223.57-24.85 222.13-26.42 220.69-27.98 218.91-29.15L218.91-29.15Q220.99-28.2 222.61-26.75 224.23-25.29 225.36-23.49 226.48-21.68 227.07-19.58 227.65-17.48 227.65-15.23L227.65-15.23Q227.65-11.01 226.1-7.57 224.55-4.13 221.68-1.7 218.81 0.73 214.77 2.05 210.73 3.37 205.75 3.37L205.75 3.37Q201.14 3.37 197.57 2.14 194.01 0.9 191.64-1.66ZM192.35-14.87L192.35-14.87Q192.35-12.08 193.35-9.91 194.35-7.74 196.12-6.24 197.89-4.74 200.3-3.96 202.7-3.17 205.53-3.17L205.53-3.17Q208.78-3.17 211.26-4.16 213.74-5.15 215.42-6.81 217.1-8.47 217.96-10.66 218.81-12.84 218.81-15.23L218.81-15.23Q218.81-17.99 217.9-20.24 216.98-22.49 215.29-24.06 213.59-25.63 211.16-26.49 208.73-27.34 205.7-27.34L205.7-27.34Q202.77-27.34 200.32-26.45 197.87-25.56 196.1-23.93 194.33-22.29 193.34-19.98 192.35-17.68 192.35-14.87ZM194.11-14.79L194.11-14.79Q194.11-17.04 194.88-19.02 195.64-21 197.13-22.46 198.62-23.93 200.77-24.78 202.92-25.63 205.7-25.63L205.7-25.63Q208.75-25.63 211.1-24.52 213.44-23.41 215.05-21.34L215.05-21.34Q212.76-23.22 210.48-23.96 208.19-24.71 205.7-24.71L205.7-24.71Q203.19-24.71 201.21-23.93 199.23-23.14 197.88-21.79 196.52-20.43 195.8-18.63 195.08-16.82 195.08-14.79L195.08-14.79Q195.08-13.18 195.64-11.71 196.21-10.23 197.26-8.96 198.31-7.69 199.79-6.69 201.28-5.69 203.16-5L203.16-5Q200.99-5.35 199.29-6.24 197.6-7.13 196.45-8.42 195.3-9.72 194.7-11.34 194.11-12.96 194.11-14.79ZM234 0L234-3.91 240.1-3.91 240.1-26.49 233.51-26.49 233.51-30.4 247.79-30.4 269.15-8.25 269.15-26.49 262.56-26.49 262.56-30.4 281.24-30.4 281.24-26.49 274.65-26.49 274.65 0 269.4 0 245.59-25.2 245.59-3.91 252.18-3.91 252.18 0 234 0ZM270.86 1.71L276.4 1.71 276.4-24.78 283-24.78 283-29.17 283.97-29.17 283.97-23.85 277.38-23.85 277.38 2.64 270.86 2.64 270.86 1.71ZM251.21-29.17L252.5-29.17 268.2-13.35 268.2-11.94 251.21-29.17ZM264.03-23.85L264.03-24.78 268.13-24.78 268.13-23.85 264.03-23.85ZM234.97-23.85L234.97-24.78 239.07-23.85 239.07-23.85 234.97-23.85ZM247.35-5.37L247.35-21.88 248.33-20.8 248.33-5.37 247.35-5.37ZM235.46 1.71L253.94 1.71 253.94-2.54 254.92-2.54 254.92 2.64 235.46 2.64 235.46 1.71ZM286.65 0L286.65-3.91 291.93-3.91 307.99-30.4 313.27-30.4 329.04-3.91 335.39-3.91 335.39 0 316.59 0 316.59-3.91 322.49-3.91 318.95-10.13 301.84-10.13 298.4-3.91 304.04-3.91 304.04 0 286.65 0ZM316.03-29.15L317.15-29.15 331.28-5.37 330.16-5.37 316.03-29.15ZM303.55-13.18L317.2-13.18 310.29-25.32 303.55-13.18ZM306.19-14.65L310.73-22.53 311.31-21.46 307.38-14.65 306.19-14.65ZM301.13-5.37L302.79-8.42 318.74-8.42 319.17-7.5 303.53-7.5 302.38-5.37 301.13-5.37ZM317.64 1.71L337.12 1.71 337.12-2.56 338.14-2.56 338.14 2.64 317.64 2.64 317.64 1.71ZM287.73 1.71L305.8 1.71 305.8-2.56 306.77-2.56 306.77 2.64 287.73 2.64 287.73 1.71ZM342.05 0L342.05-3.91 348.4-3.91 348.4-26.49 341.63-26.49 341.63-30.4 360.77-30.4 360.77-26.49 353.94-26.49 353.94-3.91 370.91-3.91 370.91-10.99 376.4-10.99 376.4 0 342.05 0ZM355.7-5.37L355.7-24.54 362.51-24.54 362.51-29.17 363.48-29.17 363.48-23.61 356.67-23.61 356.67-5.37 355.7-5.37ZM343.1-23.61L343.1-24.54 347.37-24.54 347.37-23.61 343.1-23.61ZM343.51 1.71L378.16 1.71 378.16-9.62 379.13-9.62 379.13 2.64 343.51 2.64 343.51 1.71ZM415.77 0L404.69-26.49 398.95-26.49 398.95-30.4 417.51-30.4 417.51-26.49 410.7-26.49 419.22-5.32 429.25-26.49 423.32-26.49 423.32-30.4 440.94-30.4 440.94-26.49 434.82-26.49 444.12-5.44 452.54-26.49 446.32-26.49 446.32-30.4 462.87-30.4 462.87-26.49 457.62-26.49 446.78 0 441.09 0 431.62-20.75 421.46 0 415.77 0ZM442.92 1.71L447.88 1.71 458.84-24.78 464.63-24.78 464.63-29.15 465.6-29.15 465.6-23.85 459.55-23.85 448.63 2.64 443.43 2.64 442.92 1.71ZM437.65-24.78L442.7-24.78 442.92-29.15 443.68-29.15 443.68-23.85 439.14-23.85 444.78-10.86 444.19-9.62 437.65-24.78ZM419.53-9.13L413.23-24.78 419.26-24.78 419.26-29.15 420.24-29.15 420.24-23.85 414.7-23.85 420.12-10.38 419.53-9.13ZM447.9-23.85L447.9-24.78 450.64-24.78 450.27-23.85 447.9-23.85ZM424.66-23.85L424.66-24.78 426.96-24.78 426.54-23.85 424.66-23.85ZM400.54-23.85L400.54-24.78 403.88-24.78 404.27-23.85 400.54-23.85ZM417.6 1.71L422.61 1.71 431.81-16.97 432.37-15.8 423.32 2.64 418.12 2.64 417.6 1.71ZM469.12 0L469.12-3.91 475.71-3.91 475.71-26.49 469.12-26.49 469.12-30.4 505.42-30.4 505.42-20.87 499.93-20.87 499.93-26.49 481.44-26.49 481.44-16.87 493.7-16.87 493.7-13.82 481.44-13.82 481.44-3.91 499.93-3.91 499.93-9.52 505.42-9.52 505.42 0 469.12 0ZM501.39-18.24L501.39-19.17 507.18-19.17 507.18-29.17 508.15-29.17 508.15-18.24 501.39-18.24ZM483.2-18.33L483.2-24.78 498.9-24.78 498.9-23.85 484.18-23.85 484.18-18.33 483.2-18.33ZM470.58-23.85L470.58-24.78 474.68-24.78 474.68-23.85 470.58-23.85ZM483.2-5.37L483.2-12.11 495.43-12.11 495.43-15.65 496.41-15.65 496.41-11.18 484.18-11.18 484.18-5.37 483.2-5.37ZM470.58 1.71L507.18 1.71 507.18-8.15 508.15-8.15 508.15 2.64 470.58 2.64 470.58 1.71ZM516.62 0L516.62-3.91 522.99-3.91 522.99-26.49 516.26-26.49 516.26-30.4 533.79-30.4Q536.37-30.4 538.41-30.35 540.45-30.3 542-30.22 543.55-30.15 544.7-30.03 545.85-29.91 546.68-29.76L546.68-29.76Q548.68-29.39 550.08-28.71 551.49-28.03 552.37-27.08 553.24-26.12 553.65-24.94 554.05-23.75 554.05-22.39L554.05-22.39Q554.05-21.41 553.63-20.4 553.22-19.38 552.35-18.47 551.49-17.55 550.18-16.8 548.87-16.04 547.12-15.58L547.12-15.58Q548.9-15.36 550.3-14.71 551.71-14.06 552.67-13.12 553.63-12.18 554.14-11.01 554.64-9.84 554.64-8.57L554.64-8.57Q554.64-7.08 554.22-5.82 553.81-4.57 552.87-3.56 551.93-2.56 550.41-1.84 548.9-1.12 546.7-0.71L546.7-0.71Q544.33-0.27 541.27-0.13 538.2 0 534.2 0L534.2 0 516.62 0ZM518.19 1.71L534.2 1.71Q538.08 1.71 541.34 1.62 544.6 1.54 547.04 1.05L547.04 1.05Q549.78 0.51 551.58-0.5 553.39-1.51 554.45-2.81 555.51-4.1 555.94-5.62 556.37-7.13 556.37-8.67L556.37-8.67Q556.37-9.74 556.05-10.78 555.73-11.82 555.08-12.72 554.42-13.62 553.39-14.37 552.37-15.11 550.95-15.6L550.95-15.6Q553.46-16.85 554.64-18.54 555.81-20.24 555.81-22.39L555.81-22.39Q555.81-24.51 554.66-26.43 553.51-28.34 550.9-29.66L550.9-29.66Q552.37-29.3 553.46-28.6 554.56-27.91 555.31-26.98 556.05-26.05 556.42-24.93 556.78-23.8 556.78-22.58L556.78-22.58Q556.78-20.36 555.88-18.71 554.98-17.07 552.98-15.65L552.98-15.65Q555.32-14.4 556.33-12.61 557.35-10.82 557.35-8.67L557.35-8.67Q557.35-6.76 556.81-5.07 556.27-3.37 555.06-1.99 553.85-0.61 551.94 0.4 550.02 1.42 547.24 1.95L547.24 1.95Q544.77 2.44 541.59 2.54 538.4 2.64 534.2 2.64L534.2 2.64 518.19 2.64 518.19 1.71ZM528.56-16.97L537.62-16.97Q540.62-16.97 542.59-17.26 544.55-17.55 545.72-18.18 546.9-18.8 547.37-19.74 547.85-20.68 547.85-22L547.85-22Q547.85-23.32 547.02-24.37 546.19-25.42 544.36-25.98L544.36-25.98Q543.11-26.34 541.48-26.42 539.84-26.49 537.62-26.49L537.62-26.49 528.56-26.49 528.56-16.97ZM530.32-18.43L530.32-24.78 537.62-24.78Q539.47-24.78 540.82-24.69 542.16-24.61 543.11-24.39 544.06-24.17 544.72-23.82 545.38-23.46 545.9-22.92L545.9-22.92Q545.41-23.14 544.74-23.32 544.06-23.49 543.09-23.61 542.11-23.73 540.78-23.79 539.45-23.85 537.62-23.85L537.62-23.85 531.3-23.85 531.3-18.43 530.32-18.43ZM517.72-23.8L517.72-24.78 521.97-24.78 521.97-23.8 517.72-23.8ZM528.56-3.91L538.08-3.91Q540.6-3.91 542.4-4.04 544.21-4.17 545.53-4.66L545.53-4.66Q546.36-4.98 546.91-5.42 547.46-5.86 547.78-6.38 548.09-6.91 548.21-7.52 548.34-8.13 548.34-8.79L548.34-8.79Q548.34-10.4 547.35-11.58 546.36-12.77 544.28-13.38L544.28-13.38Q543.01-13.75 541.38-13.83 539.74-13.92 537.67-13.92L537.67-13.92 528.56-13.92 528.56-3.91ZM530.32-5.37L530.32-12.21 537.62-12.21Q539.47-12.21 540.89-12.08 542.31-11.96 543.34-11.71 544.38-11.45 545.11-11.07 545.85-10.69 546.36-10.16L546.36-10.16Q545.72-10.45 545-10.66 544.28-10.86 543.28-11.01 542.28-11.16 540.91-11.22 539.55-11.28 537.62-11.28L537.62-11.28 531.3-11.28 531.3-5.37 530.32-5.37Z" opacity="1" transform="matrix(1,0,0,1,0,0)" fill="white" class="wordmark-text-0" id="SvgjsPath1313"/>
                              </svg>
                            </g>
                          </svg>
                        </g>
                        <g transform="matrix(1,0,0,1,0,30.55849252223221)">
                          <svg viewBox="0 0 289.7975385149431 24.722179317640833" height="24.722179317640833" width="289.7975385149431">
                            <g transform="matrix(1,0,0,1,0,0)">
                              <svg width="289.7975385149431" viewBox="4.489999771118164 -37.9900016784668 586.0599975585938 50" height="24.722179317640833" data-palette-color="#fa4238"/>
                            </g>
                          </svg>
                        </g>
                      </svg>
                    </g>
                  </svg>
                </g>
                <g>
                  <svg viewBox="0 0 76.3933675164844 76.39788848270456" height="76.39788848270456" width="76.3933675164844">
                    <g>
                      <svg xmlns="http://www.w3.org/2000/svg" xmlns:xlink="http://www.w3.org/1999/xlink" version="1.1" x="0" y="0" viewBox="8.085714340209961 8.098169326782227 83.796875 83.80183410644531" enable-background="new 0 0 100 100" xml:space="preserve" height="76.39788848270456" width="76.3933675164844" class="icon-icon-0" data-fill-palette-color="accent" id="SvgjsSvg1311">
                      </svg>
                    </g>
                  </svg>
                </g>
              </svg>
            </g>
            <defs/>
          </svg>
        </g>
      </mask>
      <linearGradient x1="0" x2="1" y1="0.5" y2="0.5" id="0b369e0e-55f5-47e7-8af5-ca112d9d9199">
        <stop stop-color="#ffa62e" offset="0"/>
        <stop stop-color="#f71b3d" offset="1"/>
      </linearGradient>
      <rect width="395.5199890136719" height="63.24837875366211" fill="url(#0b369e0e-55f5-47e7-8af5-ca112d9d9199)" mask="url(#2f3c4383-5260-46a2-847f-d8c23be43038)" data-fill-palette-color="primary"/>
    </svg>