<svg xmlns="http://www.w3.org/2000/svg" viewBox="0 0 395.52 57.852419642725486" height="57.852419642725486" width="395.52">
      <g>
        <svg viewBox="0 0 471.28085539817073 68.93390426799556" height="57.852419642725486" width="395.52">
          <g transform="matrix(1,0,0,1,0,9.527044656430647)">
            <svg viewBox="0 0 395.52 49.879814955134265" height="49.879814955134265" width="395.52">
              <g id="textblocktransform">
                <svg viewBox="0 0 395.52 49.879814955134265" height="49.879814955134265" width="395.52" id="textblock">
                  <g>
                    <svg viewBox="0 0 395.52 28.918446306169077" height="28.918446306169077" width="395.52">
                      <g transform="matrix(1,0,0,1,0,0)">
                        <svg width="395.52" viewBox="1 -38 656.4299926757812 48" height="28.918446306169077" data-palette-color="#202046">
                          <path d="M10.9 0.05L6.75 0 2.45 0.2Q1 0.2 1-0.4L1-0.4Q1-1.1 1.75-1.35L1.75-1.35Q3.35-1.95 4.55-4.03 5.75-6.1 10.58-16.57 15.4-27.05 19.15-35.05L19.15-35.05Q19.5-35.8 19.78-36 20.05-36.2 20.58-36.2 21.1-36.2 21.25-36 21.4-35.8 21.8-34.65 22.2-33.5 22.43-32.9 22.65-32.3 23.15-30.95 23.65-29.6 24.75-26.9 25.85-24.2 29.78-15.08 33.7-5.95 34.3-4.73 34.9-3.5 35.95-2.63 37-1.75 37.77-1.68 38.55-1.6 39.08-1.43 39.6-1.25 39.6-0.65L39.6-0.65Q39.6 0.1 38.25 0.1L38.25 0.1 33.75-0.2 29.1 0Q27.55 0 27.13-0.13 26.7-0.25 26.7-0.65 26.7-1.05 27.1-1.28 27.5-1.5 27.95-1.58 28.4-1.65 28.8-2.02 29.2-2.4 29.2-3.28 29.2-4.15 27.95-7.55 26.7-10.95 25.85-12.55L25.85-12.55Q25.4-13.4 23.8-13.4L23.8-13.4 17.75-13.3 15.1-13.3Q12.85-13.3 12.28-13.05 11.7-12.8 11.33-12 10.95-11.2 10.25-9.78 9.55-8.35 9.3-7.8 9.05-7.25 8.7-6.4L8.7-6.4Q8.05-4.9 8.05-3.9 8.05-2.9 8.63-2.3 9.2-1.7 9.9-1.6L9.9-1.6Q11.75-1.45 11.75-0.65L11.75-0.65Q11.75-0.3 11.6-0.13 11.45 0.05 10.9 0.05L10.9 0.05ZM18.8-28.5Q18.35-28.5 15.95-22.98 13.55-17.45 13.55-16.85 13.55-16.25 14-16.1 14.45-15.95 16.1-15.95L16.1-15.95 17.65-15.95 22.4-16Q24.35-16 24.35-16.73 24.35-17.45 21.9-22.98 19.45-28.5 18.8-28.5L18.8-28.5ZM45.1 4.1L45.1 3.1 45.25-10.7 45.25-11.8Q45.25-15.95 44.87-17.32 44.5-18.7 42.9-18.7L42.9-18.7Q42.05-18.7 41.85-18.82 41.65-18.95 41.65-19.23 41.65-19.5 42.07-19.65 42.5-19.8 43.8-20.2 45.1-20.6 46.8-21.43 48.5-22.25 48.65-22.25L48.65-22.25Q49.3-22.25 49.3-21.6L49.3-21.6 49.1-18.65Q49.1-18.25 49.2-18.25 49.3-18.25 49.67-18.6 50.05-18.95 50.65-19.48 51.25-20 52.1-20.5L52.1-20.5Q54.05-21.7 56.75-21.7L56.75-21.7Q61.2-21.7 63.55-18.78 65.9-15.85 65.9-11.43 65.9-7 62.97-3.28 60.05 0.45 55.15 0.45L55.15 0.45Q52.85 0.45 51.42-0.03 50-0.5 49.45-0.98 48.9-1.45 48.72-1.45 48.55-1.45 48.55-1.05L48.55-1.05 48.55 5.1Q48.55 6.05 49.4 7.45L49.4 7.45Q49.95 8.35 51.07 8.5 52.2 8.65 52.97 8.7 53.75 8.75 53.75 9.38 53.75 10 52.05 10L52.05 10Q51.75 10 50.45 9.9 49.15 9.8 46.85 9.8L46.85 9.8 43.7 9.95Q42.6 9.95 42.3 9.85 42 9.75 42 9.38 42 9 42.47 8.8 42.95 8.6 43.55 8.45 44.15 8.3 44.62 7.23 45.1 6.15 45.1 4.1L45.1 4.1ZM48.55-9.6L48.55-9.6 48.6-7.1Q48.6-5.35 49.35-4.1 50.1-2.85 51.3-2.2L51.3-2.2Q53.5-1.05 55.95-1.05L55.95-1.05Q59.2-1.05 60.92-3.43 62.65-5.8 62.65-9.5 62.65-13.2 60.52-16.2 58.4-19.2 54.8-19.2L54.8-19.2Q52.25-19.2 50.25-17.6L50.25-17.6Q49.2-16.8 48.87-15.43 48.55-14.05 48.55-9.6ZM72.14-5.9L72.14-9.6 72.34-30.85Q72.34-32 71.97-32.93 71.59-33.85 71.14-34.05 70.69-34.25 69.14-34.25L69.14-34.25Q68.59-34.25 68.59-34.6 68.59-34.95 68.67-35.1 68.75-35.25 69-35.38 69.25-35.5 69.59-35.6L69.59-35.6Q71.05-35.9 72.59-36.65L72.59-36.65Q75.05-37.8 75.8-37.8L75.8-37.8Q76.39-37.8 76.39-36.85L76.39-36.85Q76.39-36.65 76.3-35.7L76.3-35.7Q76-32.75 76-29.25L76-29.25 76-26.45 75.89-19.8 75.89-4.9Q75.89-3.85 76.07-3.18 76.25-2.5 77.22-1.88 78.19-1.25 79.94-1.25L79.94-1.25Q80.19-1.25 80.39-1 80.59-0.75 80.59-0.5L80.59-0.5Q80.59 0.2 79.05 0.2L79.05 0.2 74-0.15Q72.69-0.15 71.52 0.05 70.34 0.25 69.97 0.25 69.59 0.25 69.37 0.08 69.14-0.1 69.14-0.38 69.14-0.65 69.37-0.83 69.59-1 70.09-1.1L70.09-1.1Q71.59-1.5 71.89-2.33 72.19-3.15 72.19-4.6L72.19-4.6 72.14-5.9ZM93.04 0.3L89.49 0.2 85.94 0.3Q83.94 0.3 83.94-0.38 83.94-1.05 84.69-1.3L84.69-1.3Q84.74-1.3 84.89-1.35L84.89-1.35Q86.04-1.75 86.39-2.55 86.74-3.35 86.74-10.3L86.74-10.3 86.74-14.7Q86.74-16.15 86.39-17 86.04-17.85 85.74-18.05 85.44-18.25 84.72-18.38 83.99-18.5 83.67-18.63 83.34-18.75 83.34-19.03 83.34-19.3 83.47-19.45 83.59-19.6 83.97-19.78 84.34-19.95 84.74-20.1L84.74-20.1Q86.14-20.5 87.04-20.9 87.94-21.3 88.42-21.5 88.89-21.7 89.04-21.8L89.04-21.8Q89.39-21.95 89.89-21.95L89.89-21.95Q90.64-21.95 90.64-21L90.64-21 90.34-18.6 90.34-4.9Q90.34-3.4 90.82-2.55 91.29-1.7 91.82-1.5 92.34-1.3 93.04-1.25 93.74-1.2 93.94-1.2L93.94-1.2Q94.64-1.1 94.64-0.5L94.64-0.5Q94.64 0.35 93.79 0.35L93.79 0.35 93.04 0.3ZM88.64-26.65Q87.64-26.65 86.92-27.7 86.19-28.75 86.19-29.43 86.19-30.1 87.07-31.18 87.94-32.25 88.72-32.25 89.49-32.25 90.24-31.23 90.99-30.2 90.99-29.4 90.99-28.6 90.04-27.63 89.09-26.65 88.64-26.65L88.64-26.65ZM97.74-33.95L97.74-33.95 96.74-33.9Q95.74-33.9 95.74-34.45 95.74-35 98.19-35.75L98.19-35.75Q98.54-35.85 99.02-36 99.49-36.15 99.59-36.18 99.69-36.2 99.97-36.3 100.24-36.4 100.27-36.43 100.29-36.45 100.52-36.55 100.74-36.65 100.84-36.73 100.94-36.8 101.24-36.98 101.54-37.15 102.22-37.58 102.89-38 103.54-38 104.19-38 104.19-37.05L104.19-37.05Q104.19-36.95 104.14-36.48 104.09-36 104.02-35.08 103.94-34.15 103.89-32.8L103.89-32.8Q103.74-28.85 103.74-24.4L103.74-24.4Q103.74-24.4 103.59-14.15L103.59-14.15 103.59-13.1Q103.59-11 103.79-11L103.79-11Q104.24-11 104.72-11.5 105.19-12 105.39-12.15L105.39-12.15Q112.39-17.75 112.39-18.45 112.39-19.15 111.27-19.6 110.14-20.05 110.14-20.45L110.14-20.45Q110.14-20.95 110.74-20.95L110.74-20.95 111.64-20.9 118.99-21.15Q120.29-21.15 120.29-20.75 120.29-20.35 119.99-20.2 119.69-20.05 119.19-20L119.19-20Q117.54-19.75 115.49-18.35L115.49-18.35Q115.34-18.25 115.17-18.1 114.99-17.95 114.52-17.6 114.04-17.25 113.39-16.75 112.74-16.25 110.99-14.93 109.24-13.6 108.84-13.25 108.44-12.9 108.44-12.5 108.44-12.1 108.99-11.35L108.99-11.35Q113.54-5.8 116.79-2.95L116.79-2.95Q118.14-1.75 119.52-1.4 120.89-1.05 121.49-1.05 122.09-1.05 122.09-0.6L122.09-0.6Q122.09 0 121.67 0.13 121.24 0.25 120.04 0.25L120.04 0.25 114.84 0.2Q113.59 0.2 106.99-7.95L106.99-7.95Q105.69-9.55 105.57-9.75 105.44-9.95 105.02-9.95 104.59-9.95 104.07-9.25 103.54-8.55 103.54-7.65L103.54-7.65 103.59-6.8Q103.59-3.2 103.99-2.7L103.99-2.7Q104.04-2.65 104.47-2.08 104.89-1.5 106.57-1.2 108.24-0.9 108.24-0.45L108.24-0.45Q108.24 0.35 106.69 0.35L106.69 0.35 101.84 0.05 98.19 0.25Q96.99 0.25 96.99-0.35L96.99-0.35Q96.99-0.85 98.24-1.2L98.24-1.2Q99.39-1.65 99.69-2.5 99.99-3.35 99.99-5.8L99.99-5.8 100.04-8 100.09-30.2Q100.09-33.95 97.74-33.95ZM131.29 0.75L131.29 0.75Q125.39 0.75 125.39-4.25L125.39-4.25Q125.39-7.85 128.39-9.2L128.39-9.2Q130.89-10.25 136.04-11.1L136.04-11.1Q136.19-11.15 136.44-11.18 136.69-11.2 136.96-11.25 137.24-11.3 137.39-11.35L137.39-11.35Q137.74-11.5 137.74-12.05L137.74-12.05 137.84-14.65Q137.84-17.5 136.19-18.78 134.54-20.05 132.99-20.05L132.99-20.05Q129.39-20.05 129.39-17.05L129.39-17.05 129.59-15.25Q129.59-14.25 128.69-14.25L128.69-14.25Q127.99-14.25 127.14-14.5L127.14-14.5Q125.59-15 125.59-16.2L125.59-16.2Q125.59-18.15 128.21-19.93 130.84-21.7 133.49-21.7 136.14-21.7 137.64-21.2 139.14-20.7 139.86-20.08 140.59-19.45 140.99-18.4L140.99-18.4Q141.49-17.15 141.49-14.48 141.49-11.8 141.36-9.73 141.24-7.65 141.24-5.95 141.24-4.25 141.64-3.18 142.04-2.1 142.59-1.8 143.14-1.5 143.69-1.45L143.69-1.45Q145.04-1.35 145.04-0.65L145.04-0.65Q145.04 0.4 141.89 0.4L141.89 0.4Q140.59 0.4 139.66-0.3 138.74-1 138.34-1.68 137.94-2.35 137.89-2.35 137.84-2.35 137.49-2.02 137.14-1.7 136.51-1.25 135.89-0.8 135.09-0.35L135.09-0.35Q133.24 0.75 131.29 0.75ZM137.39-10.4L137.39-10.4 136.89-10.3Q135.74-10.1 135.44-10.05 135.14-10 134.04-9.75 132.94-9.5 132.51-9.3 132.09-9.1 131.31-8.68 130.54-8.25 130.19-7.8L130.19-7.8Q129.29-6.4 129.29-4.85 129.29-3.3 130.29-2.27 131.29-1.25 132.86-1.25 134.44-1.25 135.36-1.65 136.29-2.05 136.74-2.55 137.19-3.05 137.44-3.9L137.44-3.9Q137.74-4.85 137.74-6.35L137.74-6.35 137.74-9.95Q137.74-10.4 137.39-10.4ZM162.44-20.05L162.44-20.05 162.64-17.05Q162.64-16.2 162.44-15.9 162.24-15.6 161.86-15.6 161.49-15.6 161.06-16.32 160.64-17.05 160.11-17.9 159.59-18.75 158.41-19.48 157.24-20.2 155.74-20.2 154.24-20.2 153.29-19.48 152.34-18.75 152.34-17.9 152.34-17.05 152.49-16.53 152.64-16 153.01-15.6 153.39-15.2 153.66-14.93 153.94-14.65 154.59-14.35 155.24-14.05 155.56-13.93 155.89-13.8 156.64-13.5L156.64-13.5Q161.19-11.9 162.49-10.38 163.79-8.85 163.79-6 163.79-3.15 161.14-0.75L161.14-0.75Q159.34 0.8 156.19 0.8L156.19 0.8Q154.04 0.8 151.39-0.25L151.39-0.25Q150.64-0.55 150.51-0.58 150.39-0.6 150.11-0.7 149.84-0.8 149.71-0.83 149.59-0.85 149.39-0.95 149.19-1.05 149.11-1.13 149.04-1.2 148.94-1.35L148.94-1.35Q148.79-1.6 148.79-2.15L148.79-2.15 148.79-6.5Q148.79-7.05 149.01-7.43 149.24-7.8 149.64-7.8 150.04-7.8 150.21-7.58 150.39-7.35 150.54-6.65 150.69-5.95 150.84-5.65L150.84-5.65Q152.69-1.05 156.04-1.05L156.04-1.05Q157.59-1.05 158.99-1.88 160.39-2.7 160.39-4.48 160.39-6.25 159.24-7.35 158.09-8.45 156.44-9.08 154.79-9.7 153.14-10.38 151.49-11.05 150.34-12.38 149.19-13.7 149.19-15.7L149.19-15.7Q149.19-18.5 151.44-20.2 153.69-21.9 156.39-21.9 159.09-21.9 160.49-21.48 161.89-21.05 162.16-20.7 162.44-20.35 162.44-20.05ZM177.18 0.3L173.63 0.2 170.08 0.3Q168.08 0.3 168.08-0.38 168.08-1.05 168.83-1.3L168.83-1.3Q168.88-1.3 169.03-1.35L169.03-1.35Q170.18-1.75 170.53-2.55 170.88-3.35 170.88-10.3L170.88-10.3 170.88-14.7Q170.88-16.15 170.53-17 170.18-17.85 169.88-18.05 169.58-18.25 168.86-18.38 168.13-18.5 167.81-18.63 167.48-18.75 167.48-19.03 167.48-19.3 167.61-19.45 167.73-19.6 168.11-19.78 168.48-19.95 168.88-20.1L168.88-20.1Q170.28-20.5 171.18-20.9 172.08-21.3 172.56-21.5 173.03-21.7 173.18-21.8L173.18-21.8Q173.53-21.95 174.03-21.95L174.03-21.95Q174.78-21.95 174.78-21L174.78-21 174.48-18.6 174.48-4.9Q174.48-3.4 174.96-2.55 175.43-1.7 175.96-1.5 176.48-1.3 177.18-1.25 177.88-1.2 178.08-1.2L178.08-1.2Q178.78-1.1 178.78-0.5L178.78-0.5Q178.78 0.35 177.93 0.35L177.93 0.35 177.18 0.3ZM172.78-26.65Q171.78-26.65 171.06-27.7 170.33-28.75 170.33-29.43 170.33-30.1 171.21-31.18 172.08-32.25 172.86-32.25 173.63-32.25 174.38-31.23 175.13-30.2 175.13-29.4 175.13-28.6 174.18-27.63 173.23-26.65 172.78-26.65L172.78-26.65ZM196.23-21.55L196.23-21.55 196.18-30.05Q196.18-31.4 195.33-32.73 194.48-34.05 192.53-34.05L192.53-34.05Q191.53-34.05 191.53-34.7L191.53-34.7Q191.53-35.5 192.68-35.5L192.68-35.5 194.53-35.55 197.53-35.4 205.78-35.55Q210.48-35.55 213.88-33.18 217.28-30.8 217.28-26.35L217.28-26.35Q217.28-23.9 216.38-21.98 215.48-20.05 214.2-18.95 212.93-17.85 211.33-17.1L211.33-17.1Q208.78-15.95 206.78-15.95 204.78-15.95 203.13-16.32 201.48-16.7 201.48-17.1L201.48-17.1Q201.48-17.85 202.13-17.85L202.13-17.85Q202.38-17.85 203.15-17.65 203.93-17.45 204.88-17.45 205.83-17.45 207.13-17.78 208.43-18.1 209.83-18.82 211.23-19.55 212.13-21.03 213.03-22.5 213.03-24.45L213.03-24.45Q213.03-27.8 210.33-30.68 207.63-33.55 202.88-33.55L202.88-33.55Q201.33-33.55 200.78-32.63 200.23-31.7 200.23-28.45L200.23-28.45 200.13-7.8Q200.13-2 203.53-1.6L203.53-1.6Q204.38-1.5 204.93-1.5L204.93-1.5Q206.33-1.6 206.33-0.5L206.33-0.5Q206.33 0.35 205.18 0.35L205.18 0.35 198.03 0.1 193.38 0.3Q191.83 0.3 191.83-0.25L191.83-0.25Q191.83-1.1 192.38-1.3L192.38-1.3Q192.63-1.4 192.73-1.45 192.83-1.5 193.2-1.58 193.58-1.65 193.7-1.7 193.83-1.75 194.03-1.78 194.23-1.8 194.3-1.83 194.38-1.85 194.55-1.98 194.73-2.1 194.83-2.33 194.93-2.55 195.1-2.93 195.28-3.3 195.55-4.08 195.83-4.85 196.03-11.4 196.23-17.95 196.23-21.55ZM229.08 0.95Q224.68 0.95 221.6-1.75 218.53-4.45 218.53-9.58 218.53-14.7 221.35-18.15 224.18-21.6 228.68-21.6L228.68-21.6Q230.78-21.6 232.5-20.85 234.23-20.1 235.18-19.03 236.13-17.95 236.78-16.75L236.78-16.75Q237.88-14.7 237.88-13.65L237.88-13.65Q237.88-12.75 235.83-12.75L235.83-12.75 222.98-12.75Q222.58-12.75 222.5-12.68 222.43-12.6 222.43-12.2L222.43-12.2Q222.43-7.5 224.95-4.8 227.48-2.1 230.88-2.1L230.88-2.1Q232.98-2.1 235.15-3.23 237.33-4.35 237.43-4.35L237.43-4.35Q237.93-4.35 237.93-3.9L237.93-3.9Q237.93-3.3 236.83-2.27 235.73-1.25 234.73-0.6L234.73-0.6Q232.33 0.95 229.08 0.95L229.08 0.95ZM223.38-13.95L223.38-13.95 232.18-14.25Q232.88-14.25 233.05-14.38 233.23-14.5 233.23-14.85L233.23-14.85Q233.23-16.35 231.83-18.35 230.43-20.35 227.93-20.35 225.43-20.35 224.08-18.38 222.73-16.4 222.73-14.65L222.73-14.65Q222.73-13.95 223.38-13.95ZM252.27 0L252.27 0 248.62-0.2Q247.32-0.2 245.17-0.1L245.17-0.1 243.02 0Q242.27 0 242.27-0.45 242.27-0.9 242.52-1 242.77-1.1 243.15-1.15 243.52-1.2 243.87-1.45L243.87-1.45Q244.82-2.05 244.92-5.08 245.02-8.1 245.02-9.05L245.02-9.05 245.02-16.25Q245.02-17.85 244.45-18.4 243.87-18.95 242.87-18.95L242.87-18.95 242.37-18.95Q241.42-18.95 241.42-19.5L241.42-19.5Q241.42-20 242.5-20.15 243.57-20.3 244.2-20.48 244.82-20.65 245.85-21.08 246.87-21.5 247.5-21.8 248.12-22.1 248.32-22.1L248.32-22.1 248.42-22.1Q248.87-22.1 248.87-21.5L248.87-21.5 248.77-19.35Q248.77-18.05 248.97-18.05 249.17-18.05 249.37-18.3L249.37-18.3Q250.12-19.35 251.37-20.1L251.37-20.1Q253.62-21.5 255.67-21.5 257.72-21.5 259.32-20.88 260.92-20.25 261.82-19.33 262.72-18.4 263.32-17.2L263.32-17.2Q264.32-15.2 264.32-13.1L264.32-13.1 264.32-12.6 264.37-9.95 264.37-4.85Q264.37-2.95 264.9-2.23 265.42-1.5 267.42-1.2L267.42-1.2Q268.42-1.05 268.42-0.45L268.42-0.45Q268.42 0.05 267.42 0.05L267.42 0.05 263.32-0.2 259.47 0Q258.47 0 258.47-0.65L258.47-0.65Q258.47-1.1 259.07-1.25L259.07-1.25 259.72-1.4Q260.82-1.75 260.82-4.75L260.82-4.75 260.82-11.5Q260.82-15.35 258.92-17.32 257.02-19.3 254.62-19.3 252.22-19.3 250.62-18.15 249.02-17 248.67-16 248.32-15 248.32-8.35L248.32-8.35 248.32-6.45Q248.32-3.95 248.85-2.75 249.37-1.55 251.17-1.4L251.17-1.4Q251.67-1.4 252.45-1.23 253.22-1.05 253.22-0.65L253.22-0.65Q253.22 0 252.27 0ZM288.62 0.15L288.62 0.15 288.47-1.7Q288.47-2.55 288.02-2.55L288.02-2.55Q287.87-2.55 287.3-2.05 286.72-1.55 285.97-0.93 285.22-0.3 283.8 0.2 282.37 0.7 280.72 0.7L280.72 0.7Q276.07 0.7 273.47-2.38 270.87-5.45 270.87-10.03 270.87-14.6 274.1-18.25 277.32-21.9 283.02-21.9L283.02-21.9Q284.32-21.9 286.44-21.18 288.57-20.45 288.77-20.45 288.97-20.45 288.97-22.25L288.97-22.25 289.07-28.7Q289.07-31.4 288.8-32.5 288.52-33.6 287.94-33.95 287.37-34.3 286.42-34.3L286.42-34.3 285.87-34.3Q285.12-34.3 284.97-34.35 284.82-34.4 284.82-34.7L284.82-34.7 284.82-34.75Q284.82-35.1 285.32-35.27 285.82-35.45 287.35-35.93 288.87-36.4 289.75-36.8 290.62-37.2 291.07-37.4L291.07-37.4Q292.02-37.9 292.42-37.9L292.42-37.9Q293.02-37.9 293.02-36.9L293.02-36.9Q293.02-36.75 292.69-32.65 292.37-28.55 292.37-26.05L292.37-26.05 292.27-7.8Q292.27-4.4 292.6-3.25 292.92-2.1 294.02-1.75L294.02-1.75Q294.17-1.7 294.87-1.58 295.57-1.45 295.87-1.28 296.17-1.1 296.17-0.7L296.17-0.7Q296.17-0.1 292.32 0.2L292.32 0.2Q291.52 0.25 290.47 0.48 289.42 0.7 289.17 0.7L289.17 0.7Q288.62 0.7 288.62 0.15ZM281.42-20.45Q278.17-20.45 276.32-18.07 274.47-15.7 274.47-12 274.47-8.3 276.8-5.1 279.12-1.9 282.77-1.9L282.77-1.9Q285.02-1.9 286.87-3.05 288.72-4.2 288.72-5.85L288.72-5.85 288.77-14.4Q288.77-17.45 287.37-18.25L287.37-18.25Q283.67-20.45 281.42-20.45L281.42-20.45ZM305.47 0.75L305.47 0.75Q299.57 0.75 299.57-4.25L299.57-4.25Q299.57-7.85 302.57-9.2L302.57-9.2Q305.07-10.25 310.22-11.1L310.22-11.1Q310.37-11.15 310.62-11.18 310.87-11.2 311.14-11.25 311.42-11.3 311.57-11.35L311.57-11.35Q311.92-11.5 311.92-12.05L311.92-12.05 312.02-14.65Q312.02-17.5 310.37-18.78 308.72-20.05 307.17-20.05L307.17-20.05Q303.57-20.05 303.57-17.05L303.57-17.05 303.77-15.25Q303.77-14.25 302.87-14.25L302.87-14.25Q302.17-14.25 301.32-14.5L301.32-14.5Q299.77-15 299.77-16.2L299.77-16.2Q299.77-18.15 302.39-19.93 305.02-21.7 307.67-21.7 310.32-21.7 311.82-21.2 313.32-20.7 314.04-20.08 314.77-19.45 315.17-18.4L315.17-18.4Q315.67-17.15 315.67-14.48 315.67-11.8 315.54-9.73 315.42-7.65 315.42-5.95 315.42-4.25 315.82-3.18 316.22-2.1 316.77-1.8 317.32-1.5 317.87-1.45L317.87-1.45Q319.22-1.35 319.22-0.65L319.22-0.65Q319.22 0.4 316.07 0.4L316.07 0.4Q314.77 0.4 313.84-0.3 312.92-1 312.52-1.68 312.12-2.35 312.07-2.35 312.02-2.35 311.67-2.02 311.32-1.7 310.69-1.25 310.07-0.8 309.27-0.35L309.27-0.35Q307.42 0.75 305.47 0.75ZM311.57-10.4L311.57-10.4 311.07-10.3Q309.92-10.1 309.62-10.05 309.32-10 308.22-9.75 307.12-9.5 306.69-9.3 306.27-9.1 305.49-8.68 304.72-8.25 304.37-7.8L304.37-7.8Q303.47-6.4 303.47-4.85 303.47-3.3 304.47-2.27 305.47-1.25 307.04-1.25 308.62-1.25 309.54-1.65 310.47-2.05 310.92-2.55 311.37-3.05 311.62-3.9L311.62-3.9Q311.92-4.85 311.92-6.35L311.92-6.35 311.92-9.95Q311.92-10.4 311.57-10.4ZM322.87-18.55L322.87-18.55 321.92-18.5Q321.07-18.5 321.07-19.2L321.07-19.2Q321.07-19.7 321.52-20.05L321.52-20.05Q323.42-21.3 325.32-23.8L325.32-23.8Q326.12-24.95 326.59-25.48 327.07-26 327.57-26 328.07-26 328.07-24.85L328.07-24.85Q328.07-24.85 327.87-22L327.87-22Q327.87-21.3 328.14-21.15 328.42-21 329.92-21L329.92-21 331.67-21Q333.92-21 334.42-21.25L334.42-21.25Q335.32-21.7 335.52-21.7L335.52-21.7Q336.02-21.7 336.02-21.15L336.02-21.15Q336.02-20.75 335.37-19.58 334.72-18.4 334.42-18.4L334.42-18.4Q332.17-18.4 331.27-18.5 330.37-18.6 330.07-18.63 329.77-18.65 329.54-18.68 329.32-18.7 329.22-18.7L329.22-18.7 329.12-18.75Q328.17-18.75 327.89-18.45 327.62-18.15 327.62-17.1L327.62-17.1 327.42-7.8Q327.42-4.55 328.24-3.28 329.07-2 331.72-2L331.72-2Q332.77-2 334.04-2.48 335.32-2.95 335.42-2.95L335.42-2.95Q335.92-2.95 335.92-2.3 335.92-1.65 334.19-0.58 332.47 0.5 330.47 0.5L330.47 0.5Q323.72 0.5 323.72-5.35L323.72-5.35 323.72-6.1 323.92-17.75Q323.92-18.25 323.72-18.4 323.52-18.55 322.87-18.55ZM345.11 0.75L345.11 0.75Q339.21 0.75 339.21-4.25L339.21-4.25Q339.21-7.85 342.21-9.2L342.21-9.2Q344.71-10.25 349.86-11.1L349.86-11.1Q350.01-11.15 350.26-11.18 350.51-11.2 350.79-11.25 351.06-11.3 351.21-11.35L351.21-11.35Q351.56-11.5 351.56-12.05L351.56-12.05 351.66-14.65Q351.66-17.5 350.01-18.78 348.36-20.05 346.81-20.05L346.81-20.05Q343.21-20.05 343.21-17.05L343.21-17.05 343.41-15.25Q343.41-14.25 342.51-14.25L342.51-14.25Q341.81-14.25 340.96-14.5L340.96-14.5Q339.41-15 339.41-16.2L339.41-16.2Q339.41-18.15 342.04-19.93 344.66-21.7 347.31-21.7 349.96-21.7 351.46-21.2 352.96-20.7 353.69-20.08 354.41-19.45 354.81-18.4L354.81-18.4Q355.31-17.15 355.31-14.48 355.31-11.8 355.19-9.73 355.06-7.65 355.06-5.95 355.06-4.25 355.46-3.18 355.86-2.1 356.41-1.8 356.96-1.5 357.51-1.45L357.51-1.45Q358.86-1.35 358.86-0.65L358.86-0.65Q358.86 0.4 355.71 0.4L355.71 0.4Q354.41 0.4 353.49-0.3 352.56-1 352.16-1.68 351.76-2.35 351.71-2.35 351.66-2.35 351.31-2.02 350.96-1.7 350.34-1.25 349.71-0.8 348.91-0.35L348.91-0.35Q347.06 0.75 345.11 0.75ZM351.21-10.4L351.21-10.4 350.71-10.3Q349.56-10.1 349.26-10.05 348.96-10 347.86-9.75 346.76-9.5 346.34-9.3 345.91-9.1 345.14-8.68 344.36-8.25 344.01-7.8L344.01-7.8Q343.11-6.4 343.11-4.85 343.11-3.3 344.11-2.27 345.11-1.25 346.69-1.25 348.26-1.25 349.19-1.65 350.11-2.05 350.56-2.55 351.01-3.05 351.26-3.9L351.26-3.9Q351.56-4.85 351.56-6.35L351.56-6.35 351.56-9.95Q351.56-10.4 351.21-10.4ZM368.16 0.75L368.16 0.75Q362.26 0.75 362.26-4.25L362.26-4.25Q362.26-7.85 365.26-9.2L365.26-9.2Q367.76-10.25 372.91-11.1L372.91-11.1Q373.06-11.15 373.31-11.18 373.56-11.2 373.84-11.25 374.11-11.3 374.26-11.35L374.26-11.35Q374.61-11.5 374.61-12.05L374.61-12.05 374.71-14.65Q374.71-17.5 373.06-18.78 371.41-20.05 369.86-20.05L369.86-20.05Q366.26-20.05 366.26-17.05L366.26-17.05 366.46-15.25Q366.46-14.25 365.56-14.25L365.56-14.25Q364.86-14.25 364.01-14.5L364.01-14.5Q362.46-15 362.46-16.2L362.46-16.2Q362.46-18.15 365.09-19.93 367.71-21.7 370.36-21.7 373.01-21.7 374.51-21.2 376.01-20.7 376.74-20.08 377.46-19.45 377.86-18.4L377.86-18.4Q378.36-17.15 378.36-14.48 378.36-11.8 378.24-9.73 378.11-7.65 378.11-5.95 378.11-4.25 378.51-3.18 378.91-2.1 379.46-1.8 380.01-1.5 380.56-1.45L380.56-1.45Q381.91-1.35 381.91-0.65L381.91-0.65Q381.91 0.4 378.76 0.4L378.76 0.4Q377.46 0.4 376.54-0.3 375.61-1 375.21-1.68 374.81-2.35 374.76-2.35 374.71-2.35 374.36-2.02 374.01-1.7 373.39-1.25 372.76-0.8 371.96-0.35L371.96-0.35Q370.11 0.75 368.16 0.75ZM374.26-10.4L374.26-10.4 373.76-10.3Q372.61-10.1 372.31-10.05 372.01-10 370.91-9.75 369.81-9.5 369.39-9.3 368.96-9.1 368.19-8.68 367.41-8.25 367.06-7.8L367.06-7.8Q366.16-6.4 366.16-4.85 366.16-3.3 367.16-2.27 368.16-1.25 369.74-1.25 371.31-1.25 372.24-1.65 373.16-2.05 373.61-2.55 374.06-3.05 374.31-3.9L374.31-3.9Q374.61-4.85 374.61-6.35L374.61-6.35 374.61-9.95Q374.61-10.4 374.26-10.4ZM395.31 0L395.31 0 391.66-0.2Q390.36-0.2 388.21-0.1L388.21-0.1 386.06 0Q385.31 0 385.31-0.45 385.31-0.9 385.56-1 385.81-1.1 386.18-1.15 386.56-1.2 386.91-1.45L386.91-1.45Q387.86-2.05 387.96-5.08 388.06-8.1 388.06-9.05L388.06-9.05 388.06-16.25Q388.06-17.85 387.48-18.4 386.91-18.95 385.91-18.95L385.91-18.95 385.41-18.95Q384.46-18.95 384.46-19.5L384.46-19.5Q384.46-20 385.53-20.15 386.61-20.3 387.23-20.48 387.86-20.65 388.88-21.08 389.91-21.5 390.53-21.8 391.16-22.1 391.36-22.1L391.36-22.1 391.46-22.1Q391.91-22.1 391.91-21.5L391.91-21.5 391.81-19.35Q391.81-18.05 392.01-18.05 392.21-18.05 392.41-18.3L392.41-18.3Q393.16-19.35 394.41-20.1L394.41-20.1Q396.66-21.5 398.71-21.5 400.76-21.5 402.36-20.88 403.96-20.25 404.86-19.33 405.76-18.4 406.36-17.2L406.36-17.2Q407.36-15.2 407.36-13.1L407.36-13.1 407.36-12.6 407.41-9.95 407.41-4.85Q407.41-2.95 407.93-2.23 408.46-1.5 410.46-1.2L410.46-1.2Q411.46-1.05 411.46-0.45L411.46-0.45Q411.46 0.05 410.46 0.05L410.46 0.05 406.36-0.2 402.51 0Q401.51 0 401.51-0.65L401.51-0.65Q401.51-1.1 402.11-1.25L402.11-1.25 402.76-1.4Q403.86-1.75 403.86-4.75L403.86-4.75 403.86-11.5Q403.86-15.35 401.96-17.32 400.06-19.3 397.66-19.3 395.26-19.3 393.66-18.15 392.06-17 391.71-16 391.36-15 391.36-8.35L391.36-8.35 391.36-6.45Q391.36-3.95 391.88-2.75 392.41-1.55 394.21-1.4L394.21-1.4Q394.71-1.4 395.48-1.23 396.26-1.05 396.26-0.65L396.26-0.65Q396.26 0 395.31 0ZM430.35-0.05L426.25 0.1Q425.2 0.1 425.2-0.7L425.2-0.7Q425.2-1.35 426.7-1.4L426.7-1.4Q427.25-1.45 427.95-2.23 428.65-3 428.95-4.3 429.25-5.6 429.6-13.2 429.95-20.8 429.95-25.13 429.95-29.45 428.98-31.35 428-33.25 424.75-34L424.75-34Q424.1-34.15 424.1-34.75L424.1-34.75Q424.1-35.5 425-35.5L425-35.5 427.65-35.3 431.4-35.4Q432.35-35.4 432.6-34.7L432.6-34.7Q433.2-33.4 434.75-30.03 436.3-26.65 437.23-24.65 438.15-22.65 439.6-19.55 441.05-16.45 441.95-14.53 442.85-12.6 443.83-10.65 444.8-8.7 445.33-7.78 445.85-6.85 446-6.85 446.15-6.85 446.33-7.03 446.5-7.2 446.68-7.5 446.85-7.8 446.98-8.1 447.1-8.4 447.33-8.88 447.55-9.35 447.65-9.6L447.65-9.6 454.1-22.9Q456.75-28.3 457.65-30.45L457.65-30.45 458.8-32.95Q458.95-33.35 459.03-33.58 459.1-33.8 459.15-33.93 459.2-34.05 459.25-34.15 459.3-34.25 459.43-34.6 459.55-34.95 459.7-35.1L459.7-35.1Q460.1-35.5 461.15-35.5L461.15-35.5 465.45-35.4Q466.3-35.4 466.3-34.75L466.3-34.75Q466.3-34.25 465.98-34.02 465.65-33.8 464.53-33.65 463.4-33.5 462.9-32.4 462.4-31.3 462.4-26.38 462.4-21.45 462.7-15.98 463-10.5 463-9.1L463-9.1Q463-4.1 463.8-2.73 464.6-1.35 467.15-1.35L467.15-1.35Q467.5-1.35 467.78-1.1 468.05-0.85 468.05-0.65L468.05-0.65Q468.05 0.15 467.5 0.15L467.5 0.15 466.95 0.15 461.85-0.05Q461.85-0.05 456.65 0.2L456.65 0.2Q455.75 0.2 455.75-0.5L455.75-0.5Q455.75-1.25 457.1-1.4L457.1-1.4Q457.6-1.45 458.18-2.02 458.75-2.6 458.98-3.68 459.2-4.75 459.2-6.65 459.2-8.55 459.13-10.8 459.05-13.05 458.95-15.18 458.85-17.3 458.75-19.18 458.65-21.05 458.6-22.25L458.6-22.25 458.5-23.45Q458.5-25.6 458.05-25.6L458.05-25.6Q457.9-25.6 457.78-25.45 457.65-25.3 457.55-25.2 457.45-25.1 457.35-24.88 457.25-24.65 457.15-24.5 457.05-24.35 456.9-24.08 456.75-23.8 456.65-23.6L456.65-23.6 456.4-23.05Q456.2-22.7 456.1-22.45L456.1-22.45 449.15-8.4Q447.95-5.95 446.83-3.6 445.7-1.25 445.5-0.93 445.3-0.6 444.93-0.6 444.55-0.6 444.25-1.03 443.95-1.45 443.35-2.9 442.75-4.35 442.3-5.3L442.3-5.3Q433.15-23.9 432.95-24.18 432.75-24.45 432.6-24.45L432.6-24.45Q432.2-24.45 432.2-22.45L432.2-22.45 431.75-9.25 431.75-7Q431.75-2.9 433.4-1.95L433.4-1.95Q434.25-1.45 435.05-1.4L435.05-1.4Q436.3-1.25 436.3-0.73 436.3-0.2 436.15-0.03 436 0.15 435.55 0.15L435.55 0.15 430.35-0.05ZM477.35 0.75L477.35 0.75Q471.45 0.75 471.45-4.25L471.45-4.25Q471.45-7.85 474.45-9.2L474.45-9.2Q476.95-10.25 482.1-11.1L482.1-11.1Q482.25-11.15 482.5-11.18 482.75-11.2 483.03-11.25 483.3-11.3 483.45-11.35L483.45-11.35Q483.8-11.5 483.8-12.05L483.8-12.05 483.9-14.65Q483.9-17.5 482.25-18.78 480.6-20.05 479.05-20.05L479.05-20.05Q475.45-20.05 475.45-17.05L475.45-17.05 475.65-15.25Q475.65-14.25 474.75-14.25L474.75-14.25Q474.05-14.25 473.2-14.5L473.2-14.5Q471.65-15 471.65-16.2L471.65-16.2Q471.65-18.15 474.28-19.93 476.9-21.7 479.55-21.7 482.2-21.7 483.7-21.2 485.2-20.7 485.93-20.08 486.65-19.45 487.05-18.4L487.05-18.4Q487.55-17.15 487.55-14.48 487.55-11.8 487.43-9.73 487.3-7.65 487.3-5.95 487.3-4.25 487.7-3.18 488.1-2.1 488.65-1.8 489.2-1.5 489.75-1.45L489.75-1.45Q491.1-1.35 491.1-0.65L491.1-0.65Q491.1 0.4 487.95 0.4L487.95 0.4Q486.65 0.4 485.73-0.3 484.8-1 484.4-1.68 484-2.35 483.95-2.35 483.9-2.35 483.55-2.02 483.2-1.7 482.58-1.25 481.95-0.8 481.15-0.35L481.15-0.35Q479.3 0.75 477.35 0.75ZM483.45-10.4L483.45-10.4 482.95-10.3Q481.8-10.1 481.5-10.05 481.2-10 480.1-9.75 479-9.5 478.58-9.3 478.15-9.1 477.38-8.68 476.6-8.25 476.25-7.8L476.25-7.8Q475.35-6.4 475.35-4.85 475.35-3.3 476.35-2.27 477.35-1.25 478.93-1.25 480.5-1.25 481.43-1.65 482.35-2.05 482.8-2.55 483.25-3.05 483.5-3.9L483.5-3.9Q483.8-4.85 483.8-6.35L483.8-6.35 483.8-9.95Q483.8-10.4 483.45-10.4ZM498.7-0.25L498.7-0.25 495.15 0Q493.9 0 493.85-0.15 493.8-0.3 493.8-0.5L493.8-0.5Q493.8-1 494.4-1.15L494.4-1.15Q495.85-1.55 496.27-2.43 496.7-3.3 496.7-5L496.7-5 496.9-22.05 496.9-24.5Q496.9-31.3 496.6-32.8 496.3-34.3 494.8-34.3L494.8-34.3 494.15-34.3 493.95-34.35Q493.1-34.35 493.1-34.8 493.1-35.25 493.62-35.52 494.15-35.8 495.12-36.05 496.1-36.3 497.9-37.1 499.7-37.9 500.15-37.9L500.15-37.9Q500.8-37.9 500.8-36.75L500.8-36.75Q500.8-36.5 500.62-35.55 500.45-34.6 500.42-31.88 500.4-29.15 500.32-26.03 500.25-22.9 500.2-21.8L500.2-21.8Q500.1-19.7 500.1-18.85 500.1-18 500.5-18L500.5-18Q500.6-18 501.52-18.93 502.45-19.85 504.07-20.78 505.7-21.7 507.55-21.7L507.55-21.7Q511.6-21.7 513.85-19.3 516.1-16.9 516.1-11.85L516.1-11.85 516.1-4.6Q516.1-3.25 516.6-2.5 517.1-1.75 517.75-1.7L517.75-1.7Q520.45-1.45 520.45-0.65 520.45 0.15 518.9 0.15L518.9 0.15 514.7-0.1 510.85 0.05Q509.7 0.05 509.7-0.45L509.7-0.45Q509.7-1.35 511.05-1.35L511.05-1.35Q511.55-1.35 511.97-1.9 512.4-2.45 512.4-3.6L512.4-3.6 512.45-4.9 512.5-11.9Q512.5-14.95 510.65-17.18 508.8-19.4 506.37-19.4 503.95-19.4 501.45-17.45L501.45-17.45Q500.55-16.75 500.3-15.18 500.05-13.6 500.05-8.2L500.05-8.2 500.05-7.05Q500.05-4.8 500.4-3.4L500.4-3.4Q500.95-1.45 503.15-1.3L503.15-1.3Q503.85-1.25 504.22-1.13 504.6-1 504.6-0.6L504.6-0.6Q504.6 0 504.05 0L504.05 0 502.75-0.05Q501.45-0.1 500.12-0.18 498.8-0.25 498.7-0.25ZM529.75 0.75L529.75 0.75Q523.85 0.75 523.85-4.25L523.85-4.25Q523.85-7.85 526.85-9.2L526.85-9.2Q529.35-10.25 534.5-11.1L534.5-11.1Q534.65-11.15 534.9-11.18 535.15-11.2 535.42-11.25 535.7-11.3 535.85-11.35L535.85-11.35Q536.2-11.5 536.2-12.05L536.2-12.05 536.3-14.65Q536.3-17.5 534.65-18.78 533-20.05 531.45-20.05L531.45-20.05Q527.85-20.05 527.85-17.05L527.85-17.05 528.05-15.25Q528.05-14.25 527.15-14.25L527.15-14.25Q526.45-14.25 525.6-14.5L525.6-14.5Q524.05-15 524.05-16.2L524.05-16.2Q524.05-18.15 526.67-19.93 529.3-21.7 531.95-21.7 534.6-21.7 536.1-21.2 537.6-20.7 538.32-20.08 539.05-19.45 539.45-18.4L539.45-18.4Q539.95-17.15 539.95-14.48 539.95-11.8 539.82-9.73 539.7-7.65 539.7-5.95 539.7-4.25 540.1-3.18 540.5-2.1 541.05-1.8 541.6-1.5 542.15-1.45L542.15-1.45Q543.5-1.35 543.5-0.65L543.5-0.65Q543.5 0.4 540.35 0.4L540.35 0.4Q539.05 0.4 538.12-0.3 537.2-1 536.8-1.68 536.4-2.35 536.35-2.35 536.3-2.35 535.95-2.02 535.6-1.7 534.97-1.25 534.35-0.8 533.55-0.35L533.55-0.35Q531.7 0.75 529.75 0.75ZM535.85-10.4L535.85-10.4 535.35-10.3Q534.2-10.1 533.9-10.05 533.6-10 532.5-9.75 531.4-9.5 530.97-9.3 530.55-9.1 529.77-8.68 529-8.25 528.65-7.8L528.65-7.8Q527.75-6.4 527.75-4.85 527.75-3.3 528.75-2.27 529.75-1.25 531.32-1.25 532.9-1.25 533.82-1.65 534.75-2.05 535.2-2.55 535.65-3.05 535.9-3.9L535.9-3.9Q536.2-4.85 536.2-6.35L536.2-6.35 536.2-9.95Q536.2-10.4 535.85-10.4ZM560.89-20.05L560.89-20.05 561.09-17.05Q561.09-16.2 560.89-15.9 560.69-15.6 560.32-15.6 559.94-15.6 559.52-16.32 559.09-17.05 558.57-17.9 558.04-18.75 556.87-19.48 555.69-20.2 554.19-20.2 552.69-20.2 551.74-19.48 550.79-18.75 550.79-17.9 550.79-17.05 550.94-16.53 551.09-16 551.47-15.6 551.84-15.2 552.12-14.93 552.39-14.65 553.04-14.35 553.69-14.05 554.02-13.93 554.34-13.8 555.09-13.5L555.09-13.5Q559.64-11.9 560.94-10.38 562.24-8.85 562.24-6 562.24-3.15 559.59-0.75L559.59-0.75Q557.79 0.8 554.64 0.8L554.64 0.8Q552.49 0.8 549.84-0.25L549.84-0.25Q549.09-0.55 548.97-0.58 548.84-0.6 548.57-0.7 548.29-0.8 548.17-0.83 548.04-0.85 547.84-0.95 547.64-1.05 547.57-1.13 547.49-1.2 547.39-1.35L547.39-1.35Q547.24-1.6 547.24-2.15L547.24-2.15 547.24-6.5Q547.24-7.05 547.47-7.43 547.69-7.8 548.09-7.8 548.49-7.8 548.67-7.58 548.84-7.35 548.99-6.65 549.14-5.95 549.29-5.65L549.29-5.65Q551.14-1.05 554.49-1.05L554.49-1.05Q556.04-1.05 557.44-1.88 558.84-2.7 558.84-4.48 558.84-6.25 557.69-7.35 556.54-8.45 554.89-9.08 553.24-9.7 551.59-10.38 549.94-11.05 548.79-12.38 547.64-13.7 547.64-15.7L547.64-15.7Q547.64-18.5 549.89-20.2 552.14-21.9 554.84-21.9 557.54-21.9 558.94-21.48 560.34-21.05 560.62-20.7 560.89-20.35 560.89-20.05ZM575.64 0.3L572.09 0.2 568.54 0.3Q566.54 0.3 566.54-0.38 566.54-1.05 567.29-1.3L567.29-1.3Q567.34-1.3 567.49-1.35L567.49-1.35Q568.64-1.75 568.99-2.55 569.34-3.35 569.34-10.3L569.34-10.3 569.34-14.7Q569.34-16.15 568.99-17 568.64-17.85 568.34-18.05 568.04-18.25 567.31-18.38 566.59-18.5 566.26-18.63 565.94-18.75 565.94-19.03 565.94-19.3 566.06-19.45 566.19-19.6 566.56-19.78 566.94-19.95 567.34-20.1L567.34-20.1Q568.74-20.5 569.64-20.9 570.54-21.3 571.01-21.5 571.49-21.7 571.64-21.8L571.64-21.8Q571.99-21.95 572.49-21.95L572.49-21.95Q573.24-21.95 573.24-21L573.24-21 572.94-18.6 572.94-4.9Q572.94-3.4 573.41-2.55 573.89-1.7 574.41-1.5 574.94-1.3 575.64-1.25 576.34-1.2 576.54-1.2L576.54-1.2Q577.24-1.1 577.24-0.5L577.24-0.5Q577.24 0.35 576.39 0.35L576.39 0.35 575.64 0.3ZM571.24-26.65Q570.24-26.65 569.51-27.7 568.79-28.75 568.79-29.43 568.79-30.1 569.66-31.18 570.54-32.25 571.31-32.25 572.09-32.25 572.84-31.23 573.59-30.2 573.59-29.4 573.59-28.6 572.64-27.63 571.69-26.65 571.24-26.65L571.24-26.65ZM594.74-20.05L594.74-20.05 594.94-17.05Q594.94-16.2 594.74-15.9 594.54-15.6 594.16-15.6 593.79-15.6 593.36-16.32 592.94-17.05 592.41-17.9 591.89-18.75 590.71-19.48 589.54-20.2 588.04-20.2 586.54-20.2 585.59-19.48 584.64-18.75 584.64-17.9 584.64-17.05 584.79-16.53 584.94-16 585.31-15.6 585.69-15.2 585.96-14.93 586.24-14.65 586.89-14.35 587.54-14.05 587.86-13.93 588.19-13.8 588.94-13.5L588.94-13.5Q593.49-11.9 594.79-10.38 596.09-8.85 596.09-6 596.09-3.15 593.44-0.75L593.44-0.75Q591.64 0.8 588.49 0.8L588.49 0.8Q586.34 0.8 583.69-0.25L583.69-0.25Q582.94-0.55 582.81-0.58 582.69-0.6 582.41-0.7 582.14-0.8 582.01-0.83 581.89-0.85 581.69-0.95 581.49-1.05 581.41-1.13 581.34-1.2 581.24-1.35L581.24-1.35Q581.09-1.6 581.09-2.15L581.09-2.15 581.09-6.5Q581.09-7.05 581.31-7.43 581.54-7.8 581.94-7.8 582.34-7.8 582.51-7.58 582.69-7.35 582.84-6.65 582.99-5.95 583.14-5.65L583.14-5.65Q584.99-1.05 588.34-1.05L588.34-1.05Q589.89-1.05 591.29-1.88 592.69-2.7 592.69-4.48 592.69-6.25 591.54-7.35 590.39-8.45 588.74-9.08 587.09-9.7 585.44-10.38 583.79-11.05 582.64-12.38 581.49-13.7 581.49-15.7L581.49-15.7Q581.49-18.5 583.74-20.2 585.99-21.9 588.69-21.9 591.39-21.9 592.79-21.48 594.19-21.05 594.46-20.7 594.74-20.35 594.74-20.05ZM612.43-21.2L618.48-21.1 620.03-21.15Q621.13-21.15 621.13-20.45L621.13-20.45Q621.13-20.1 620.98-20.05L620.98-20.05Q620.68-19.95 620.38-19.95L620.38-19.95Q618.88-19.85 618.88-18.55L618.88-18.55Q618.88-16.7 621.83-10.2L621.83-10.2Q622.23-9.4 622.78-8L622.78-8Q623.88-5.15 624.18-5.15L624.18-5.15Q624.68-5.15 626.81-10.63 628.93-16.1 628.93-17.4 628.93-18.7 628.51-19.18 628.08-19.65 627.58-19.7L627.58-19.7Q626.18-19.9 626.18-20.7L626.18-20.7Q626.18-21.1 627.23-21.1L627.23-21.1 632.98-21.1Q633.93-21.1 634.18-21 634.43-20.9 634.43-20.45 634.43-20 633.61-19.68 632.78-19.35 632.28-18.65 631.78-17.95 631.38-17.13 630.98-16.3 630.48-15.1L630.48-15.1Q628.98-11.35 626.73-6.6 624.48-1.85 624.26-1.4 624.03-0.95 623.68-0.35L623.68-0.35Q623.18 0.65 622.73 0.65L622.73 0.65Q621.88 0.65 619.53-5.83 617.18-12.3 616.78-12.3L616.78-12.3Q616.63-12.3 613.58-5.9 610.53 0.5 609.58 0.5L609.58 0.5Q609.18 0.5 608.83-0.2 608.48-0.9 606.91-5 605.33-9.1 604.33-11.58 603.33-14.05 602.91-15.28 602.48-16.5 602.28-17L602.28-17Q601.58-18.4 599.93-19.8L599.93-19.8Q599.73-20 599.48-20.13 599.23-20.25 599.13-20.3L599.13-20.3Q598.98-20.45 598.98-20.8L598.98-20.8Q598.98-21.35 599.93-21.35L599.93-21.35 603.48-21.15 605.93-21.2Q607.43-21.2 607.86-21.13 608.28-21.05 608.28-20.65 608.28-20.25 607.73-20.1L607.73-20.1Q606.08-19.75 606.08-18.13 606.08-16.5 608.88-10.2L608.88-10.2Q609.23-9.5 609.83-8.03 610.43-6.55 610.78-5.88 611.13-5.2 611.33-5.2 611.53-5.2 612.61-7.23 613.68-9.25 614.06-10 614.43-10.75 614.63-11.13 614.83-11.5 615.08-11.98 615.33-12.45 615.43-12.68 615.53-12.9 615.66-13.2 615.78-13.5 615.83-13.63 615.88-13.75 615.93-13.98 615.98-14.2 615.98-14.35L615.98-14.35 615.98-14.7Q615.98-15.05 615.51-16.2 615.03-17.35 614.51-18.13 613.98-18.9 613.38-19.4 612.78-19.9 612.48-20L612.48-20Q611.68-20.3 611.68-20.75 611.68-21.2 612.43-21.2L612.43-21.2ZM643.68 0.75L643.68 0.75Q637.78 0.75 637.78-4.25L637.78-4.25Q637.78-7.85 640.78-9.2L640.78-9.2Q643.28-10.25 648.43-11.1L648.43-11.1Q648.58-11.15 648.83-11.18 649.08-11.2 649.36-11.25 649.63-11.3 649.78-11.35L649.78-11.35Q650.13-11.5 650.13-12.05L650.13-12.05 650.23-14.65Q650.23-17.5 648.58-18.78 646.93-20.05 645.38-20.05L645.38-20.05Q641.78-20.05 641.78-17.05L641.78-17.05 641.98-15.25Q641.98-14.25 641.08-14.25L641.08-14.25Q640.38-14.25 639.53-14.5L639.53-14.5Q637.98-15 637.98-16.2L637.98-16.2Q637.98-18.15 640.61-19.93 643.23-21.7 645.88-21.7 648.53-21.7 650.03-21.2 651.53-20.7 652.26-20.08 652.98-19.45 653.38-18.4L653.38-18.4Q653.88-17.15 653.88-14.48 653.88-11.8 653.76-9.73 653.63-7.65 653.63-5.95 653.63-4.25 654.03-3.18 654.43-2.1 654.98-1.8 655.53-1.5 656.08-1.45L656.08-1.45Q657.43-1.35 657.43-0.65L657.43-0.65Q657.43 0.4 654.28 0.4L654.28 0.4Q652.98 0.4 652.06-0.3 651.13-1 650.73-1.68 650.33-2.35 650.28-2.35 650.23-2.35 649.88-2.02 649.53-1.7 648.91-1.25 648.28-0.8 647.48-0.35L647.48-0.35Q645.63 0.75 643.68 0.75ZM649.78-10.4L649.78-10.4 649.28-10.3Q648.13-10.1 647.83-10.05 647.53-10 646.43-9.75 645.33-9.5 644.91-9.3 644.48-9.1 643.71-8.68 642.93-8.25 642.58-7.8L642.58-7.8Q641.68-6.4 641.68-4.85 641.68-3.3 642.68-2.27 643.68-1.25 645.26-1.25 646.83-1.25 647.76-1.65 648.68-2.05 649.13-2.55 649.58-3.05 649.83-3.9L649.83-3.9Q650.13-4.85 650.13-6.35L650.13-6.35 650.13-9.95Q650.13-10.4 649.78-10.4Z" opacity="1" transform="matrix(1,0,0,1,0,0)" fill="#202046" class="wordmark-text-0" data-fill-palette-color="primary" id="text-0"/>
                        </svg>
                      </g>
                    </svg>
                  </g>
                  <g transform="matrix(1,0,0,1,94.9248,35.74539743634425)">
                    <svg viewBox="0 0 300.5952 14.134417518790015" height="14.134417518790015" width="300.5952">
                      <g transform="matrix(1,0,0,1,0,0)">
                        <svg width="300.5952" viewBox="3.490000009536743 -37.9900016784668 1052.3399658203125 49.4900016784668" height="14.134417518790015" data-palette-color="#fa4238">
                          <path d="M3.49-32.79L3.49-37.01 30-37.01 30-26.54 25-26.54 25-32.79 11.79-32.79 11.79-20.9 24.51-20.9 24.51-16.8 11.79-16.8 11.79-4.2 15.5-4.2 15.5 0 3.49 0 3.49-4.2 7.01-4.2 7.01-32.79 3.49-32.79ZM45.16 0L45.16-2.34Q43.72-1 41.98-0.15 40.23 0.71 38.01 0.71L38.01 0.71Q36.15 0.71 34.6 0.12 33.05-0.46 31.93-1.48 30.81-2.49 30.19-3.83 29.56-5.18 29.56-6.69L29.56-6.69Q29.56-8.3 30.04-9.55 30.52-10.79 31.31-11.71 32.1-12.62 33.16-13.24 34.23-13.87 35.39-14.25 36.55-14.62 37.75-14.78 38.96-14.94 40.06-14.94L40.06-14.94Q41.82-14.94 43.02-14.83 44.21-14.72 45.19-14.53L45.19-14.53 45.21-16.6Q45.21-17.94 44.82-18.93 44.43-19.92 43.72-20.57 43.02-21.22 42.03-21.53 41.04-21.85 39.82-21.85L39.82-21.85Q38.67-21.85 37.62-21.69 36.57-21.53 35.65-21.28 34.74-21.02 33.97-20.69 33.2-20.36 32.66-20L32.66-20 31.17-23.14Q32.08-23.73 33.15-24.23 34.23-24.73 35.41-25.09 36.59-25.44 37.83-25.65 39.06-25.85 40.26-25.85L40.26-25.85Q42.45-25.85 44.21-25.33 45.97-24.8 47.19-23.71 48.41-22.61 49.07-20.91 49.73-19.21 49.73-16.85L49.73-16.85 49.7-4.2 52.51-4.2 52.51 0 45.16 0ZM39.01-3.1L39.01-3.1Q39.91-3.1 40.82-3.32 41.72-3.54 42.53-3.92 43.33-4.3 44.02-4.8 44.7-5.3 45.16-5.83L45.16-5.83 45.19-11.55 39.91-11.55Q38.6-11.55 37.51-11.25 36.42-10.96 35.63-10.4 34.84-9.84 34.4-9.01 33.96-8.18 33.96-7.1L33.96-7.1Q33.96-6.1 34.32-5.36 34.69-4.61 35.36-4.11 36.03-3.61 36.96-3.36 37.89-3.1 39.01-3.1ZM57.44-33.79L57.44-37.99 66.35-37.99 66.35-33.79 66.3-33.79 66.3-14.89 70.7-14.89 76.7-21.09 75.19-21.09 75.19-25.29 84.79-25.29 84.79-21.09 81.59-21.09 73.9-13.16 82.29-4.2 85.35-4.2 85.35 0 80 0 69.65-11.3 66.3-11.3 66.3-4.2 68.4-4.2 68.4 0 57.59 0 57.59-4.2 61.74-4.2 61.74-33.79 57.44-33.79ZM104.26-21.09L104.26-25.29 112.42-25.29 112.42-4.2 115.23-4.2 115.23 0 107.85 0 107.85-2.34Q106.14-1.03 104.13-0.29 102.12 0.44 99.82 0.44L99.82 0.44Q97.92 0.44 96.37-0.11 94.82-0.66 93.73-1.82 92.64-2.98 92.06-4.76 91.47-6.54 91.47-9.01L91.47-9.01 91.47-21.09 88.05-21.09 88.05-25.29 96.21-25.29 96.21-9.55Q96.21-6.64 97.55-5.15 98.89-3.66 101.41-3.66L101.41-3.66Q102.9-3.66 104.55-4.2 106.19-4.74 107.66-5.69L107.66-5.69 107.66-21.09 104.26-21.09ZM121.79-33.79L121.79-37.99 129.99-37.99 129.99-4.2 133.8-4.2 133.8 0 121.79 0 121.79-4.2 125.45-4.2 125.45-33.79 121.79-33.79ZM145.57-33.45L145.57-25.29 151.5-25.29 151.5-21.61 145.52-21.61 145.45-7.01Q145.45-5.52 145.79-4.59 146.13-3.66 146.89-3.31 147.64-2.95 148.6-2.95L148.6-2.95Q149.62-2.95 150.4-3.14 151.18-3.32 152.11-3.76L152.11-3.76 153.16-0.71Q151.99-0.1 150.7 0.26 149.4 0.61 147.64 0.61L147.64 0.61Q145.98 0.61 144.75 0.21 143.52-0.2 142.68-1.15 141.83-2.1 141.42-3.7 141-5.3 141-7.69L141-7.69 141.08-21.61 137.05-21.61 137.05-25.29 141.13-25.29 141.13-31.35 145.57-33.45ZM171.71 0L171.71-2.34Q170.27-1 168.53-0.15 166.78 0.71 164.56 0.71L164.56 0.71Q162.7 0.71 161.15 0.12 159.6-0.46 158.48-1.48 157.36-2.49 156.74-3.83 156.11-5.18 156.11-6.69L156.11-6.69Q156.11-8.3 156.59-9.55 157.07-10.79 157.86-11.71 158.65-12.62 159.71-13.24 160.78-13.87 161.94-14.25 163.1-14.62 164.3-14.78 165.51-14.94 166.61-14.94L166.61-14.94Q168.37-14.94 169.57-14.83 170.76-14.72 171.74-14.53L171.74-14.53 171.76-16.6Q171.76-17.94 171.37-18.93 170.98-19.92 170.27-20.57 169.57-21.22 168.58-21.53 167.59-21.85 166.37-21.85L166.37-21.85Q165.22-21.85 164.17-21.69 163.12-21.53 162.2-21.28 161.29-21.02 160.52-20.69 159.75-20.36 159.21-20L159.21-20 157.72-23.14Q158.63-23.73 159.7-24.23 160.78-24.73 161.96-25.09 163.14-25.44 164.38-25.65 165.61-25.85 166.81-25.85L166.81-25.85Q169-25.85 170.76-25.33 172.52-24.8 173.74-23.71 174.96-22.61 175.62-20.91 176.28-19.21 176.28-16.85L176.28-16.85 176.25-4.2 179.06-4.2 179.06 0 171.71 0ZM165.56-3.1L165.56-3.1Q166.46-3.1 167.37-3.32 168.27-3.54 169.08-3.92 169.88-4.3 170.57-4.8 171.25-5.3 171.71-5.83L171.71-5.83 171.74-11.55 166.46-11.55Q165.15-11.55 164.06-11.25 162.97-10.96 162.18-10.4 161.39-9.84 160.95-9.01 160.51-8.18 160.51-7.1L160.51-7.1Q160.51-6.1 160.87-5.36 161.24-4.61 161.91-4.11 162.58-3.61 163.51-3.36 164.44-3.1 165.56-3.1ZM198.79-18.51Q198.79-19.53 198.31-20.25 197.83-20.97 197.08-21.42 196.32-21.88 195.39-22.08 194.46-22.29 193.59-22.29L193.59-22.29Q192.61-22.29 191.79-22.07 190.97-21.85 190.39-21.44 189.8-21.02 189.47-20.42 189.14-19.82 189.14-19.09L189.14-19.09Q189.14-17.82 189.91-17.08 190.68-16.33 192.49-15.7L192.49-15.7 197.35-13.99Q200.47-12.94 201.91-11.13 203.35-9.33 203.35-6.81L203.35-6.81Q203.35-5.13 202.68-3.72 202.01-2.32 200.78-1.33 199.54-0.34 197.81 0.21 196.08 0.76 193.95 0.76L193.95 0.76Q191 0.76 189.14-0.2 187.29-1.15 186.29-2.71L186.29-2.71 183.75-2.71 183.75-6.91 188.8-6.91Q188.8-5.86 189.25-5.11 189.7-4.37 190.45-3.91 191.19-3.44 192.13-3.22 193.07-3 194.05-3L194.05-3Q195-3 195.88-3.23 196.76-3.47 197.43-3.92 198.1-4.37 198.49-5 198.88-5.64 198.88-6.45L198.88-6.45Q198.88-7.67 198.09-8.52 197.3-9.38 195.39-10.06L195.39-10.06 190.56-11.87Q187.6-12.92 186.18-14.54 184.75-16.16 184.75-18.6L184.75-18.6Q184.75-20.21 185.35-21.58 185.94-22.95 187.08-23.94 188.21-24.93 189.85-25.49 191.49-26.05 193.59-26.05L193.59-26.05Q196.3-26.05 198.13-25.29 199.96-24.54 201.42-22.71L201.42-22.71 203.79-22.71 203.79-18.51 198.79-18.51ZM205.99 0Q205.99 0 205.99 0ZM220.41-32.79L220.41-37.01 232.23-37.01 232.23-32.79 228.71-32.79 228.71-4.2 232.23-4.2 232.23 0 220.41 0 220.41-4.2 223.93-4.2 223.93-32.79 220.41-32.79ZM237.96-33.79L237.96-37.99 246.17-37.99 246.17-4.2 249.98-4.2 249.98 0 237.96 0 237.96-4.2 241.63-4.2 241.63-33.79 237.96-33.79ZM254.42-21.09L254.42-25.29 262.47-25.29 262.47-22.34 262.52-22.34Q263.35-23.05 264.27-23.67 265.18-24.29 266.18-24.76 267.18-25.22 268.27-25.49 269.36-25.76 270.53-25.76L270.53-25.76Q273.26-25.76 275.24-24.74 277.22-23.73 278.29-21.58L278.29-21.58Q279.22-22.41 280.25-23.18 281.27-23.95 282.38-24.51 283.49-25.07 284.71-25.42 285.93-25.76 287.25-25.76L287.25-25.76Q289.3-25.76 290.94-25.2 292.58-24.63 293.72-23.49 294.87-22.34 295.47-20.54 296.07-18.75 296.07-16.31L296.07-16.31 296.07-4.2 299.58-4.2 299.58 0 287.77 0 287.77-4.2 291.33-4.2 291.33-15.75Q291.33-18.65 289.87-20.15 288.4-21.66 285.64-21.66L285.64-21.66Q284.01-21.66 282.3-20.87 280.59-20.09 279.37-18.9L279.37-18.9 279.37-4.2 282.86-4.2 282.86 0 271.07 0 271.07-4.2 274.63-4.2 274.63-15.75Q274.63-18.65 273.15-20.15 271.68-21.66 268.92-21.66L268.92-21.66Q267.33-21.66 265.72-20.9 264.11-20.14 262.67-19.02L262.67-19.02 262.67-4.2 266.23-4.2 266.23 0 254.42 0 254.42-4.2 257.93-4.2 257.93-21.09 254.42-21.09ZM319.7-21.09L319.7-25.29 327.85-25.29 327.85-4.2 330.66-4.2 330.66 0 323.29 0 323.29-2.34Q321.58-1.03 319.56-0.29 317.55 0.44 315.25 0.44L315.25 0.44Q313.35 0.44 311.8-0.11 310.25-0.66 309.16-1.82 308.08-2.98 307.49-4.76 306.9-6.54 306.9-9.01L306.9-9.01 306.9-21.09 303.49-21.09 303.49-25.29 311.64-25.29 311.64-9.55Q311.64-6.64 312.98-5.15 314.33-3.66 316.84-3.66L316.84-3.66Q318.33-3.66 319.98-4.2 321.63-4.74 323.09-5.69L323.09-5.69 323.09-21.09 319.7-21.09ZM334.98 0Q334.98 0 334.98 0ZM357.75-18.9L373.92-32.79 373.92-37.01 382.41-37.01 382.41-32.79 379.51-32.79 363.3-19.14 378.46-4.2 382.41-4.2 382.41 0 372.45 0 372.45-4.2 357.75-18.9ZM349.45-32.79L349.45-37.01 361.46-37.01 361.46-32.79 357.7-32.79 357.7-4.2 361.42-4.2 361.42 0 349.4 0 349.4-4.2 352.92-4.2 352.92-32.79 349.45-32.79ZM386.27-12.65L386.27-12.65Q386.29-15.65 387.23-18.12 388.17-20.58 389.86-22.35 391.54-24.12 393.86-25.07 396.18-26.03 398.96-26.03L398.96-26.03Q401.77-26.03 404.1-25.07 406.43-24.12 408.09-22.38 409.75-20.63 410.68-18.16 411.61-15.7 411.61-12.7L411.61-12.7Q411.61-9.74 410.68-7.26 409.75-4.79 408.09-3 406.43-1.22 404.1-0.23 401.77 0.76 398.96 0.76L398.96 0.76Q396.11 0.76 393.79-0.22 391.47-1.2 389.81-2.97 388.15-4.74 387.22-7.2 386.29-9.67 386.27-12.65ZM391.08-12.65L391.08-12.65Q391.08-10.47 391.7-8.72 392.32-6.96 393.41-5.73 394.49-4.49 395.92-3.82 397.35-3.15 398.96-3.15L398.96-3.15Q400.65-3.15 402.1-3.81 403.55-4.47 404.63-5.7 405.7-6.93 406.31-8.69 406.92-10.45 406.92-12.65L406.92-12.65Q406.92-14.94 406.31-16.72 405.7-18.51 404.64-19.7 403.58-20.9 402.11-21.51 400.65-22.12 398.96-22.12L398.96-22.12Q397.35-22.12 395.92-21.51 394.49-20.9 393.41-19.7 392.32-18.51 391.7-16.72 391.08-14.94 391.08-12.65ZM416.51-21.09L416.51-25.29 424.57-25.29 424.57-22.34 424.62-22.34Q425.45-23.05 426.36-23.67 427.28-24.29 428.28-24.76 429.28-25.22 430.37-25.49 431.45-25.76 432.63-25.76L432.63-25.76Q435.36-25.76 437.34-24.74 439.32-23.73 440.39-21.58L440.39-21.58Q441.32-22.41 442.34-23.18 443.37-23.95 444.48-24.51 445.59-25.07 446.81-25.42 448.03-25.76 449.35-25.76L449.35-25.76Q451.4-25.76 453.04-25.2 454.67-24.63 455.82-23.49 456.97-22.34 457.56-20.54 458.16-18.75 458.16-16.31L458.16-16.31 458.16-4.2 461.68-4.2 461.68 0 449.86 0 449.86-4.2 453.43-4.2 453.43-15.75Q453.43-18.65 451.96-20.15 450.5-21.66 447.74-21.66L447.74-21.66Q446.1-21.66 444.39-20.87 442.68-20.09 441.46-18.9L441.46-18.9 441.46-4.2 444.96-4.2 444.96 0 433.16 0 433.16-4.2 436.73-4.2 436.73-15.75Q436.73-18.65 435.25-20.15 433.77-21.66 431.01-21.66L431.01-21.66Q429.43-21.66 427.82-20.9 426.21-20.14 424.76-19.02L424.76-19.02 424.76-4.2 428.33-4.2 428.33 0 416.51 0 416.51-4.2 420.03-4.2 420.03-21.09 416.51-21.09ZM465.56-21.09L465.56-25.29 473.61-25.29 473.61-23.19Q475.23-24.44 477.13-25.17 479.03-25.9 481.06-25.9L481.06-25.9Q483.55-25.9 485.63-24.98 487.7-24.05 489.2-22.36 490.7-20.68 491.53-18.32 492.36-15.97 492.36-13.11L492.36-13.11Q492.36-10.06 491.44-7.54 490.51-5.03 488.86-3.23 487.21-1.44 484.94-0.44 482.67 0.56 479.96 0.56L479.96 0.56Q478.03 0.56 476.53 0.16 475.03-0.24 473.66-0.88L473.66-0.88 473.66 7.3 477.62 7.3 477.62 11.5 465.61 11.5 465.61 7.3 469.07 7.3 469.07-21.09 465.56-21.09ZM479.86-21.9L479.86-21.9Q478.11-21.9 476.48-21.19 474.86-20.48 473.66-19.24L473.66-19.24 473.66-5.54Q474.47-4.71 475.97-4.05 477.47-3.39 479.72-3.39L479.72-3.39Q481.28-3.39 482.72-4 484.16-4.61 485.26-5.82 486.36-7.03 487.02-8.81 487.68-10.6 487.68-12.94L487.68-12.94Q487.68-15.09 487.05-16.75 486.43-18.41 485.37-19.56 484.31-20.7 482.89-21.3 481.48-21.9 479.86-21.9ZM512.28-21.09L512.28-25.29 520.44-25.29 520.44-4.2 523.25-4.2 523.25 0 515.87 0 515.87-2.34Q514.16-1.03 512.15-0.29 510.14 0.44 507.84 0.44L507.84 0.44Q505.94 0.44 504.39-0.11 502.84-0.66 501.75-1.82 500.66-2.98 500.08-4.76 499.49-6.54 499.49-9.01L499.49-9.01 499.49-21.09 496.07-21.09 496.07-25.29 504.23-25.29 504.23-9.55Q504.23-6.64 505.57-5.15 506.91-3.66 509.43-3.66L509.43-3.66Q510.92-3.66 512.56-4.2 514.21-4.74 515.68-5.69L515.68-5.69 515.68-21.09 512.28-21.09ZM537.33-33.45L537.33-25.29 543.26-25.29 543.26-21.61 537.28-21.61 537.21-7.01Q537.21-5.52 537.55-4.59 537.89-3.66 538.65-3.31 539.41-2.95 540.36-2.95L540.36-2.95Q541.38-2.95 542.16-3.14 542.95-3.32 543.87-3.76L543.87-3.76 544.92-0.71Q543.75-0.1 542.46 0.26 541.16 0.61 539.41 0.61L539.41 0.61Q537.75 0.61 536.51 0.21 535.28-0.2 534.44-1.15 533.6-2.1 533.18-3.7 532.76-5.3 532.76-7.69L532.76-7.69 532.84-21.61 528.81-21.61 528.81-25.29 532.89-25.29 532.89-31.35 537.33-33.45ZM571.12-12.06L552.9-12.06Q552.9-10.99 553.06-10.1 553.22-9.2 553.51-8.4L553.51-8.4Q554.42-5.96 556.41-4.72 558.4-3.49 560.91-3.49L560.91-3.49Q562.89-3.49 564.76-4.04 566.62-4.59 568.68-5.76L568.68-5.76 570.51-2.66Q568.02-0.95 565.5-0.12 562.99 0.71 560.28 0.71L560.28 0.71Q557.71 0.71 555.53-0.15 553.34-1 551.77-2.69 550.19-4.37 549.3-6.88 548.41-9.4 548.41-12.74L548.41-12.74Q548.41-15.45 549.17-17.86 549.93-20.26 551.43-22.06 552.93-23.85 555.15-24.9 557.37-25.95 560.33-25.95L560.33-25.95Q563.18-25.95 565.1-25.09 567.02-24.22 568.22-22.79 569.43-21.36 570.05-19.53 570.68-17.7 570.92-15.8L570.92-15.8Q571.04-14.87 571.08-13.92 571.12-12.96 571.12-12.06L571.12-12.06ZM560.01-22.14L560.01-22.14Q558.42-22.14 557.24-21.69 556.05-21.24 555.22-20.4 554.39-19.56 553.89-18.33 553.39-17.11 553.15-15.6L553.15-15.6 566.26-15.6Q566.16-17.02 565.81-18.21 565.45-19.41 564.72-20.29 563.99-21.17 562.84-21.66 561.69-22.14 560.01-22.14ZM595.48-25.44L595.48-19.95 590.84-19.95 590.84-21.51Q590.04-21.51 589.19-21.2 588.35-20.9 587.62-20.28 586.89-19.65 586.34-18.69 585.79-17.72 585.54-16.41L585.54-16.41 585.54-4.2 589.84-4.2 589.84 0 577.29 0 577.29-4.2 580.78-4.2 580.81-21.09 577.29-21.09 577.29-25.29 585.37-25.29 585.37-21.8Q585.81-22.58 586.36-23.25 586.91-23.93 587.58-24.43 588.25-24.93 589.07-25.21 589.89-25.49 590.84-25.49L590.84-25.49Q592.11-25.49 593.23-25.49 594.36-25.49 595.48-25.44L595.48-25.44ZM598.28 0Q598.28 0 598.28 0ZM624.97-12.11L611.51-12.11 611.51-16.31 624.97-16.31 624.97-12.11ZM627.21 0Q627.21 0 627.21 0ZM660.61-26.95Q660.61-29.1 659.83-30.18 659.04-31.25 658.1-31.82 657.16-32.4 656.04-32.7 654.92-33.01 653.79-33.01L653.79-33.01Q651.94-33.01 650.55-32.58 649.16-32.15 648.24-31.42 647.33-30.69 646.86-29.71 646.4-28.74 646.4-27.66L646.4-27.66Q646.4-26.05 646.97-25.06 647.54-24.07 648.42-23.47 649.3-22.88 650.36-22.53 651.43-22.19 652.4-21.85L652.4-21.85 657.33-20.24Q659.56-19.53 661.25-18.63 662.95-17.72 664.1-16.49 665.25-15.26 665.84-13.65 666.44-12.04 666.44-9.91L666.44-9.91Q666.44-7.62 665.5-5.66 664.56-3.71 662.88-2.27 661.19-0.83 658.86-0.01 656.53 0.81 653.75 0.81L653.75 0.81Q650.89 0.81 648.86 0.16 646.84-0.49 645.46-1.57 644.08-2.66 643.25-4.05 642.42-5.44 641.95-6.91L641.95-6.91 640.1-6.91 640.1-11.11 646.25-11.11Q646.25-8.4 646.82-7.28 647.4-6.15 648.42-5.41 649.45-4.66 650.87-4.28 652.28-3.91 653.99-3.91L653.99-3.91Q655.65-3.91 656.98-4.3 658.31-4.69 659.25-5.43 660.19-6.18 660.69-7.24 661.19-8.3 661.19-9.64L661.19-9.64Q661.19-11.13 660.57-12.17 659.95-13.21 658.97-13.94 657.99-14.67 656.83-15.14 655.67-15.6 654.6-15.94L654.6-15.94 649.25-17.46Q647.5-17.99 646.04-18.82 644.59-19.65 643.55-20.85 642.52-22.05 641.95-23.65 641.39-25.24 641.39-27.34L641.39-27.34Q641.39-29.47 642.22-31.32 643.05-33.18 644.66-34.57 646.28-35.96 648.61-36.76 650.94-37.55 653.94-37.55L653.94-37.55Q655.92-37.55 657.59-37.08 659.26-36.62 660.62-35.78 661.97-34.94 663.01-33.75 664.05-32.57 664.76-31.15L664.76-31.15 666.59-31.15 666.59-26.95 660.61-26.95ZM669.93-21.09L669.93-25.29 678.18-25.29 678.18-4.2 681.99-4.2 681.99 0 669.98 0 669.98-4.2 673.59-4.2 673.59-21.09 669.93-21.09ZM672.74-34.25L672.74-34.25Q672.74-34.89 672.99-35.46 673.25-36.04 673.68-36.46 674.1-36.89 674.69-37.15 675.28-37.4 675.94-37.4L675.94-37.4Q676.57-37.4 677.14-37.15 677.72-36.89 678.15-36.46 678.57-36.04 678.83-35.46 679.09-34.89 679.09-34.25L679.09-34.25Q679.09-33.59 678.83-33.01 678.57-32.42 678.15-31.97 677.72-31.52 677.14-31.26 676.57-31.01 675.94-31.01L675.94-31.01Q675.28-31.01 674.69-31.26 674.1-31.52 673.68-31.97 673.25-32.42 672.99-33.01 672.74-33.59 672.74-34.25ZM700.76-18.51Q700.76-19.53 700.29-20.25 699.81-20.97 699.05-21.42 698.3-21.88 697.37-22.08 696.44-22.29 695.56-22.29L695.56-22.29Q694.59-22.29 693.77-22.07 692.95-21.85 692.36-21.44 691.78-21.02 691.45-20.42 691.12-19.82 691.12-19.09L691.12-19.09Q691.12-17.82 691.89-17.08 692.66-16.33 694.46-15.7L694.46-15.7 699.32-13.99Q702.45-12.94 703.89-11.13 705.33-9.33 705.33-6.81L705.33-6.81Q705.33-5.13 704.66-3.72 703.99-2.32 702.75-1.33 701.52-0.34 699.79 0.21 698.05 0.76 695.93 0.76L695.93 0.76Q692.97 0.76 691.12-0.2 689.26-1.15 688.26-2.71L688.26-2.71 685.72-2.71 685.72-6.91 690.78-6.91Q690.78-5.86 691.23-5.11 691.68-4.37 692.43-3.91 693.17-3.44 694.11-3.22 695.05-3 696.03-3L696.03-3Q696.98-3 697.86-3.23 698.74-3.47 699.41-3.92 700.08-4.37 700.47-5 700.86-5.64 700.86-6.45L700.86-6.45Q700.86-7.67 700.07-8.52 699.27-9.38 697.37-10.06L697.37-10.06 692.54-11.87Q689.58-12.92 688.15-14.54 686.72-16.16 686.72-18.6L686.72-18.6Q686.72-20.21 687.32-21.58 687.92-22.95 689.06-23.94 690.19-24.93 691.83-25.49 693.46-26.05 695.56-26.05L695.56-26.05Q698.27-26.05 700.1-25.29 701.93-24.54 703.4-22.71L703.4-22.71 705.77-22.71 705.77-18.51 700.76-18.51ZM717.73-33.45L717.73-25.29 723.66-25.29 723.66-21.61 717.68-21.61 717.61-7.01Q717.61-5.52 717.95-4.59 718.29-3.66 719.05-3.31 719.8-2.95 720.76-2.95L720.76-2.95Q721.78-2.95 722.56-3.14 723.34-3.32 724.27-3.76L724.27-3.76 725.32-0.71Q724.15-0.1 722.85 0.26 721.56 0.61 719.8 0.61L719.8 0.61Q718.14 0.61 716.91 0.21 715.68-0.2 714.83-1.15 713.99-2.1 713.58-3.7 713.16-5.3 713.16-7.69L713.16-7.69 713.24-21.61 709.21-21.61 709.21-25.29 713.28-25.29 713.28-31.35 717.73-33.45ZM751.51-12.06L733.3-12.06Q733.3-10.99 733.46-10.1 733.62-9.2 733.91-8.4L733.91-8.4Q734.82-5.96 736.8-4.72 738.79-3.49 741.31-3.49L741.31-3.49Q743.29-3.49 745.15-4.04 747.02-4.59 749.07-5.76L749.07-5.76 750.9-2.66Q748.41-0.95 745.9-0.12 743.38 0.71 740.67 0.71L740.67 0.71Q738.11 0.71 735.93-0.15 733.74-1 732.17-2.69 730.59-4.37 729.7-6.88 728.81-9.4 728.81-12.74L728.81-12.74Q728.81-15.45 729.57-17.86 730.32-20.26 731.82-22.06 733.33-23.85 735.55-24.9 737.77-25.95 740.72-25.95L740.72-25.95Q743.58-25.95 745.5-25.09 747.41-24.22 748.62-22.79 749.83-21.36 750.45-19.53 751.07-17.7 751.32-15.8L751.32-15.8Q751.44-14.87 751.48-13.92 751.51-12.96 751.51-12.06L751.51-12.06ZM740.41-22.14L740.41-22.14Q738.82-22.14 737.64-21.69 736.45-21.24 735.62-20.4 734.79-19.56 734.29-18.33 733.79-17.11 733.55-15.6L733.55-15.6 746.66-15.6Q746.56-17.02 746.2-18.21 745.85-19.41 745.12-20.29 744.39-21.17 743.24-21.66 742.09-22.14 740.41-22.14ZM757.69-21.09L757.69-25.29 765.75-25.29 765.75-22.34 765.79-22.34Q766.62-23.05 767.54-23.67 768.46-24.29 769.46-24.76 770.46-25.22 771.54-25.49 772.63-25.76 773.8-25.76L773.8-25.76Q776.54-25.76 778.51-24.74 780.49-23.73 781.57-21.58L781.57-21.58Q782.49-22.41 783.52-23.18 784.54-23.95 785.65-24.51 786.77-25.07 787.99-25.42 789.21-25.76 790.53-25.76L790.53-25.76Q792.58-25.76 794.21-25.2 795.85-24.63 797-23.49 798.14-22.34 798.74-20.54 799.34-18.75 799.34-16.31L799.34-16.31 799.34-4.2 802.85-4.2 802.85 0 791.04 0 791.04-4.2 794.6-4.2 794.6-15.75Q794.6-18.65 793.14-20.15 791.67-21.66 788.91-21.66L788.91-21.66Q787.28-21.66 785.57-20.87 783.86-20.09 782.64-18.9L782.64-18.9 782.64-4.2 786.13-4.2 786.13 0 774.34 0 774.34-4.2 777.9-4.2 777.9-15.75Q777.9-18.65 776.43-20.15 774.95-21.66 772.19-21.66L772.19-21.66Q770.6-21.66 768.99-20.9 767.38-20.14 765.94-19.02L765.94-19.02 765.94-4.2 769.51-4.2 769.51 0 757.69 0 757.69-4.2 761.2-4.2 761.2-21.09 757.69-21.09ZM805.29 0Q805.29 0 805.29 0ZM819.72-32.79L819.72-37.01 831.54-37.01 831.54-32.79 828.02-32.79 828.02-4.2 831.54-4.2 831.54 0 819.72 0 819.72-4.2 823.24-4.2 823.24-32.79 819.72-32.79ZM854.12 0L854.12-4.2 857.68-4.2 857.68-15.75Q857.68-18.65 856.2-20.15 854.73-21.66 851.97-21.66L851.97-21.66Q850.38-21.66 848.77-20.9 847.16-20.14 845.72-19.02L845.72-19.02 845.72-4.2 849.28-4.2 849.28 0 837.47 0 837.47-4.2 840.98-4.2 840.98-21.09 837.47-21.09 837.47-25.29 845.52-25.29 845.52-22.31 845.57-22.31Q846.38-23.02 847.29-23.66 848.21-24.29 849.21-24.76 850.21-25.22 851.3-25.49 852.38-25.76 853.58-25.76L853.58-25.76Q855.61-25.76 857.24-25.2 858.88-24.63 860.02-23.49 861.17-22.34 861.79-20.54 862.42-18.75 862.42-16.31L862.42-16.31 862.42-4.2 865.93-4.2 865.93 0 854.12 0ZM879.16-29.39L879.16-25.29 885.02-25.29 885.02-21.61 879.16-21.61 879.16-4.2 883.12-4.2 883.12 0 870.81 0 870.81-4.2 874.62-4.2 874.62-21.61 870.45-21.61 870.45-25.29 874.62-25.29 874.62-29.25Q874.67-31.45 875.26-33.08 875.84-34.72 876.92-35.82 877.99-36.91 879.5-37.45 881.02-37.99 882.87-37.99L882.87-37.99Q884.17-37.99 885.19-37.87 886.22-37.74 887.02-37.54 887.83-37.33 888.45-37.08 889.08-36.84 889.56-36.6L889.56-36.6 888.17-33.35Q887.39-33.76 886.13-34.06 884.88-34.35 883.51-34.35L883.51-34.35Q881.48-34.35 880.32-33.09 879.16-31.84 879.16-29.39L879.16-29.39ZM888.66-12.65L888.66-12.65Q888.68-15.65 889.62-18.12 890.56-20.58 892.25-22.35 893.93-24.12 896.25-25.07 898.57-26.03 901.35-26.03L901.35-26.03Q904.16-26.03 906.49-25.07 908.82-24.12 910.48-22.38 912.14-20.63 913.07-18.16 914-15.7 914-12.7L914-12.7Q914-9.74 913.07-7.26 912.14-4.79 910.48-3 908.82-1.22 906.49-0.23 904.16 0.76 901.35 0.76L901.35 0.76Q898.5 0.76 896.18-0.22 893.86-1.2 892.2-2.97 890.54-4.74 889.61-7.2 888.68-9.67 888.66-12.65ZM893.47-12.65L893.47-12.65Q893.47-10.47 894.09-8.72 894.71-6.96 895.8-5.73 896.89-4.49 898.31-3.82 899.74-3.15 901.35-3.15L901.35-3.15Q903.04-3.15 904.49-3.81 905.94-4.47 907.02-5.7 908.09-6.93 908.7-8.69 909.31-10.45 909.31-12.65L909.31-12.65Q909.31-14.94 908.7-16.72 908.09-18.51 907.03-19.7 905.97-20.9 904.5-21.51 903.04-22.12 901.35-22.12L901.35-22.12Q899.74-22.12 898.31-21.51 896.89-20.9 895.8-19.7 894.71-18.51 894.09-16.72 893.47-14.94 893.47-12.65ZM937.09-25.44L937.09-19.95 932.45-19.95 932.45-21.51Q931.65-21.51 930.81-21.2 929.96-20.9 929.23-20.28 928.5-19.65 927.95-18.69 927.4-17.72 927.16-16.41L927.16-16.41 927.16-4.2 931.45-4.2 931.45 0 918.9 0 918.9-4.2 922.4-4.2 922.42-21.09 918.9-21.09 918.9-25.29 926.99-25.29 926.99-21.8Q927.42-22.58 927.97-23.25 928.52-23.93 929.19-24.43 929.87-24.93 930.68-25.21 931.5-25.49 932.45-25.49L932.45-25.49Q933.72-25.49 934.85-25.49 935.97-25.49 937.09-25.44L937.09-25.44ZM942.34-21.09L942.34-25.29 950.4-25.29 950.4-22.34 950.44-22.34Q951.27-23.05 952.19-23.67 953.11-24.29 954.11-24.76 955.11-25.22 956.19-25.49 957.28-25.76 958.45-25.76L958.45-25.76Q961.19-25.76 963.16-24.74 965.14-23.73 966.22-21.58L966.22-21.58Q967.14-22.41 968.17-23.18 969.19-23.95 970.31-24.51 971.42-25.07 972.64-25.42 973.86-25.76 975.18-25.76L975.18-25.76Q977.23-25.76 978.86-25.2 980.5-24.63 981.65-23.49 982.79-22.34 983.39-20.54 983.99-18.75 983.99-16.31L983.99-16.31 983.99-4.2 987.51-4.2 987.51 0 975.69 0 975.69-4.2 979.25-4.2 979.25-15.75Q979.25-18.65 977.79-20.15 976.32-21.66 973.56-21.66L973.56-21.66Q971.93-21.66 970.22-20.87 968.51-20.09 967.29-18.9L967.29-18.9 967.29-4.2 970.78-4.2 970.78 0 958.99 0 958.99-4.2 962.55-4.2 962.55-15.75Q962.55-18.65 961.08-20.15 959.6-21.66 956.84-21.66L956.84-21.66Q955.25-21.66 953.64-20.9 952.03-20.14 950.59-19.02L950.59-19.02 950.59-4.2 954.16-4.2 954.16 0 942.34 0 942.34-4.2 945.85-4.2 945.85-21.09 942.34-21.09ZM1007.25 0L1007.25-2.34Q1005.81-1 1004.07-0.15 1002.32 0.71 1000.1 0.71L1000.1 0.71Q998.24 0.71 996.69 0.12 995.14-0.46 994.02-1.48 992.9-2.49 992.28-3.83 991.65-5.18 991.65-6.69L991.65-6.69Q991.65-8.3 992.13-9.55 992.61-10.79 993.4-11.71 994.19-12.62 995.25-13.24 996.32-13.87 997.48-14.25 998.64-14.62 999.84-14.78 1001.05-14.94 1002.15-14.94L1002.15-14.94Q1003.91-14.94 1005.11-14.83 1006.3-14.72 1007.28-14.53L1007.28-14.53 1007.3-16.6Q1007.3-17.94 1006.91-18.93 1006.52-19.92 1005.81-20.57 1005.11-21.22 1004.12-21.53 1003.13-21.85 1001.91-21.85L1001.91-21.85Q1000.76-21.85 999.71-21.69 998.66-21.53 997.74-21.28 996.83-21.02 996.06-20.69 995.29-20.36 994.75-20L994.75-20 993.26-23.14Q994.17-23.73 995.24-24.23 996.32-24.73 997.5-25.09 998.68-25.44 999.92-25.65 1001.15-25.85 1002.35-25.85L1002.35-25.85Q1004.54-25.85 1006.3-25.33 1008.06-24.8 1009.28-23.71 1010.5-22.61 1011.16-20.91 1011.82-19.21 1011.82-16.85L1011.82-16.85 1011.79-4.2 1014.6-4.2 1014.6 0 1007.25 0ZM1001.1-3.1L1001.1-3.1Q1002-3.1 1002.91-3.32 1003.81-3.54 1004.62-3.92 1005.42-4.3 1006.11-4.8 1006.79-5.3 1007.25-5.83L1007.25-5.83 1007.28-11.55 1002-11.55Q1000.69-11.55 999.6-11.25 998.51-10.96 997.72-10.4 996.93-9.84 996.49-9.01 996.05-8.18 996.05-7.1L996.05-7.1Q996.05-6.1 996.41-5.36 996.78-4.61 997.45-4.11 998.12-3.61 999.05-3.36 999.98-3.1 1001.1-3.1ZM1034.33-18.51Q1034.33-19.53 1033.85-20.25 1033.37-20.97 1032.62-21.42 1031.86-21.88 1030.93-22.08 1030.01-22.29 1029.13-22.29L1029.13-22.29Q1028.15-22.29 1027.33-22.07 1026.51-21.85 1025.93-21.44 1025.34-21.02 1025.01-20.42 1024.68-19.82 1024.68-19.09L1024.68-19.09Q1024.68-17.82 1025.45-17.08 1026.22-16.33 1028.03-15.7L1028.03-15.7 1032.89-13.99Q1036.01-12.94 1037.45-11.13 1038.89-9.33 1038.89-6.81L1038.89-6.81Q1038.89-5.13 1038.22-3.72 1037.55-2.32 1036.32-1.33 1035.08-0.34 1033.35 0.21 1031.62 0.76 1029.49 0.76L1029.49 0.76Q1026.54 0.76 1024.68-0.2 1022.83-1.15 1021.83-2.71L1021.83-2.71 1019.29-2.71 1019.29-6.91 1024.34-6.91Q1024.34-5.86 1024.79-5.11 1025.24-4.37 1025.99-3.91 1026.73-3.44 1027.67-3.22 1028.61-3 1029.59-3L1029.59-3Q1030.54-3 1031.42-3.23 1032.3-3.47 1032.97-3.92 1033.64-4.37 1034.03-5 1034.42-5.64 1034.42-6.45L1034.42-6.45Q1034.42-7.67 1033.63-8.52 1032.84-9.38 1030.93-10.06L1030.93-10.06 1026.1-11.87Q1023.14-12.92 1021.72-14.54 1020.29-16.16 1020.29-18.6L1020.29-18.6Q1020.29-20.21 1020.89-21.58 1021.48-22.95 1022.62-23.94 1023.76-24.93 1025.39-25.49 1027.03-26.05 1029.13-26.05L1029.13-26.05Q1031.84-26.05 1033.67-25.29 1035.5-24.54 1036.96-22.71L1036.96-22.71 1039.33-22.71 1039.33-18.51 1034.33-18.51ZM1043.77-21.09L1043.77-25.29 1052.02-25.29 1052.02-4.2 1055.83-4.2 1055.83 0 1043.82 0 1043.82-4.2 1047.43-4.2 1047.43-21.09 1043.77-21.09ZM1046.58-34.25L1046.58-34.25Q1046.58-34.89 1046.84-35.46 1047.09-36.04 1047.52-36.46 1047.95-36.89 1048.53-37.15 1049.12-37.4 1049.78-37.4L1049.78-37.4Q1050.41-37.4 1050.99-37.15 1051.56-36.89 1051.99-36.46 1052.41-36.04 1052.67-35.46 1052.93-34.89 1052.93-34.25L1052.93-34.25Q1052.93-33.59 1052.67-33.01 1052.41-32.42 1051.99-31.97 1051.56-31.52 1050.99-31.26 1050.41-31.01 1049.78-31.01L1049.78-31.01Q1049.12-31.01 1048.53-31.26 1047.95-31.52 1047.52-31.97 1047.09-32.42 1046.84-33.01 1046.58-33.59 1046.58-34.25Z" opacity="1" transform="matrix(1,0,0,1,0,0)" fill="#fa4238" class="slogan-text-1" data-fill-palette-color="secondary" id="text-1"/>
                        </svg>
                      </g>
                    </svg>
                  </g>
                </svg>
              </g>
            </svg>
          </g>
          <g transform="matrix(1,0,0,1,402.34695113017517,0)">
            <svg viewBox="0 0 68.93390426799556 68.93390426799556" height="68.93390426799556" width="68.93390426799556">
              <g data-palette-color="#fa4238">
                <rect width="18.841933833252117" height="68.93390426799556" fill="#fa4238" stroke="transparent" data-fill-palette-color="accent" x="0" fill-opacity="1"/>
                <rect width="18.841933833252117" height="68.93390426799556" fill="#fa4238" stroke="transparent" data-fill-palette-color="accent" x="22.97796808933185" fill-opacity="0.75"/>
                <rect width="18.841933833252117" height="68.93390426799556" fill="#fa4238" stroke="transparent" data-fill-palette-color="accent" x="45.9559361786637" fill-opacity="0.5"/>
              </g>
            </svg>
          </g>
        </svg>
      </g>
      <defs/>
    </svg>